<?xml version="1.0" encoding="UTF-8" standalone="no"?>
<!-- Created with Inkscape (http://www.inkscape.org/) -->

<svg
   xmlns:dc="http://purl.org/dc/elements/1.1/"
   xmlns:cc="http://creativecommons.org/ns#"
   xmlns:rdf="http://www.w3.org/1999/02/22-rdf-syntax-ns#"
   xmlns:svg="http://www.w3.org/2000/svg"
   xmlns="http://www.w3.org/2000/svg"
   xmlns:sodipodi="http://sodipodi.sourceforge.net/DTD/sodipodi-0.dtd"
   xmlns:inkscape="http://www.inkscape.org/namespaces/inkscape"
   width="150mm"
   height="60mm"
   viewBox="0 0 150 60"
   version="1.1"
   id="svg8"
   inkscape:version="0.92.3 (2405546, 2018-03-11)"
   sodipodi:docname="holo.svg"
   inkscape:export-filename="C:\Users\strix\Dropbox\logo-for-pystol\pystol.png"
   inkscape:export-xdpi="100.095"
   inkscape:export-ydpi="100.095">
  <defs
     id="defs2">
    <inkscape:path-effect
       effect="bspline"
       id="path-effect1615"
       is_visible="true"
       weight="33.333333"
       steps="2"
       helper_size="0"
       apply_no_weight="true"
       apply_with_weight="true"
       only_selected="false" />
    <clipPath
       clipPathUnits="userSpaceOnUse"
       id="clipPath1086">
      <path
         d="m 785.047,369.133 h 105.824 v -7.764 H 785.047 Z"
         id="path1084"
         inkscape:connector-curvature="0" />
    </clipPath>
    <clipPath
       clipPathUnits="userSpaceOnUse"
       id="clipPath1090">
      <path
         d="m 785.047,369.133 h 105.824 v -7.764 H 785.047 Z"
         id="path1088"
         inkscape:connector-curvature="0" />
    </clipPath>
    <clipPath
       clipPathUnits="userSpaceOnUse"
       id="clipPath1054">
      <path
         d="M 784.271,387.718 H 891.649 V 367.684 H 784.271 Z"
         id="path1052"
         inkscape:connector-curvature="0" />
    </clipPath>
    <clipPath
       clipPathUnits="userSpaceOnUse"
       id="clipPath1058">
      <path
         d="M 784.271,387.718 H 891.649 V 367.684 H 784.271 Z"
         id="path1056"
         inkscape:connector-curvature="0" />
    </clipPath>
    <clipPath
       clipPathUnits="userSpaceOnUse"
       id="clipPath1054-6">
      <path
         d="M 784.271,387.718 H 891.649 V 367.684 H 784.271 Z"
         id="path1052-0"
         inkscape:connector-curvature="0" />
    </clipPath>
    <clipPath
       clipPathUnits="userSpaceOnUse"
       id="clipPath1058-6">
      <path
         d="M 784.271,387.718 H 891.649 V 367.684 H 784.271 Z"
         id="path1056-2"
         inkscape:connector-curvature="0" />
    </clipPath>
    <circle
       style="opacity:1;vector-effect:none;fill:#c25d02;fill-opacity:1;stroke:#c25d02;stroke-width:0;stroke-linecap:round;stroke-linejoin:miter;stroke-miterlimit:4;stroke-dasharray:none;stroke-dashoffset:0;stroke-opacity:1"
       id="path1712-8"
       cx="545.091"
       cy="1202.2144"
       r="24.123543"
       transform="matrix(0.36551469,-0.93080557,-0.93080557,-0.36551469,0,0)" />
    <circle
       style="opacity:1;vector-effect:none;fill:#c25d02;fill-opacity:1;stroke:#c25d02;stroke-width:0;stroke-linecap:round;stroke-linejoin:miter;stroke-miterlimit:4;stroke-dasharray:none;stroke-dashoffset:0;stroke-opacity:1"
       id="path1712-9"
       cx="545.091"
       cy="1202.2144"
       r="24.123543"
       transform="matrix(0.36551469,-0.93080557,-0.93080557,-0.36551469,0,0)" />
    <clipPath
       clipPathUnits="userSpaceOnUse"
       id="clipPath1054-6-9">
      <path
         d="M 784.271,387.718 H 891.649 V 367.684 H 784.271 Z"
         id="path1052-0-8"
         inkscape:connector-curvature="0" />
    </clipPath>
    <clipPath
       clipPathUnits="userSpaceOnUse"
       id="clipPath1058-6-1">
      <path
         d="M 784.271,387.718 H 891.649 V 367.684 H 784.271 Z"
         id="path1056-2-7"
         inkscape:connector-curvature="0" />
    </clipPath>
    <clipPath
       clipPathUnits="userSpaceOnUse"
       id="clipPath1054-6-4">
      <path
         d="M 784.271,387.718 H 891.649 V 367.684 H 784.271 Z"
         id="path1052-0-2"
         inkscape:connector-curvature="0" />
    </clipPath>
    <clipPath
       clipPathUnits="userSpaceOnUse"
       id="clipPath1058-6-15">
      <path
         d="M 784.271,387.718 H 891.649 V 367.684 H 784.271 Z"
         id="path1056-2-2"
         inkscape:connector-curvature="0" />
    </clipPath>
    <clipPath
       clipPathUnits="userSpaceOnUse"
       id="clipPath1054-6-4-3">
      <path
         d="M 784.271,387.718 H 891.649 V 367.684 H 784.271 Z"
         id="path1052-0-2-6"
         inkscape:connector-curvature="0" />
    </clipPath>
    <clipPath
       clipPathUnits="userSpaceOnUse"
       id="clipPath1058-6-15-0">
      <path
         d="M 784.271,387.718 H 891.649 V 367.684 H 784.271 Z"
         id="path1056-2-2-2"
         inkscape:connector-curvature="0" />
    </clipPath>
    <circle
       style="opacity:1;vector-effect:none;fill:#c25d02;fill-opacity:1;stroke:#c25d02;stroke-width:0;stroke-linecap:round;stroke-linejoin:miter;stroke-miterlimit:4;stroke-dasharray:none;stroke-dashoffset:0;stroke-opacity:1"
       id="path1712-2-8"
       cx="-54.698578"
       cy="-1303.1921"
       transform="rotate(-40.99342)"
       r="20.885929" />
    <circle
       style="opacity:1;vector-effect:none;fill:#c25d02;fill-opacity:1;stroke:#c25d02;stroke-width:0;stroke-linecap:round;stroke-linejoin:miter;stroke-miterlimit:4;stroke-dasharray:none;stroke-dashoffset:0;stroke-opacity:1"
       id="path1712-3"
       cx="49.713654"
       cy="1303.3918"
       r="20.885929"
       transform="rotate(138.78743)" />
    <clipPath
       clipPathUnits="userSpaceOnUse"
       id="clipPath1054-6-4-2">
      <path
         d="M 784.271,387.718 H 891.649 V 367.684 H 784.271 Z"
         id="path1052-0-2-2"
         inkscape:connector-curvature="0" />
    </clipPath>
    <clipPath
       clipPathUnits="userSpaceOnUse"
       id="clipPath1058-6-15-9">
      <path
         d="M 784.271,387.718 H 891.649 V 367.684 H 784.271 Z"
         id="path1056-2-2-8"
         inkscape:connector-curvature="0" />
    </clipPath>
    <circle
       style="opacity:1;vector-effect:none;fill:#c25d02;fill-opacity:1;stroke:#c25d02;stroke-width:0;stroke-linecap:round;stroke-linejoin:miter;stroke-miterlimit:4;stroke-dasharray:none;stroke-dashoffset:0;stroke-opacity:1"
       id="path1712-2-1"
       cx="-54.698578"
       cy="-1303.1921"
       transform="rotate(-40.99342)"
       r="20.885929" />
    <circle
       style="opacity:1;vector-effect:none;fill:#c25d02;fill-opacity:1;stroke:#c25d02;stroke-width:0;stroke-linecap:round;stroke-linejoin:miter;stroke-miterlimit:4;stroke-dasharray:none;stroke-dashoffset:0;stroke-opacity:1"
       id="path1712-5"
       cx="49.713654"
       cy="1303.3918"
       r="20.885929"
       transform="rotate(138.78743)" />
    <clipPath
       clipPathUnits="userSpaceOnUse"
       id="clipPath1054-6-0">
      <path
         d="M 784.271,387.718 H 891.649 V 367.684 H 784.271 Z"
         id="path1052-0-5"
         inkscape:connector-curvature="0" />
    </clipPath>
    <clipPath
       clipPathUnits="userSpaceOnUse"
       id="clipPath1058-6-8">
      <path
         d="M 784.271,387.718 H 891.649 V 367.684 H 784.271 Z"
         id="path1056-2-5"
         inkscape:connector-curvature="0" />
    </clipPath>
    <clipPath
       clipPathUnits="userSpaceOnUse"
       id="clipPath1054-6-0-2">
      <path
         d="M 784.271,387.718 H 891.649 V 367.684 H 784.271 Z"
         id="path1052-0-5-9"
         inkscape:connector-curvature="0" />
    </clipPath>
    <clipPath
       clipPathUnits="userSpaceOnUse"
       id="clipPath1058-6-8-4">
      <path
         d="M 784.271,387.718 H 891.649 V 367.684 H 784.271 Z"
         id="path1056-2-5-3"
         inkscape:connector-curvature="0" />
    </clipPath>
  </defs>
  <sodipodi:namedview
     id="base"
     pagecolor="#ffffff"
     bordercolor="#666666"
     borderopacity="1.0"
     inkscape:pageopacity="0.0"
     inkscape:pageshadow="2"
     inkscape:zoom="2"
     inkscape:cx="138.96001"
     inkscape:cy="-58.676253"
     inkscape:document-units="mm"
     inkscape:current-layer="layer1"
     showgrid="false"
     inkscape:snap-bbox="true"
     inkscape:bbox-paths="true"
     inkscape:bbox-nodes="true"
     inkscape:snap-bbox-edge-midpoints="true"
     inkscape:snap-bbox-midpoints="true"
     inkscape:snap-intersection-paths="true"
     inkscape:window-width="3840"
     inkscape:window-height="1537"
     inkscape:window-x="-8"
     inkscape:window-y="-8"
     inkscape:window-maximized="1"
     inkscape:snap-global="false"
     inkscape:snap-nodes="true"
     inkscape:snap-smooth-nodes="true"
     inkscape:snap-midpoints="true" />
  <metadata
     id="metadata5">
    <rdf:RDF>
      <cc:Work
         rdf:about="">
        <dc:format>image/svg+xml</dc:format>
        <dc:type
           rdf:resource="http://purl.org/dc/dcmitype/StillImage" />
        <dc:title></dc:title>
      </cc:Work>
    </rdf:RDF>
  </metadata>
  <g
     inkscape:label="Capa 1"
     inkscape:groupmode="layer"
     id="layer1"
     transform="translate(0,-237)">
    <flowRoot
       xml:space="preserve"
       id="flowRoot1527"
       style="font-style:normal;font-weight:normal;font-size:40px;line-height:1.25;font-family:sans-serif;letter-spacing:0px;word-spacing:0px;fill:#000000;fill-opacity:1;stroke:none"
       transform="matrix(0.26458333,0,0,0.26458333,2457.5968,856.11776)"><flowRegion
         id="flowRegion1529"><rect
           id="rect1531"
           width="2169.4036"
           height="1187.9395"
           x="1066.317"
           y="2375.5129" /></flowRegion><flowPara
         id="flowPara1533" /></flowRoot>    <g
       id="text1454-8-8-4-45-7-3"
       style="font-style:normal;font-weight:normal;font-size:24.97233963px;line-height:1.25;font-family:sans-serif;letter-spacing:0px;word-spacing:0px;fill:#008000;fill-opacity:1;stroke:none;stroke-width:0.62430835"
       aria-label="THE FAULT INJECTION PLATFORM"
       transform="matrix(0.28987731,0,0,0.28987731,1996.2319,82.923075)" />
    <flowRoot
       xml:space="preserve"
       id="flowRoot1951"
       style="font-style:normal;font-weight:normal;font-size:40px;line-height:1.25;font-family:sans-serif;letter-spacing:0px;word-spacing:0px;fill:#000000;fill-opacity:1;stroke:none"
       transform="translate(2457.5968,856.11776)"><flowRegion
         id="flowRegion1953"><rect
           id="rect1955"
           width="309.10135"
           height="312.69556"
           x="-3154.8105"
           y="-2107.5894" /></flowRegion><flowPara
         id="flowPara1957" /></flowRoot>    <g
       id="g2091">
      <rect
         ry="1.8875189"
         rx="2.2468994"
         y="239.84689"
         x="13.864316"
         height="53.526707"
         width="127.5267"
         id="rect1390-0-2"
         style="opacity:1;vector-effect:none;fill:#000000;fill-opacity:1;stroke:#c25d02;stroke-width:1.47329342;stroke-linecap:round;stroke-linejoin:round;stroke-miterlimit:4;stroke-dasharray:none;stroke-dashoffset:0;stroke-opacity:1" />
      <path
         inkscape:connector-curvature="0"
         id="path1865-0-4-6-1-1"
         d="m 23.98608,242.94127 -5.1864,8.9831 h -0.9065 l -2.2075,-2.1395 1.0527,2.9024 -1.0527,2.9025 2.2069,-2.1394 h 0.9075 l 5.186,8.98294 h 11.253799 5.0367 l -11.2538,19.49236 -3.215299,5.56912 -1.6079,2.7844 h 3.215499 3.2153 16.0769 l 8.0385,-13.92295 h 16.0766 l 9.6463,-16.70744 -9.6463,-16.70753 h -15.182 -4.1102 -16.2903 z m 1.0444,3.62 h 2.088399 l 1.0441,1.8084 -1.0441,1.8088 H 25.03048 l -1.0444,-1.8088 z m 11.507199,1.949 h 2.4113 2.4114 8.1272 10.8357 7.2838 l 6.4306,11.13853 -6.4306,11.13832 h -11.1272 -1.7341 -3.2154 l -8.0385,13.92297 h -9.646 l 11.2539,-19.49193 1.6076,-2.78485 h 12.8613 1.6079 1.6075 l 1.6074,-2.78451 -1.6074,-2.78463 h -1.6075 -0.8533 -10.8357 -8.1272 -2.4114 -2.4113 l -2.4113,-4.1769 z m -11.507199,6.6858 h 2.088399 l 1.0441,1.8088 -1.0441,1.80842 H 25.03048 l -1.0444,-1.80842 z"
         style="opacity:1;vector-effect:none;fill:#c25d02;fill-opacity:1;stroke:none;stroke-width:8.53044605;stroke-linecap:round;stroke-linejoin:miter;stroke-miterlimit:4;stroke-dasharray:none;stroke-dashoffset:0;stroke-opacity:1" />
      <g
         transform="matrix(1.6896281,0,0,1.6896281,3175.7515,1929.0226)"
         aria-label="INJECTION"
         style="font-style:normal;font-weight:normal;font-size:6.99552965px;line-height:1.25;font-family:sans-serif;letter-spacing:0px;word-spacing:0px;fill:#ffffff;fill-opacity:1;stroke:none;stroke-width:0.17488818"
         id="text1454-8-8-4-7-4-3-4">
        <path
           inkscape:connector-curvature="0"
           d="m -1830.0518,-985.41156 h -1.1823 v -5.14171 h 1.1823 z"
           style="font-style:normal;font-variant:normal;font-weight:bold;font-stretch:normal;font-family:'The Bold Font';-inkscape-font-specification:'The Bold Font Bold';fill:#ffffff;stroke-width:0.17488818"
           id="path1802" />
        <path
           inkscape:connector-curvature="0"
           d="m -1826.3895,-990.54628 h 1.1823 v 5.13472 h -1.2802 l -1.6789,-2.99409 v 2.99409 h -1.1823 v -5.12073 h 1.2872 l 1.6719,2.98709 z"
           style="font-style:normal;font-variant:normal;font-weight:bold;font-stretch:normal;font-family:'The Bold Font';-inkscape-font-specification:'The Bold Font Bold';fill:#ffffff;stroke-width:0.17488818"
           id="path1804" />
        <path
           inkscape:connector-curvature="0"
           d="m -1821.062,-990.63023 v 3.28091 q 0,0.40574 -0.1609,0.76251 -0.1539,0.34978 -0.4198,0.61561 -0.2588,0.25883 -0.6156,0.41273 -0.3498,0.14691 -0.7485,0.14691 h -0.021 q -0.3987,-0.007 -0.7485,-0.1539 -0.3498,-0.1539 -0.6296,-0.43372 -0.2728,-0.27983 -0.4197,-0.6296 -0.1399,-0.35677 -0.1329,-0.75552 l 1.1822,0.014 q 0,0.3148 0.2169,0.54565 0.2308,0.23086 0.5456,0.23086 0.1539,0 0.2938,-0.056 0.1399,-0.056 0.2449,-0.1609 0.1049,-0.10493 0.1679,-0.24484 0.063,-0.13991 0.063,-0.30081 v -3.27391 z"
           style="font-style:normal;font-variant:normal;font-weight:bold;font-stretch:normal;font-family:'The Bold Font';-inkscape-font-specification:'The Bold Font Bold';fill:#ffffff;stroke-width:0.17488818"
           id="path1806" />
        <path
           inkscape:connector-curvature="0"
           d="m -1817.1403,-989.36403 h -2.1126 v 0.7765 h 1.7139 v 1.18224 h -1.7139 v 0.81149 h 2.1126 v 1.18224 h -3.2949 v -5.12772 l 3.2949,-0.007 z"
           style="font-style:normal;font-variant:normal;font-weight:bold;font-stretch:normal;font-family:'The Bold Font';-inkscape-font-specification:'The Bold Font Bold';fill:#ffffff;stroke-width:0.17488818"
           id="path1808" />
        <path
           inkscape:connector-curvature="0"
           d="m -1814.315,-985.41856 q -0.4966,0 -0.9723,-0.18188 -0.4687,-0.18888 -0.8465,-0.56664 -0.3638,-0.37076 -0.5596,-0.83247 -0.1889,-0.4687 -0.1889,-0.98636 0,-0.52467 0.1889,-0.98637 0.1958,-0.46871 0.5596,-0.83247 0.3778,-0.37776 0.8535,-0.56664 0.4757,-0.18888 0.9653,-0.18888 0.4967,0 0.9654,0.18888 0.4757,0.18888 0.8535,0.56664 l -0.8325,0.83247 q -0.2029,-0.20288 -0.4617,-0.30081 -0.2588,-0.10494 -0.5247,-0.10494 -0.2658,0 -0.5246,0.10494 -0.2519,0.0979 -0.4547,0.30081 -0.1959,0.20287 -0.3008,0.4547 -0.105,0.25184 -0.105,0.53167 0,0.27982 0.105,0.53166 0.1049,0.24484 0.3008,0.44771 0.2028,0.20287 0.4547,0.3078 0.2588,0.0979 0.5246,0.0979 0.2659,0 0.5247,-0.0979 0.2588,-0.10493 0.4617,-0.3078 l 0.8325,0.83946 q -0.3778,0.37776 -0.8465,0.56664 -0.4687,0.18188 -0.9724,0.18188 z"
           style="font-style:normal;font-variant:normal;font-weight:bold;font-stretch:normal;font-family:'The Bold Font';-inkscape-font-specification:'The Bold Font Bold';fill:#ffffff;stroke-width:0.17488818"
           id="path1810" />
        <path
           inkscape:connector-curvature="0"
           d="m -1809.2016,-990.56727 v 1.18924 h -0.9863 v 3.96647 h -1.1823 v -3.96647 h -0.9793 v -1.18924 z"
           style="font-style:normal;font-variant:normal;font-weight:bold;font-stretch:normal;font-family:'The Bold Font';-inkscape-font-specification:'The Bold Font Bold';fill:#ffffff;stroke-width:0.17488818"
           id="path1812" />
        <path
           inkscape:connector-curvature="0"
           d="m -1807.5213,-985.41156 h -1.1823 v -5.14171 h 1.1823 z"
           style="font-style:normal;font-variant:normal;font-weight:bold;font-stretch:normal;font-family:'The Bold Font';-inkscape-font-specification:'The Bold Font Bold';fill:#ffffff;stroke-width:0.17488818"
           id="path1814" />
        <path
           inkscape:connector-curvature="0"
           d="m -1804.6005,-990.55327 q 0.5317,0 1.0004,0.20287 0.4687,0.20287 0.8185,0.55264 0.3497,0.34278 0.5526,0.81148 0.2029,0.4687 0.2029,1.00037 0,0.53166 -0.2029,1.00036 -0.2029,0.4687 -0.5526,0.81847 -0.3498,0.34278 -0.8185,0.54565 -0.4687,0.20287 -1.0004,0.20287 -0.5316,0 -1.0003,-0.20287 -0.4687,-0.20287 -0.8185,-0.54565 -0.3428,-0.34977 -0.5457,-0.81847 -0.2028,-0.4687 -0.2028,-1.00036 0,-0.53167 0.2028,-1.00037 0.2029,-0.4687 0.5457,-0.81148 0.3498,-0.34977 0.8185,-0.55264 0.4687,-0.20287 1.0003,-0.20287 z m 0,3.95247 q 0.2869,0 0.5387,-0.10493 0.2518,-0.11193 0.4407,-0.30081 0.1889,-0.18888 0.2938,-0.44072 0.112,-0.25184 0.112,-0.53865 0,-0.28682 -0.112,-0.53866 -0.1049,-0.25184 -0.2938,-0.44072 -0.1889,-0.18888 -0.4407,-0.29381 -0.2518,-0.11193 -0.5387,-0.11193 -0.2868,0 -0.5386,0.11193 -0.2519,0.10493 -0.4407,0.29381 -0.1889,0.18888 -0.3008,0.44072 -0.105,0.25184 -0.105,0.53866 0,0.28681 0.105,0.53865 0.1119,0.25184 0.3008,0.44072 0.1888,0.18888 0.4407,0.30081 0.2518,0.10493 0.5386,0.10493 z"
           style="font-style:normal;font-variant:normal;font-weight:bold;font-stretch:normal;font-family:'The Bold Font';-inkscape-font-specification:'The Bold Font Bold';fill:#ffffff;stroke-width:0.17488818"
           id="path1816" />
        <path
           inkscape:connector-curvature="0"
           d="m -1798.7216,-990.54628 h 1.1822 v 5.13472 h -1.2801 l -1.679,-2.99409 v 2.99409 h -1.1822 v -5.12073 h 1.2872 l 1.6719,2.98709 z"
           style="font-style:normal;font-variant:normal;font-weight:bold;font-stretch:normal;font-family:'The Bold Font';-inkscape-font-specification:'The Bold Font Bold';fill:#ffffff;stroke-width:0.17488818"
           id="path1818" />
      </g>
      <g
         transform="matrix(1.6896281,0,0,1.6896281,3175.7515,1929.0226)"
         aria-label="THE  FAULT"
         style="font-style:normal;font-weight:normal;font-size:6.99552965px;line-height:1.25;font-family:sans-serif;letter-spacing:0px;word-spacing:0px;fill:#ffffff;fill-opacity:1;stroke:none;stroke-width:0.17488818"
         id="text1454-8-8-4-7-4-3-4-0">
        <path
           inkscape:connector-curvature="0"
           d="m -1828.289,-996.91736 v 1.18924 h -0.9863 v 3.96646 h -1.1823 v -3.96646 h -0.9794 v -1.18924 z"
           style="font-style:normal;font-variant:normal;font-weight:bold;font-stretch:normal;font-family:'The Bold Font';-inkscape-font-specification:'The Bold Font Bold';fill:#ffffff;stroke-width:0.17488818"
           id="path1821" />
        <path
           inkscape:connector-curvature="0"
           d="m -1825.2446,-996.89638 h 1.1822 v 5.13472 h -1.1822 v -1.93776 h -1.4831 v 1.93776 h -1.1822 v -5.13472 h 1.1822 v 2.01472 h 1.4831 z"
           style="font-style:normal;font-variant:normal;font-weight:bold;font-stretch:normal;font-family:'The Bold Font';-inkscape-font-specification:'The Bold Font Bold';fill:#ffffff;stroke-width:0.17488818"
           id="path1823" />
        <path
           inkscape:connector-curvature="0"
           d="m -1820.2555,-995.71413 h -2.1126 v 0.7765 h 1.7139 v 1.18225 h -1.7139 v 0.81148 h 2.1126 v 1.18224 h -3.2949 v -5.12772 l 3.2949,-0.007 z"
           style="font-style:normal;font-variant:normal;font-weight:bold;font-stretch:normal;font-family:'The Bold Font';-inkscape-font-specification:'The Bold Font Bold';fill:#ffffff;stroke-width:0.17488818"
           id="path1825" />
        <path
           inkscape:connector-curvature="0"
           d="m -1814.1713,-995.71413 h -1.9168 v 0.7765 h 1.518 v 1.18225 h -1.518 v 1.99372 h -1.1823 v -5.13472 h 3.0991 z"
           style="font-style:normal;font-variant:normal;font-weight:bold;font-stretch:normal;font-family:'The Bold Font';-inkscape-font-specification:'The Bold Font Bold';fill:#ffffff;stroke-width:0.17488818"
           id="path1827" />
        <path
           inkscape:connector-curvature="0"
           d="m -1810.7388,-991.76166 -0.2029,-0.6226 h -1.616 l -0.2098,0.6226 h -1.2522 l 1.7489,-5.13472 h 1.1192 l 1.658,5.13472 z m -1.4131,-1.80484 h 0.8324 l -0.4057,-1.24521 z"
           style="font-style:normal;font-variant:normal;font-weight:bold;font-stretch:normal;font-family:'The Bold Font';-inkscape-font-specification:'The Bold Font Bold';fill:#ffffff;stroke-width:0.17488818"
           id="path1829" />
        <path
           inkscape:connector-curvature="0"
           d="m -1807.189,-991.76166 q -0.3918,0 -0.7416,-0.13991 -0.3497,-0.1469 -0.6226,-0.41273 -0.2798,-0.27983 -0.4337,-0.6296 -0.1469,-0.34978 -0.1539,-0.74852 v -3.21095 h 1.1823 v 3.20395 q 0,0.3078 0.2308,0.53866 0.2309,0.21686 0.5457,0.21686 0.1539,0 0.2938,-0.063 0.1399,-0.063 0.2448,-0.16789 0.105,-0.10494 0.1609,-0.24485 0.056,-0.13991 0.056,-0.30081 v -3.18296 h 1.1822 v 3.17597 q 0.01,0.39874 -0.1469,0.75552 -0.1469,0.35677 -0.4127,0.6226 -0.2588,0.26583 -0.6156,0.42673 -0.3498,0.1539 -0.7485,0.16089 z"
           style="font-style:normal;font-variant:normal;font-weight:bold;font-stretch:normal;font-family:'The Bold Font';-inkscape-font-specification:'The Bold Font Bold';fill:#ffffff;stroke-width:0.17488818"
           id="path1831" />
        <path
           inkscape:connector-curvature="0"
           d="m -1801.4793,-991.76166 h -3.057 v -5.14171 h 1.1822 v 3.95947 h 1.8748 z"
           style="font-style:normal;font-variant:normal;font-weight:bold;font-stretch:normal;font-family:'The Bold Font';-inkscape-font-specification:'The Bold Font Bold';fill:#ffffff;stroke-width:0.17488818"
           id="path1833" />
        <path
           inkscape:connector-curvature="0"
           d="m -1798.0524,-996.91736 v 1.18924 h -0.9864 v 3.96646 h -1.1822 v -3.96646 h -0.9794 v -1.18924 z"
           style="font-style:normal;font-variant:normal;font-weight:bold;font-stretch:normal;font-family:'The Bold Font';-inkscape-font-specification:'The Bold Font Bold';fill:#ffffff;stroke-width:0.17488818"
           id="path1835" />
      </g>
      <g
         transform="matrix(1.6896281,0,0,1.6896281,3175.7515,1929.0226)"
         aria-label="PLATFORM"
         style="font-style:normal;font-weight:normal;font-size:6.99552965px;line-height:1.25;font-family:sans-serif;letter-spacing:0px;word-spacing:0px;fill:#ffffff;fill-opacity:1;stroke:none;stroke-width:0.17488818"
         id="text1454-8-8-4-7-4-3-4-0-1">
        <path
           inkscape:connector-curvature="0"
           d="m -1827.9322,-982.03456 q 0,0.44072 -0.1679,0.83247 -0.1609,0.38475 -0.4547,0.67856 -0.2868,0.29381 -0.6716,0.4687 -0.3847,0.1679 -0.8254,0.17489 v 0.81848 h -1.1823 v -5.13472 h 1.1823 q 0.4407,0.007 0.8254,0.18188 0.3848,0.17489 0.6716,0.4687 0.2938,0.29382 0.4547,0.68556 0.1679,0.38476 0.1679,0.82548 z m -2.1196,0.97238 q 0.1958,-0.007 0.3637,-0.0839 0.1749,-0.084 0.3008,-0.20987 0.126,-0.13291 0.1959,-0.3078 0.077,-0.17489 0.077,-0.37076 0,-0.19588 -0.077,-0.37077 -0.07,-0.17488 -0.1959,-0.3008 -0.1259,-0.13292 -0.3008,-0.20987 -0.1679,-0.0839 -0.3637,-0.0909 z"
           style="font-style:normal;font-variant:normal;font-weight:bold;font-stretch:normal;font-family:'The Bold Font';-inkscape-font-specification:'The Bold Font Bold';fill:#ffffff;stroke-width:0.17488818"
           id="path1838" />
        <path
           inkscape:connector-curvature="0"
           d="m -1824.1737,-979.06146 h -3.0571 v -5.14172 h 1.1823 v 3.95947 h 1.8748 z"
           style="font-style:normal;font-variant:normal;font-weight:bold;font-stretch:normal;font-family:'The Bold Font';-inkscape-font-specification:'The Bold Font Bold';fill:#ffffff;stroke-width:0.17488818"
           id="path1840" />
        <path
           inkscape:connector-curvature="0"
           d="m -1820.7539,-979.06146 -0.2029,-0.6226 h -1.6159 l -0.2099,0.6226 h -1.2522 l 1.7489,-5.13472 h 1.1193 l 1.6579,5.13472 z m -1.4131,-1.80485 h 0.8325 l -0.4058,-1.2452 z"
           style="font-style:normal;font-variant:normal;font-weight:bold;font-stretch:normal;font-family:'The Bold Font';-inkscape-font-specification:'The Bold Font Bold';fill:#ffffff;stroke-width:0.17488818"
           id="path1842" />
        <path
           inkscape:connector-curvature="0"
           d="m -1816.2107,-984.21717 v 1.18924 h -0.9864 v 3.96647 h -1.1823 v -3.96647 h -0.9793 v -1.18924 z"
           style="font-style:normal;font-variant:normal;font-weight:bold;font-stretch:normal;font-family:'The Bold Font';-inkscape-font-specification:'The Bold Font Bold';fill:#ffffff;stroke-width:0.17488818"
           id="path1844" />
        <path
           inkscape:connector-curvature="0"
           d="m -1812.6137,-983.01394 h -1.9168 v 0.77651 h 1.518 v 1.18224 h -1.518 v 1.99373 h -1.1823 v -5.13472 h 3.0991 z"
           style="font-style:normal;font-variant:normal;font-weight:bold;font-stretch:normal;font-family:'The Bold Font';-inkscape-font-specification:'The Bold Font Bold';fill:#ffffff;stroke-width:0.17488818"
           id="path1846" />
        <path
           inkscape:connector-curvature="0"
           d="m -1809.9018,-984.20318 q 0.5317,0 1.0004,0.20287 0.4687,0.20287 0.8185,0.55265 0.3497,0.34278 0.5526,0.81148 0.2029,0.4687 0.2029,1.00036 0,0.53166 -0.2029,1.00036 -0.2029,0.4687 -0.5526,0.81848 -0.3498,0.34278 -0.8185,0.54565 -0.4687,0.20287 -1.0004,0.20287 -0.5316,0 -1.0003,-0.20287 -0.4687,-0.20287 -0.8185,-0.54565 -0.3428,-0.34978 -0.5457,-0.81848 -0.2028,-0.4687 -0.2028,-1.00036 0,-0.53166 0.2028,-1.00036 0.2029,-0.4687 0.5457,-0.81148 0.3498,-0.34978 0.8185,-0.55265 0.4687,-0.20287 1.0003,-0.20287 z m 0,3.95248 q 0.2869,0 0.5387,-0.10494 0.2518,-0.11192 0.4407,-0.3008 0.1889,-0.18888 0.2938,-0.44072 0.112,-0.25184 0.112,-0.53866 0,-0.28681 -0.112,-0.53865 -0.1049,-0.25184 -0.2938,-0.44072 -0.1889,-0.18888 -0.4407,-0.29381 -0.2518,-0.11193 -0.5387,-0.11193 -0.2868,0 -0.5386,0.11193 -0.2519,0.10493 -0.4407,0.29381 -0.1889,0.18888 -0.3008,0.44072 -0.105,0.25184 -0.105,0.53865 0,0.28682 0.105,0.53866 0.1119,0.25184 0.3008,0.44072 0.1888,0.18888 0.4407,0.3008 0.2518,0.10494 0.5386,0.10494 z"
           style="font-style:normal;font-variant:normal;font-weight:bold;font-stretch:normal;font-family:'The Bold Font';-inkscape-font-specification:'The Bold Font Bold';fill:#ffffff;stroke-width:0.17488818"
           id="path1848" />
        <path
           inkscape:connector-curvature="0"
           d="m -1805.429,-980.39061 q -0.091,0.014 -0.1819,0.021 -0.091,0.007 -0.1889,0.014 v 1.29418 h -1.1822 v -5.12073 h 1.1822 q 0.4408,0.007 0.8255,0.1609 0.3848,0.1539 0.6716,0.41273 0.2938,0.25884 0.4547,0.60162 0.1679,0.34278 0.1679,0.73453 0,0.41274 -0.1749,0.76951 -0.1749,0.34977 -0.4897,0.60861 l 1.1333,1.83283 h -1.3921 z m -0.3708,-1.15427 q 0.1889,-0.007 0.3568,-0.063 0.1749,-0.063 0.3008,-0.16089 0.1329,-0.0979 0.2029,-0.22386 0.077,-0.13291 0.077,-0.27982 0,-0.14691 -0.077,-0.27283 -0.07,-0.12592 -0.2029,-0.22385 -0.1259,-0.0979 -0.3008,-0.1539 -0.1679,-0.063 -0.3568,-0.07 z"
           style="font-style:normal;font-variant:normal;font-weight:bold;font-stretch:normal;font-family:'The Bold Font';-inkscape-font-specification:'The Bold Font Bold';fill:#ffffff;stroke-width:0.17488818"
           id="path1850" />
        <path
           inkscape:connector-curvature="0"
           d="m -1799.264,-984.20318 h 1.2173 l 0.3008,5.14172 h -1.1823 l -0.1259,-2.09866 -0.7135,2.09866 h -1.1823 l -0.7555,-2.18261 -0.1399,2.18261 h -1.1893 l 0.3288,-5.14172 h 1.2173 l 1.1262,3.21795 z"
           style="font-style:normal;font-variant:normal;font-weight:bold;font-stretch:normal;font-family:'The Bold Font';-inkscape-font-specification:'The Bold Font Bold';fill:#ffffff;stroke-width:0.17488818"
           id="path1852" />
      </g>
      <g
         transform="matrix(0.9452513,0,0,0.9452513,1823.8037,1201.6465)"
         id="g1800">
        <path
           inkscape:connector-curvature="0"
           id="path1763"
           style="font-style:italic;font-variant:normal;font-weight:bold;font-stretch:normal;font-size:medium;line-height:1.25;font-family:'The Bold Font';-inkscape-font-specification:'The Bold Font Bold Italic';letter-spacing:0px;word-spacing:0px;fill:#ffffff;fill-opacity:1;stroke:none;stroke-width:0.43761849"
           d="m -1869.6327,-964.15295 2.2231,-3.64099 -2.5382,-9.31252 h 3.2734 l 1.5229,5.58401 3.3785,-5.58401 h 3.2033 l -7.8596,12.95351 z" />
        <path
           inkscape:connector-curvature="0"
           id="path1765"
           style="font-style:italic;font-variant:normal;font-weight:bold;font-stretch:normal;font-size:medium;line-height:1.25;font-family:'The Bold Font';-inkscape-font-specification:'The Bold Font Bold Italic';letter-spacing:0px;word-spacing:0px;fill:#ffffff;fill-opacity:1;stroke:none;stroke-width:0.43761849"
           d="m -1856.7176,-963.90789 q -0.6127,0 -1.1904,-0.17505 -0.5601,-0.15754 -1.0327,-0.50763 -0.8228,-0.61267 -1.1553,-1.57543 -0.3326,-0.98027 -0.1051,-2.13558 h 2.9583 q -0.105,0.52514 0.07,0.82272 0.1751,0.28008 0.3326,0.38511 0.2626,0.21006 0.6302,0.22756 0.3676,0.0175 0.7527,-0.14004 0.2626,-0.10503 0.4376,-0.26257 0.1751,-0.15754 0.2801,-0.29758 0.1225,-0.15754 0.1575,-0.29758 0.053,-0.14004 0.07,-0.22756 0.018,-0.0875 0.018,-0.22756 0.017,-0.14004 -0.035,-0.29758 -0.035,-0.15755 -0.1576,-0.29758 -0.1225,-0.15755 -0.3326,-0.28008 -0.175,-0.0875 -0.3851,-0.15754 -0.21,-0.07 -0.4376,-0.15755 -0.4026,-0.14003 -0.8402,-0.31508 -0.4376,-0.17505 -0.8578,-0.47263 -0.5251,-0.3851 -0.8402,-0.96276 -0.2976,-0.57766 -0.3501,-1.24284 -0.053,-0.66518 0.1401,-1.36537 0.21,-0.71769 0.6826,-1.36537 0.4202,-0.59516 0.9803,-1.03278 0.5602,-0.43762 1.1903,-0.68268 0.6302,-0.26257 1.2954,-0.31509 0.6827,-0.0525 1.3303,0.12254 0.6477,0.15754 1.1204,0.50763 0.4726,0.33259 0.7702,0.82273 0.2975,0.47262 0.3851,1.06779 0.087,0.59516 -0.035,1.24283 h -2.9583 q 0.07,-0.40261 -0.1576,-0.56015 -0.21,-0.15754 -0.3851,-0.21006 -0.035,0 -0.175,-0.0175 -0.1226,-0.035 -0.2976,0 -0.1576,0.0175 -0.3676,0.12253 -0.1926,0.0875 -0.3326,0.29758 -0.1926,0.28008 -0.1751,0.59516 0.035,0.29759 0.2626,0.47263 0.2101,0.14004 0.4901,0.26257 0.2801,0.10503 0.5777,0.21006 0.2801,0.0875 0.5602,0.19255 0.2975,0.10503 0.5776,0.24507 1.0503,0.52514 1.5054,1.54042 0.4551,1.01527 0.2101,2.25811 -0.2451,1.22533 -1.1028,2.24061 -0.8578,1.01527 -2.1181,1.54041 -0.5076,0.21006 -0.9978,0.29758 -0.4901,0.10503 -0.9627,0.10503 z" />
        <path
           inkscape:connector-curvature="0"
           id="path1767"
           style="font-style:italic;font-variant:normal;font-weight:bold;font-stretch:normal;font-size:medium;line-height:1.25;font-family:'The Bold Font';-inkscape-font-specification:'The Bold Font Bold Italic';letter-spacing:0px;word-spacing:0px;fill:#ffffff;fill-opacity:1;stroke:none;stroke-width:0.43761849"
           d="m -1841.1365,-977.05395 -0.5952,2.97581 h -2.4681 l -1.9781,9.92519 h -2.9583 l 1.9781,-9.92519 h -2.4507 l 0.5952,-2.97581 z" />
        <path
           inkscape:connector-curvature="0"
           id="path1769"
           style="font-style:italic;font-variant:normal;font-weight:bold;font-stretch:normal;font-size:medium;line-height:1.25;font-family:'The Bold Font';-inkscape-font-specification:'The Bold Font Bold Italic';letter-spacing:0px;word-spacing:0px;fill:#ffffff;fill-opacity:1;stroke:none;stroke-width:0.43761849"
           d="m -1834.3414,-977.01894 q 1.3304,0 2.3982,0.50764 1.0678,0.50763 1.768,1.38287 0.7177,0.85773 0.9802,2.03055 0.2801,1.17282 0.018,2.50318 -0.28,1.33036 -1.0152,2.50318 -0.7352,1.17282 -1.7855,2.04805 -1.0503,0.85774 -2.3282,1.36537 -1.2778,0.50764 -2.6082,0.50764 -1.3303,0 -2.3981,-0.50764 -1.0678,-0.50763 -1.768,-1.36537 -0.6827,-0.87523 -0.9628,-2.04805 -0.28,-1.17282 0,-2.50318 0.2626,-1.33036 0.9978,-2.50318 0.7527,-1.17282 1.7855,-2.03055 1.0328,-0.87524 2.3106,-1.38287 1.2779,-0.50764 2.6082,-0.50764 z m -1.978,9.89018 q 0.7177,0 1.4004,-0.26257 0.6827,-0.28008 1.2428,-0.75271 0.5777,-0.47262 0.9628,-1.10279 0.4026,-0.63018 0.5601,-1.34787 0.1401,-0.71769 -0.017,-1.34786 -0.14,-0.63018 -0.5251,-1.1028 -0.3676,-0.47263 -0.9453,-0.7352 -0.5776,-0.28008 -1.2953,-0.28008 -0.7177,0 -1.4004,0.28008 -0.6827,0.26257 -1.2604,0.7352 -0.5601,0.47262 -0.9627,1.1028 -0.3851,0.63017 -0.5252,1.34786 -0.1575,0.71769 -0.018,1.34787 0.1576,0.63017 0.5252,1.10279 0.3851,0.47263 0.9627,0.75271 0.5777,0.26257 1.2954,0.26257 z" />
        <path
           inkscape:connector-curvature="0"
           id="path1771"
           style="font-style:italic;font-variant:normal;font-weight:bold;font-stretch:normal;font-size:medium;line-height:1.25;font-family:'The Bold Font';-inkscape-font-specification:'The Bold Font Bold Italic';letter-spacing:0px;word-spacing:0px;fill:#ffffff;fill-opacity:1;stroke:none;stroke-width:0.43761849"
           d="m -1821.959,-964.15295 h -7.6495 l 2.5732,-12.86599 h 2.9583 l -1.9781,9.90768 h 4.6913 z" />
        <path
           inkscape:connector-curvature="0"
           id="path1773"
           style="font-style:italic;font-variant:normal;font-weight:bold;font-stretch:normal;font-size:medium;line-height:1.25;font-family:'The Bold Font';-inkscape-font-specification:'The Bold Font Bold Italic';letter-spacing:0px;word-spacing:0px;fill:#ffffff;fill-opacity:1;stroke:none;stroke-width:0.43761849"
           d="m -1817.8128,-965.67587 q -0.1225,0.63017 -0.6652,1.0853 -0.5251,0.43762 -1.1553,0.43762 -0.6302,0 -0.9978,-0.43762 -0.35,-0.45513 -0.2275,-1.0853 0.14,-0.63017 0.6652,-1.06779 0.5426,-0.45512 1.1728,-0.45512 0.6302,0 0.9802,0.45512 0.3676,0.43762 0.2276,1.06779 z" />
        <path
           inkscape:connector-curvature="0"
           id="path1775"
           style="font-style:italic;font-variant:normal;font-weight:bold;font-stretch:normal;font-size:medium;line-height:1.25;font-family:'The Bold Font';-inkscape-font-specification:'The Bold Font Bold Italic';letter-spacing:0px;word-spacing:0px;fill:#ffffff;fill-opacity:1;stroke:none;stroke-width:0.43761849"
           d="m -1809.6897,-977.01894 q 1.3304,0 2.3982,0.50764 1.0678,0.50763 1.7679,1.38287 0.7177,0.85773 0.9803,2.03055 0.2801,1.17282 0.018,2.50318 -0.2801,1.33036 -1.0153,2.50318 -0.7352,1.17282 -1.7854,2.04805 -1.0503,0.85774 -2.3282,1.36537 -1.2778,0.50764 -2.6082,0.50764 -1.3303,0 -2.3981,-0.50764 -1.0678,-0.50763 -1.768,-1.36537 -0.6827,-0.87523 -0.9628,-2.04805 -0.28,-1.17282 0,-2.50318 0.2626,-1.33036 0.9978,-2.50318 0.7527,-1.17282 1.7855,-2.03055 1.0328,-0.87524 2.3106,-1.38287 1.2779,-0.50764 2.6082,-0.50764 z m -1.978,9.89018 q 0.7177,0 1.4004,-0.26257 0.6826,-0.28008 1.2428,-0.75271 0.5777,-0.47262 0.9628,-1.10279 0.4026,-0.63018 0.5601,-1.34787 0.1401,-0.71769 -0.017,-1.34786 -0.14,-0.63018 -0.5251,-1.1028 -0.3676,-0.47263 -0.9453,-0.7352 -0.5776,-0.28008 -1.2953,-0.28008 -0.7177,0 -1.4004,0.28008 -0.6827,0.26257 -1.2604,0.7352 -0.5601,0.47262 -0.9627,1.1028 -0.3851,0.63017 -0.5252,1.34786 -0.1575,0.71769 -0.018,1.34787 0.1576,0.63017 0.5252,1.10279 0.3851,0.47263 0.9627,0.75271 0.5777,0.26257 1.2954,0.26257 z" />
        <path
           inkscape:connector-curvature="0"
           id="path1777"
           style="font-style:italic;font-variant:normal;font-weight:bold;font-stretch:normal;font-size:medium;line-height:1.25;font-family:'The Bold Font';-inkscape-font-specification:'The Bold Font Bold Italic';letter-spacing:0px;word-spacing:0px;fill:#ffffff;fill-opacity:1;stroke:none;stroke-width:0.43761849"
           d="m -1800.4056,-967.47886 q -0.2276,0.035 -0.4726,0.0525 -0.2276,0.0175 -0.4727,0.035 l -0.6476,3.23838 h -2.9583 l 2.5557,-12.81348 h 2.9583 q 1.1028,0.0175 1.978,0.40261 0.8927,0.38511 1.4879,1.03278 0.6127,0.64768 0.8402,1.50541 0.2451,0.85773 0.053,1.838 -0.21,1.03278 -0.8227,1.92552 -0.6126,0.87524 -1.5404,1.52291 l 1.9255,4.58625 h -3.4834 z m -0.3501,-2.88828 q 0.4726,-0.0175 0.9278,-0.15754 0.4726,-0.15754 0.8402,-0.40261 0.3676,-0.24507 0.6126,-0.56015 0.2626,-0.33259 0.3326,-0.70019 0.07,-0.3676 -0.053,-0.68269 -0.1225,-0.31508 -0.4026,-0.56015 -0.2626,-0.24506 -0.6652,-0.3851 -0.4026,-0.15755 -0.8752,-0.17505 z" />
        <path
           inkscape:connector-curvature="0"
           id="path1779"
           style="font-style:italic;font-variant:normal;font-weight:bold;font-stretch:normal;font-size:medium;line-height:1.25;font-family:'The Bold Font';-inkscape-font-specification:'The Bold Font Bold Italic';letter-spacing:0px;word-spacing:0px;fill:#ffffff;fill-opacity:1;stroke:none;stroke-width:0.43761849"
           d="m -1782.865,-971.3474 -1.4354,7.19445 h -2.9758 l 0.07,-0.31509 q -0.5251,0.17505 -1.0677,0.26257 -0.5252,0.07 -1.0328,0.07 -1.2429,0 -2.3457,-0.47263 -1.0853,-0.47263 -1.8555,-1.41788 -0.7527,-0.94526 -0.9802,-2.11808 -0.2276,-1.19032 0.017,-2.43315 0.2625,-1.24284 0.9627,-2.43316 0.7002,-1.19033 1.838,-2.13558 1.1203,-0.94526 2.3982,-1.41789 1.2953,-0.47263 2.5382,-0.47263 1.2428,0 2.3281,0.47263 1.1028,0.47263 1.873,1.41789 l -2.5207,2.10057 q -0.4201,-0.50764 -1.0152,-0.75271 -0.5952,-0.26257 -1.2604,-0.26257 -0.6652,0 -1.3654,0.26257 -0.7001,0.24507 -1.2953,0.75271 -0.6127,0.50763 -1.0153,1.15531 -0.3851,0.64767 -0.5251,1.31286 -0.1226,0.66518 0,1.31285 0.14,0.64768 0.5426,1.15531 0.3676,0.45513 0.8753,0.7177 0.5251,0.24506 1.1203,0.29758 0.5951,0.035 1.2253,-0.12253 0.6302,-0.15755 1.2078,-0.52515 l 0.1226,-0.64767 h -2.5732 l 0.5951,-2.9583 z" />
      </g>
    </g>
  </g>
</svg>
