<?xml version="1.0" encoding="UTF-8" standalone="no"?>
<!-- Created with Inkscape (http://www.inkscape.org/) -->

<svg
   xmlns:dc="http://purl.org/dc/elements/1.1/"
   xmlns:cc="http://creativecommons.org/ns#"
   xmlns:rdf="http://www.w3.org/1999/02/22-rdf-syntax-ns#"
   xmlns:svg="http://www.w3.org/2000/svg"
   xmlns="http://www.w3.org/2000/svg"
   xmlns:sodipodi="http://sodipodi.sourceforge.net/DTD/sodipodi-0.dtd"
   xmlns:inkscape="http://www.inkscape.org/namespaces/inkscape"
   width="100mm"
   height="100mm"
   viewBox="0 0 100 100"
   version="1.1"
   id="svg8"
   inkscape:version="0.92.3 (2405546, 2018-03-11)"
   sodipodi:docname="printed.svg"
   inkscape:export-filename="C:\Users\strix\Dropbox\logo-for-pystol\pystol.png"
   inkscape:export-xdpi="100.095"
   inkscape:export-ydpi="100.095">
  <defs
     id="defs2">
    <clipPath
       clipPathUnits="userSpaceOnUse"
       id="clipPath1086">
      <path
         d="m 785.047,369.133 h 105.824 v -7.764 H 785.047 Z"
         id="path1084"
         inkscape:connector-curvature="0" />
    </clipPath>
    <clipPath
       clipPathUnits="userSpaceOnUse"
       id="clipPath1090">
      <path
         d="m 785.047,369.133 h 105.824 v -7.764 H 785.047 Z"
         id="path1088"
         inkscape:connector-curvature="0" />
    </clipPath>
    <clipPath
       clipPathUnits="userSpaceOnUse"
       id="clipPath1054">
      <path
         d="M 784.271,387.718 H 891.649 V 367.684 H 784.271 Z"
         id="path1052"
         inkscape:connector-curvature="0" />
    </clipPath>
    <clipPath
       clipPathUnits="userSpaceOnUse"
       id="clipPath1058">
      <path
         d="M 784.271,387.718 H 891.649 V 367.684 H 784.271 Z"
         id="path1056"
         inkscape:connector-curvature="0" />
    </clipPath>
    <clipPath
       clipPathUnits="userSpaceOnUse"
       id="clipPath1054-6">
      <path
         d="M 784.271,387.718 H 891.649 V 367.684 H 784.271 Z"
         id="path1052-0"
         inkscape:connector-curvature="0" />
    </clipPath>
    <clipPath
       clipPathUnits="userSpaceOnUse"
       id="clipPath1058-6">
      <path
         d="M 784.271,387.718 H 891.649 V 367.684 H 784.271 Z"
         id="path1056-2"
         inkscape:connector-curvature="0" />
    </clipPath>
    <circle
       style="opacity:1;vector-effect:none;fill:#c25d02;fill-opacity:1;stroke:#c25d02;stroke-width:0;stroke-linecap:round;stroke-linejoin:miter;stroke-miterlimit:4;stroke-dasharray:none;stroke-dashoffset:0;stroke-opacity:1"
       id="path1712-8"
       cx="545.091"
       cy="1202.2144"
       r="24.123543"
       transform="matrix(0.36551469,-0.93080557,-0.93080557,-0.36551469,0,0)" />
    <circle
       style="opacity:1;vector-effect:none;fill:#c25d02;fill-opacity:1;stroke:#c25d02;stroke-width:0;stroke-linecap:round;stroke-linejoin:miter;stroke-miterlimit:4;stroke-dasharray:none;stroke-dashoffset:0;stroke-opacity:1"
       id="path1712-9"
       cx="545.091"
       cy="1202.2144"
       r="24.123543"
       transform="matrix(0.36551469,-0.93080557,-0.93080557,-0.36551469,0,0)" />
    <clipPath
       clipPathUnits="userSpaceOnUse"
       id="clipPath1054-6-9">
      <path
         d="M 784.271,387.718 H 891.649 V 367.684 H 784.271 Z"
         id="path1052-0-8"
         inkscape:connector-curvature="0" />
    </clipPath>
    <clipPath
       clipPathUnits="userSpaceOnUse"
       id="clipPath1058-6-1">
      <path
         d="M 784.271,387.718 H 891.649 V 367.684 H 784.271 Z"
         id="path1056-2-7"
         inkscape:connector-curvature="0" />
    </clipPath>
    <clipPath
       clipPathUnits="userSpaceOnUse"
       id="clipPath1054-6-4">
      <path
         d="M 784.271,387.718 H 891.649 V 367.684 H 784.271 Z"
         id="path1052-0-2"
         inkscape:connector-curvature="0" />
    </clipPath>
    <clipPath
       clipPathUnits="userSpaceOnUse"
       id="clipPath1058-6-15">
      <path
         d="M 784.271,387.718 H 891.649 V 367.684 H 784.271 Z"
         id="path1056-2-2"
         inkscape:connector-curvature="0" />
    </clipPath>
    <clipPath
       clipPathUnits="userSpaceOnUse"
       id="clipPath1054-6-4-3">
      <path
         d="M 784.271,387.718 H 891.649 V 367.684 H 784.271 Z"
         id="path1052-0-2-6"
         inkscape:connector-curvature="0" />
    </clipPath>
    <clipPath
       clipPathUnits="userSpaceOnUse"
       id="clipPath1058-6-15-0">
      <path
         d="M 784.271,387.718 H 891.649 V 367.684 H 784.271 Z"
         id="path1056-2-2-2"
         inkscape:connector-curvature="0" />
    </clipPath>
    <circle
       style="opacity:1;vector-effect:none;fill:#c25d02;fill-opacity:1;stroke:#c25d02;stroke-width:0;stroke-linecap:round;stroke-linejoin:miter;stroke-miterlimit:4;stroke-dasharray:none;stroke-dashoffset:0;stroke-opacity:1"
       id="path1712-2-8"
       cx="-54.698578"
       cy="-1303.1921"
       transform="rotate(-40.99342)"
       r="20.885929" />
    <circle
       style="opacity:1;vector-effect:none;fill:#c25d02;fill-opacity:1;stroke:#c25d02;stroke-width:0;stroke-linecap:round;stroke-linejoin:miter;stroke-miterlimit:4;stroke-dasharray:none;stroke-dashoffset:0;stroke-opacity:1"
       id="path1712-3"
       cx="49.713654"
       cy="1303.3918"
       r="20.885929"
       transform="rotate(138.78743)" />
    <clipPath
       clipPathUnits="userSpaceOnUse"
       id="clipPath1054-6-4-2">
      <path
         d="M 784.271,387.718 H 891.649 V 367.684 H 784.271 Z"
         id="path1052-0-2-2"
         inkscape:connector-curvature="0" />
    </clipPath>
    <clipPath
       clipPathUnits="userSpaceOnUse"
       id="clipPath1058-6-15-9">
      <path
         d="M 784.271,387.718 H 891.649 V 367.684 H 784.271 Z"
         id="path1056-2-2-8"
         inkscape:connector-curvature="0" />
    </clipPath>
    <circle
       style="opacity:1;vector-effect:none;fill:#c25d02;fill-opacity:1;stroke:#c25d02;stroke-width:0;stroke-linecap:round;stroke-linejoin:miter;stroke-miterlimit:4;stroke-dasharray:none;stroke-dashoffset:0;stroke-opacity:1"
       id="path1712-2-1"
       cx="-54.698578"
       cy="-1303.1921"
       transform="rotate(-40.99342)"
       r="20.885929" />
    <circle
       style="opacity:1;vector-effect:none;fill:#c25d02;fill-opacity:1;stroke:#c25d02;stroke-width:0;stroke-linecap:round;stroke-linejoin:miter;stroke-miterlimit:4;stroke-dasharray:none;stroke-dashoffset:0;stroke-opacity:1"
       id="path1712-5"
       cx="49.713654"
       cy="1303.3918"
       r="20.885929"
       transform="rotate(138.78743)" />
    <clipPath
       clipPathUnits="userSpaceOnUse"
       id="clipPath1054-6-0">
      <path
         d="M 784.271,387.718 H 891.649 V 367.684 H 784.271 Z"
         id="path1052-0-5"
         inkscape:connector-curvature="0" />
    </clipPath>
    <clipPath
       clipPathUnits="userSpaceOnUse"
       id="clipPath1058-6-8">
      <path
         d="M 784.271,387.718 H 891.649 V 367.684 H 784.271 Z"
         id="path1056-2-5"
         inkscape:connector-curvature="0" />
    </clipPath>
  </defs>
  <sodipodi:namedview
     id="base"
     pagecolor="#ffffff"
     bordercolor="#666666"
     borderopacity="1.0"
     inkscape:pageopacity="0.0"
     inkscape:pageshadow="2"
     inkscape:zoom="2"
     inkscape:cx="226.27593"
     inkscape:cy="168.52846"
     inkscape:document-units="mm"
     inkscape:current-layer="layer1"
     showgrid="false"
     inkscape:snap-bbox="true"
     inkscape:bbox-paths="true"
     inkscape:bbox-nodes="true"
     inkscape:snap-bbox-edge-midpoints="true"
     inkscape:snap-bbox-midpoints="true"
     inkscape:snap-intersection-paths="true"
     inkscape:window-width="3840"
     inkscape:window-height="1537"
     inkscape:window-x="-8"
     inkscape:window-y="-8"
     inkscape:window-maximized="1"
     inkscape:snap-global="false"
     inkscape:snap-nodes="true"
     inkscape:snap-smooth-nodes="true"
     inkscape:snap-midpoints="true" />
  <metadata
     id="metadata5">
    <rdf:RDF>
      <cc:Work
         rdf:about="">
        <dc:format>image/svg+xml</dc:format>
        <dc:type
           rdf:resource="http://purl.org/dc/dcmitype/StillImage" />
        <dc:title></dc:title>
      </cc:Work>
    </rdf:RDF>
  </metadata>
  <g
     inkscape:label="Capa 1"
     inkscape:groupmode="layer"
     id="layer1"
     transform="translate(0,-197)">
    <flowRoot
       xml:space="preserve"
       id="flowRoot1527"
       style="font-style:normal;font-weight:normal;font-size:40px;line-height:1.25;font-family:sans-serif;letter-spacing:0px;word-spacing:0px;fill:#000000;fill-opacity:1;stroke:none"
       transform="scale(0.26458333)"><flowRegion
         id="flowRegion1529"><rect
           id="rect1531"
           width="2169.4036"
           height="1187.9395"
           x="1066.317"
           y="2375.5129" /></flowRegion><flowPara
         id="flowPara1533" /></flowRoot>    <g
       id="text1454-8-8-4-45-7-3"
       style="font-style:normal;font-weight:normal;font-size:24.97233963px;line-height:1.25;font-family:sans-serif;letter-spacing:0px;word-spacing:0px;fill:#008000;fill-opacity:1;stroke:none;stroke-width:0.62430835"
       aria-label="THE FAULT INJECTION PLATFORM"
       transform="matrix(0.28987731,0,0,0.28987731,-461.36484,-773.19468)" />
    <flowRoot
       xml:space="preserve"
       id="flowRoot1951"
       style="font-style:normal;font-weight:normal;font-size:40px;line-height:1.25;font-family:sans-serif;letter-spacing:0px;word-spacing:0px;fill:#000000;fill-opacity:1;stroke:none"><flowRegion
         id="flowRegion1953"><rect
           id="rect1955"
           width="309.10135"
           height="312.69556"
           x="-3154.8105"
           y="-2107.5894" /></flowRegion><flowPara
         id="flowPara1957" /></flowRoot>    <g
       id="g1835">
      <path
         id="path1392"
         d="M 41.856032,269.50548 A 25,25 0 0 1 23.505459,239.28534 25,25 0 0 1 53.725593,220.93477 25,25 0 0 1 72.076166,251.15491 25,25 0 0 1 41.856032,269.50548 Z"
         style="opacity:1;vector-effect:none;fill:#c25d02;fill-opacity:1;stroke:none;stroke-width:0;stroke-linecap:round;stroke-linejoin:miter;stroke-miterlimit:4;stroke-dasharray:none;stroke-dashoffset:0;stroke-opacity:1"
         inkscape:connector-curvature="0" />
      <path
         id="path1392-4"
         d="m 24.443332,242.54784 a 23.5,23.5 0 0 0 20.675329,26.01985 23.5,23.5 0 0 0 26.019847,-20.67528 23.5,23.5 0 0 0 -20.67529,-26.01985 23.5,23.5 0 0 0 -26.019886,20.67528 z"
         style="opacity:1;vector-effect:none;fill:#c25d02;fill-opacity:1;stroke:none;stroke-width:0;stroke-linecap:round;stroke-linejoin:miter;stroke-miterlimit:4;stroke-dasharray:none;stroke-dashoffset:0;stroke-opacity:1"
         inkscape:connector-curvature="0" />
      <path
         id="path1392-4-8"
         d="m 35.828485,229.19197 a 20,20 0 0 1 27.990548,4.06562 20,20 0 0 1 -4.065619,27.99055 20,20 0 0 1 -27.990548,-4.06562 20,20 0 0 1 4.065619,-27.99055 z"
         style="opacity:1;vector-effect:none;fill:#c25d02;fill-opacity:1;stroke:none;stroke-width:0;stroke-linecap:round;stroke-linejoin:miter;stroke-miterlimit:4;stroke-dasharray:none;stroke-dashoffset:0;stroke-opacity:1"
         inkscape:connector-curvature="0" />
      <path
         id="path1392-4-8-5"
         d="M 65.459817,250.7028 A 18.5,18.5 0 0 1 42.308243,262.88905 18.5,18.5 0 0 1 30.121995,239.73747 18.5,18.5 0 0 1 53.273569,227.55123 18.5,18.5 0 0 1 65.459817,250.7028 Z"
         style="opacity:1;vector-effect:none;fill:#ffffff;fill-opacity:1;stroke:#c25d02;stroke-width:0;stroke-linecap:round;stroke-linejoin:miter;stroke-miterlimit:4;stroke-dasharray:none;stroke-dashoffset:0;stroke-opacity:1"
         inkscape:connector-curvature="0" />
      <path
         inkscape:connector-curvature="0"
         d="m 36.79181,226.1043 q 0.16289,0.2519 0.21169,0.538 0.0502,0.2794 -0.009,0.556 -0.0554,0.274 -0.21071,0.5162 -0.15792,0.2382 -0.40731,0.405 l 0.30252,0.468 -0.67592,0.437 -1.89782,-2.9357 0.67592,-0.437 q 0.25455,-0.1588 0.53916,-0.2011 0.28462,-0.042 0.55719,0.02 0.27658,0.059 0.51336,0.2239 0.23819,0.1579 0.40109,0.4099 z m -0.85246,1.3393 q 0.1094,-0.076 0.17695,-0.1824 0.069,-0.1127 0.0944,-0.2312 0.0229,-0.1225 -0.002,-0.2484 -0.0207,-0.1284 -0.093,-0.2404 -0.0724,-0.112 -0.18103,-0.1835 -0.10464,-0.074 -0.22317,-0.1 -0.12112,-0.029 -0.24955,-0.01 -0.12701,0.014 -0.24158,0.082 z"
         style="font-style:normal;font-variant:normal;font-weight:normal;font-stretch:normal;font-size:4.76249981px;line-height:1.25;font-family:'The Bold Font';-inkscape-font-specification:'The Bold Font';letter-spacing:-0.75141668px;word-spacing:0px;fill:#ffffff;fill-opacity:1;stroke:none;stroke-width:0.26458332"
         id="path1667" />
      <path
         inkscape:connector-curvature="0"
         d="m 38.23436,227.626 -0.0714,-1.0677 -2.1867,-1.7512 0.8001,-0.3912 1.31331,1.0491 -0.11531,-1.6347 0.78299,-0.3828 0.25998,3.7957 z"
         style="font-style:normal;font-variant:normal;font-weight:normal;font-stretch:normal;font-size:4.76249981px;line-height:1.25;font-family:'The Bold Font';-inkscape-font-specification:'The Bold Font';letter-spacing:-0.75141668px;word-spacing:0px;fill:#ffffff;fill-opacity:1;stroke:none;stroke-width:0.26458332"
         id="path1669" />
      <path
         inkscape:connector-curvature="0"
         d="m 41.16725,226.4138 q -0.15721,0.055 -0.33025,0.066 -0.16697,0.013 -0.33787,-0.027 -0.29795,-0.072 -0.51976,-0.2713 -0.22339,-0.2041 -0.32786,-0.5006 l 0.75911,-0.2675 q 0.0475,0.1348 0.13278,0.1906 0.0837,0.051 0.13814,0.062 0.0998,0.025 0.19575,0 0.0959,-0.029 0.1715,-0.1009 0.0534,-0.049 0.0751,-0.1022 0.0262,-0.055 0.0315,-0.097 0.008,-0.048 4e-5,-0.086 -0.008,-0.038 -0.0161,-0.06 -0.008,-0.023 -0.0251,-0.057 -0.0172,-0.034 -0.0539,-0.067 -0.0322,-0.034 -0.0853,-0.056 -0.0502,-0.028 -0.12414,-0.037 -0.0573,-0.01 -0.12205,0 -0.0602,10e-4 -0.13103,7e-4 -0.12496,0 -0.26206,0 -0.13711,0 -0.2853,-0.036 -0.19203,-0.043 -0.35207,-0.1537 -0.16003,-0.1102 -0.26959,-0.2635 -0.10507,-0.1548 -0.1549,-0.3393 -0.0469,-0.1905 -0.0201,-0.3867 0.027,-0.1812 0.10874,-0.3363 0.0817,-0.155 0.20777,-0.2701 0.12449,-0.1196 0.29043,-0.1932 0.16594,-0.074 0.35694,-0.091 0.18494,-0.02 0.35584,0.021 0.16932,0.036 0.31246,0.1272 0.14604,0.085 0.25376,0.2186 0.10772,0.1337 0.16628,0.2999 l -0.75911,0.2675 q -0.0364,-0.1033 -0.11802,-0.12 -0.0771,-0.018 -0.13129,-0.014 -0.009,0 -0.0465,0.011 -0.0346,0 -0.0764,0.027 -0.0388,0.019 -0.0743,0.062 -0.037,0.038 -0.045,0.1017 -0.0106,0.085 0.0403,0.1575 0.0494,0.068 0.13257,0.09 0.0756,0.014 0.16299,0.018 0.0859,1e-4 0.18069,0 0.0843,0 0.17013,0 0.0904,0 0.18387,0.01 0.34394,0.03 0.60194,0.2323 0.26249,0.2004 0.37487,0.5193 0.1108,0.3144 0.0319,0.6351 -0.0744,0.3191 -0.32336,0.5583 -0.0978,0.095 -0.21116,0.1602 -0.11178,0.07 -0.23306,0.1125 z"
         style="font-style:normal;font-variant:normal;font-weight:normal;font-stretch:normal;font-size:4.76249981px;line-height:1.25;font-family:'The Bold Font';-inkscape-font-specification:'The Bold Font';letter-spacing:-0.75141668px;word-spacing:0px;fill:#ffffff;fill-opacity:1;stroke:none;stroke-width:0.26458332"
         id="path1671" />
      <path
         inkscape:connector-curvature="0"
         d="m 43.66622,222.0455 0.17763,0.7899 -0.65515,0.1473 0.59245,2.6346 -0.78525,0.1766 -0.59246,-2.6346 -0.6505,0.1463 -0.17763,-0.7899 z"
         style="font-style:normal;font-variant:normal;font-weight:normal;font-stretch:normal;font-size:4.76249981px;line-height:1.25;font-family:'The Bold Font';-inkscape-font-specification:'The Bold Font';letter-spacing:-0.75141668px;word-spacing:0px;fill:#ffffff;fill-opacity:1;stroke:none;stroke-width:0.26458332"
         id="path1673" />
      <path
         inkscape:connector-curvature="0"
         d="m 45.88003,221.7948 q 0.36077,-0.029 0.68994,0.083 0.32918,0.112 0.5857,0.3302 0.25614,0.2134 0.41949,0.5204 0.16336,0.3069 0.1925,0.6677 0.0291,0.3607 -0.0828,0.6899 -0.11198,0.3292 -0.33016,0.5857 -0.21856,0.2518 -0.52549,0.4151 -0.30693,0.1634 -0.66771,0.1925 -0.36077,0.029 -0.68995,-0.083 -0.32917,-0.112 -0.58531,-0.3254 -0.25177,-0.2186 -0.41513,-0.5255 -0.16335,-0.3069 -0.19249,-0.6677 -0.0292,-0.3608 0.0828,-0.6899 0.11197,-0.3292 0.32579,-0.5806 0.21818,-0.2565 0.52511,-0.4199 0.30693,-0.1633 0.66771,-0.1925 z m 0.21664,2.6821 q 0.19463,-0.016 0.35977,-0.1007 0.16476,-0.09 0.28258,-0.2283 0.11781,-0.1385 0.17521,-0.3152 0.0621,-0.177 0.0464,-0.3716 -0.0157,-0.1947 -0.10547,-0.3594 -0.085,-0.1652 -0.22354,-0.283 -0.13852,-0.1178 -0.31516,-0.1752 -0.17703,-0.062 -0.37166,-0.046 -0.19463,0.016 -0.35939,0.1054 -0.16514,0.085 -0.28296,0.2236 -0.11781,0.1385 -0.17996,0.3155 -0.0574,0.1767 -0.0417,0.3713 0.0157,0.1946 0.10073,0.3598 0.0897,0.1647 0.22827,0.2825 0.13853,0.1179 0.31556,0.18 0.17664,0.057 0.37127,0.042 z"
         style="font-style:normal;font-variant:normal;font-weight:normal;font-stretch:normal;font-size:4.76249981px;line-height:1.25;font-family:'The Bold Font';-inkscape-font-specification:'The Bold Font';letter-spacing:-0.75141668px;word-spacing:0px;fill:#ffffff;fill-opacity:1;stroke:none;stroke-width:0.26458332"
         id="path1675" />
      <path
         inkscape:connector-curvature="0"
         d="m 50.16858,225.3307 -2.07698,-0.1326 0.22306,-3.4933 0.80323,0.051 -0.17178,2.6901 1.27376,0.081 z"
         style="font-style:normal;font-variant:normal;font-weight:normal;font-stretch:normal;font-size:4.76249981px;line-height:1.25;font-family:'The Bold Font';-inkscape-font-specification:'The Bold Font';letter-spacing:-0.75141668px;word-spacing:0px;fill:#ffffff;fill-opacity:1;stroke:none;stroke-width:0.26458332"
         id="path1677" />
      <path
         inkscape:connector-curvature="0"
         d="m 51.347201,225.15767 q -0.0257,0.1696 -0.16676,0.2734 -0.13559,0.1 -0.30509,0.074 -0.16951,-0.026 -0.27405,-0.1621 -0.0991,-0.1403 -0.0734,-0.3098 0.0257,-0.1695 0.16133,-0.2693 0.14101,-0.1038 0.31052,-0.078 0.16951,0.026 0.26863,0.166 0.10454,0.1363 0.0788,0.3058 z"
         style="font-style:normal;font-variant:normal;font-weight:normal;font-stretch:normal;font-size:4.76249981px;line-height:1.25;font-family:'The Bold Font';-inkscape-font-specification:'The Bold Font';letter-spacing:-0.75141668px;word-spacing:0px;fill:#ffffff;fill-opacity:1;stroke:none;stroke-width:0.26458332"
         id="path1679" />
      <path
         inkscape:connector-curvature="0"
         d="m 53.711581,222.50553 q 0.35167,0.086 0.62902,0.2954 0.27735,0.2097 0.45237,0.4974 0.17615,0.283 0.23485,0.6257 0.0587,0.3428 -0.0269,0.6944 -0.0856,0.3517 -0.29532,0.629 -0.20969,0.2774 -0.4974,0.4524 -0.28658,0.1704 -0.62928,0.2291 -0.34271,0.059 -0.69438,-0.027 -0.35167,-0.086 -0.62902,-0.2954 -0.27735,-0.2097 -0.4535,-0.4927 -0.1704,-0.2866 -0.22909,-0.6293 -0.0587,-0.3427 0.0269,-0.6944 0.0856,-0.3517 0.29532,-0.629 0.20969,-0.2774 0.49164,-0.4489 0.28771,-0.175 0.63041,-0.2337 0.34271,-0.059 0.69438,0.027 z m -0.63666,2.6145 q 0.18972,0.046 0.37321,0.017 0.18461,-0.034 0.33997,-0.128 0.15536,-0.095 0.26533,-0.2442 0.11461,-0.1485 0.16081,-0.3382 0.0462,-0.1898 0.0127,-0.3744 -0.0288,-0.1834 -0.12335,-0.3388 -0.0945,-0.1554 -0.24419,-0.2653 -0.14856,-0.1146 -0.33827,-0.1608 -0.18972,-0.046 -0.37433,-0.013 -0.18349,0.029 -0.33885,0.1234 -0.15536,0.094 -0.26996,0.243 -0.10998,0.1497 -0.15618,0.3394 -0.0462,0.1898 -0.0173,0.3732 0.0335,0.1847 0.12798,0.34 0.0945,0.1554 0.24307,0.27 0.14968,0.11 0.33939,0.1562 z"
         style="font-style:normal;font-variant:normal;font-weight:normal;font-stretch:normal;font-size:4.76249981px;line-height:1.25;font-family:'The Bold Font';-inkscape-font-specification:'The Bold Font';letter-spacing:-0.75141668px;word-spacing:0px;fill:#ffffff;fill-opacity:1;stroke:none;stroke-width:0.26458332"
         id="path1681" />
      <path
         inkscape:connector-curvature="0"
         d="m 56.016411,225.96813 q -0.0608,-0.015 -0.11985,-0.034 -0.059,-0.019 -0.12242,-0.04 l -0.33756,0.8138 -0.74345,-0.3083 1.33562,-3.2202 0.74345,0.3084 q 0.27532,0.1193 0.47713,0.3164 0.20181,0.1972 0.31466,0.4348 0.11726,0.2394 0.12903,0.4969 0.0162,0.2593 -0.086,0.5057 -0.10765,0.2595 -0.31068,0.4383 -0.20121,0.1743 -0.46668,0.255 l 0.2346,1.4481 -0.87542,-0.3631 z m 0.0679,-0.8226 q 0.1206,0.045 0.24078,0.053 0.1264,0.01 0.23113,-0.023 0.10912,-0.027 0.18596,-0.088 0.0831,-0.063 0.12137,-0.1559 0.0383,-0.092 0.0228,-0.1916 -0.0111,-0.097 -0.0692,-0.1937 -0.0536,-0.094 -0.14902,-0.1752 -0.0892,-0.083 -0.20611,-0.1371 z"
         style="font-style:normal;font-variant:normal;font-weight:normal;font-stretch:normal;font-size:4.76249981px;line-height:1.25;font-family:'The Bold Font';-inkscape-font-specification:'The Bold Font';letter-spacing:-0.75141668px;word-spacing:0px;fill:#ffffff;fill-opacity:1;stroke:none;stroke-width:0.26458332"
         id="path1683" />
      <path
         inkscape:connector-curvature="0"
         d="m 60.518341,227.13393 -0.98958,1.6888 -0.69853,-0.4093 0.0433,-0.074 q -0.13913,-0.026 -0.27444,-0.078 -0.12879,-0.053 -0.24795,-0.1232 -0.29174,-0.171 -0.50615,-0.4456 -0.21441,-0.2747 -0.30628,-0.6266 -0.0919,-0.3519 -0.0415,-0.6922 0.0569,-0.342 0.22784,-0.6338 0.17094,-0.2917 0.44151,-0.5085 0.27467,-0.2144 0.62657,-0.3063 0.35191,-0.092 0.69633,-0.039 0.34442,0.053 0.63617,0.2237 0.29174,0.171 0.50614,0.4456 0.21441,0.2747 0.30628,0.6266 l -0.78201,0.2042 q -0.0493,-0.189 -0.16767,-0.3356 -0.11591,-0.1507 -0.27206,-0.2422 -0.15614,-0.091 -0.34429,-0.119 -0.18574,-0.031 -0.37473,0.018 -0.18899,0.049 -0.33971,0.1653 -0.15072,0.1159 -0.24221,0.272 -0.0915,0.1562 -0.11895,0.3443 -0.0274,0.1882 0.0219,0.3772 0.0442,0.1694 0.13961,0.3081 0.10189,0.137 0.23437,0.2311 0.139,0.092 0.30038,0.1374 0.16138,0.045 0.3311,0.028 l 0.0891,-0.152 -0.60403,-0.3539 0.4069,-0.6945 z"
         style="font-style:normal;font-variant:normal;font-weight:normal;font-stretch:normal;font-size:4.76249981px;line-height:1.25;font-family:'The Bold Font';-inkscape-font-specification:'The Bold Font';letter-spacing:-0.75141668px;word-spacing:0px;fill:#ffffff;fill-opacity:1;stroke:none;stroke-width:0.26458332"
         id="path1685" />
      <g
         transform="translate(928.86128,1302.8593)"
         id="text1448"
         style="font-style:normal;font-weight:normal;font-size:10.58333302px;line-height:1.25;font-family:sans-serif;letter-spacing:0px;word-spacing:0px;fill:#ffffff;fill-opacity:1;stroke:none;stroke-width:0.26458332"
         aria-label="THE FAULT INJECTION PLATFORM">
        <path
           id="path1616"
           style="font-style:normal;font-variant:normal;font-weight:normal;font-stretch:normal;font-size:4.76249981px;font-family:'The Bold Font';-inkscape-font-specification:'The Bold Font';letter-spacing:0.26458332px;word-spacing:0.52122915px;fill:#ffffff;stroke-width:0.26458332"
           d="m -901.08944,-1057.8479 -0.80793,-0.053 0.0435,-0.6701 -2.69467,-0.1749 0.0521,-0.8032 2.69467,0.175 0.0432,-0.6654 0.80792,0.053 z"
           inkscape:connector-curvature="0" />
        <path
           id="path1618"
           style="font-style:normal;font-variant:normal;font-weight:normal;font-stretch:normal;font-size:4.76249981px;font-family:'The Bold Font';-inkscape-font-specification:'The Bold Font';letter-spacing:0.26458332px;word-spacing:0.52122915px;fill:#ffffff;stroke-width:0.26458332"
           d="m -901.01351,-1055.9426 0.047,0.8035 -3.4897,0.2042 -0.047,-0.8035 1.31696,-0.077 -0.059,-1.008 -1.31696,0.077 -0.047,-0.8035 3.48971,-0.2042 0.047,0.8035 -1.36926,0.08 0.059,1.0079 z"
           inkscape:connector-curvature="0" />
        <path
           id="path1620"
           style="font-style:normal;font-variant:normal;font-weight:normal;font-stretch:normal;font-size:4.76249981px;font-family:'The Bold Font';-inkscape-font-specification:'The Bold Font';letter-spacing:0.26458332px;word-spacing:0.52122915px;fill:#ffffff;stroke-width:0.26458332"
           d="m -901.30484,-1052.6257 -0.26948,-1.4128 -0.51927,0.099 0.21861,1.1462 -0.79061,0.1508 -0.21861,-1.1462 -0.54267,0.1035 0.26947,1.4128 -0.79061,0.1508 -0.42027,-2.2034 3.4291,-0.654 0.42495,2.2025 z"
           inkscape:connector-curvature="0" />
        <path
           id="path1622"
           style="font-style:normal;font-variant:normal;font-weight:normal;font-stretch:normal;font-size:4.76249981px;font-family:'The Bold Font';-inkscape-font-specification:'The Bold Font';letter-spacing:0.26458332px;word-spacing:0.52122915px;fill:#ffffff;stroke-width:0.26458332"
           d="m -900.02292,-1048.9654 -0.47938,-1.2137 -0.49168,0.1942 0.37966,0.9612 -0.74859,0.2957 -0.37965,-0.9612 -1.26241,0.4986 -0.29567,-0.7486 3.25125,-1.2841 0.77505,1.9622 z"
           inkscape:connector-curvature="0" />
        <path
           id="path1624"
           style="font-style:normal;font-variant:normal;font-weight:normal;font-stretch:normal;font-size:4.76249981px;font-family:'The Bold Font';-inkscape-font-specification:'The Bold Font';letter-spacing:0.26458332px;word-spacing:0.52122915px;fill:#ffffff;stroke-width:0.26458332"
           d="m -901.31026,-1045.6752 0.30408,-0.326 -0.53239,-0.9627 -0.44007,0.08 -0.41255,-0.746 3.63526,-0.6497 0.36876,0.6668 -2.51285,2.6794 z m 0.6097,-1.4365 0.27426,0.4959 0.60818,-0.6519 z"
           inkscape:connector-curvature="0" />
        <path
           id="path1626"
           style="font-style:normal;font-variant:normal;font-weight:normal;font-stretch:normal;font-size:4.76249981px;font-family:'The Bold Font';-inkscape-font-specification:'The Bold Font';letter-spacing:0.26458332px;word-spacing:0.52122915px;fill:#ffffff;stroke-width:0.26458332"
           d="m -899.80733,-1043.4555 q -0.16101,-0.2126 -0.22883,-0.4599 -0.064,-0.2502 -0.0319,-0.5076 0.0369,-0.2668 0.16345,-0.4941 0.12946,-0.2235 0.343,-0.3912 l 1.74271,-1.3196 0.48589,0.6416 -1.73891,1.3168 q -0.16706,0.1265 -0.19747,0.3467 -0.0228,0.2144 0.10655,0.3853 0.0633,0.083 0.15493,0.1335 0.0917,0.05 0.19175,0.064 0.10007,0.014 0.19901,-0.013 0.0989,-0.027 0.18626,-0.093 l 1.72752,-1.3082 0.48589,0.6417 -1.72373,1.3052 q -0.21353,0.1677 -0.47042,0.2308 -0.25401,0.067 -0.50754,0.032 -0.25066,-0.031 -0.48461,-0.1587 -0.22728,-0.1266 -0.39496,-0.3402 z"
           inkscape:connector-curvature="0" />
        <path
           id="path1628"
           style="font-style:normal;font-variant:normal;font-weight:normal;font-stretch:normal;font-size:4.76249981px;font-family:'The Bold Font';-inkscape-font-specification:'The Bold Font';letter-spacing:0.26458332px;word-spacing:0.52122915px;fill:#ffffff;stroke-width:0.26458332"
           d="m -897.04239,-1040.3633 -1.45863,-1.4845 2.49688,-2.4533 0.56409,0.5741 -1.92276,1.8892 0.89453,0.9104 z"
           inkscape:connector-curvature="0" />
        <path
           id="path1630"
           style="font-style:normal;font-variant:normal;font-weight:normal;font-stretch:normal;font-size:4.76249981px;font-family:'The Bold Font';-inkscape-font-specification:'The Bold Font';letter-spacing:0.26458332px;word-spacing:0.52122915px;fill:#ffffff;stroke-width:0.26458332"
           d="m -892.82676,-1041.4312 -0.51044,0.6285 -0.52124,-0.4234 -1.70245,2.0961 -0.62475,-0.5074 1.70245,-2.0961 -0.51755,-0.4204 0.51043,-0.6284 z"
           inkscape:connector-curvature="0" />
        <path
           id="path1632"
           style="font-style:normal;font-variant:normal;font-weight:normal;font-stretch:normal;font-size:4.76249981px;font-family:'The Bold Font';-inkscape-font-specification:'The Bold Font';letter-spacing:0.26458332px;word-spacing:0.52122915px;fill:#ffffff;stroke-width:0.26458332"
           d="m -892.50335,-1037.0968 -0.69629,-0.4038 1.75579,-3.0282 0.69629,0.4037 z"
           inkscape:connector-curvature="0" />
        <path
           id="path1634"
           style="font-style:normal;font-variant:normal;font-weight:normal;font-stretch:normal;font-size:4.76249981px;font-family:'The Bold Font';-inkscape-font-specification:'The Bold Font';letter-spacing:0.26458332px;word-spacing:0.52122915px;fill:#ffffff;stroke-width:0.26458332"
           d="m -888.60721,-1039.0921 0.73602,0.3257 -1.41461,3.1967 -0.79699,-0.3527 -0.22036,-2.3265 -0.82487,1.864 -0.73601,-0.3257 1.41075,-3.188 0.80134,0.3546 0.21794,2.3203 z"
           inkscape:connector-curvature="0" />
        <path
           id="path1636"
           style="font-style:normal;font-variant:normal;font-weight:normal;font-stretch:normal;font-size:4.76249981px;font-family:'The Bold Font';-inkscape-font-specification:'The Bold Font';letter-spacing:0.26458332px;word-spacing:0.52122915px;fill:#ffffff;stroke-width:0.26458332"
           d="m -885.35849,-1038.1204 -0.60502,2.1502 q -0.0748,0.2659 -0.24605,0.47 -0.16536,0.2008 -0.38859,0.326 -0.21735,0.1219 -0.47954,0.157 -0.25631,0.032 -0.51763,-0.042 h -0.0137 q -0.26003,-0.078 -0.46216,-0.2389 -0.20084,-0.1654 -0.33262,-0.4004 -0.12719,-0.2337 -0.15897,-0.49 -0.0259,-0.2596 0.0522,-0.5196 l 0.77219,0.2272 q -0.058,0.2063 0.0415,0.3976 0.10872,0.1938 0.31502,0.2519 0.10086,0.028 0.20287,0.017 0.10201,-0.011 0.19012,-0.06 0.0881,-0.049 0.15518,-0.1295 0.0671,-0.08 0.0967,-0.1855 l 0.60373,-2.1456 z"
           inkscape:connector-curvature="0" />
        <path
           id="path1638"
           style="font-style:normal;font-variant:normal;font-weight:normal;font-stretch:normal;font-size:4.76249981px;font-family:'The Bold Font';-inkscape-font-specification:'The Bold Font';letter-spacing:0.26458332px;word-spacing:0.52122915px;fill:#ffffff;stroke-width:0.26458332"
           d="m -883.0269,-1036.892 -1.42265,-0.2114 -0.0777,0.5229 1.15414,0.1715 -0.1183,0.7961 -1.15414,-0.1715 -0.0812,0.5465 1.42265,0.2114 -0.11829,0.7961 -2.21878,-0.3297 0.51309,-3.453 2.21948,0.325 z"
           inkscape:connector-curvature="0" />
        <path
           id="path1640"
           style="font-style:normal;font-variant:normal;font-weight:normal;font-stretch:normal;font-size:4.76249981px;font-family:'The Bold Font';-inkscape-font-specification:'The Bold Font';letter-spacing:0.26458332px;word-spacing:0.52122915px;fill:#ffffff;stroke-width:0.26458332"
           d="m -881.23407,-1034.1412 q -0.33808,-0.01 -0.65953,-0.1363 -0.3166,-0.1346 -0.56887,-0.3966 -0.24283,-0.257 -0.37022,-0.5738 -0.12253,-0.3215 -0.11587,-0.6738 0.007,-0.3571 0.14126,-0.669 0.13936,-0.3165 0.39165,-0.5594 0.26199,-0.2523 0.58821,-0.3747 0.32623,-0.1225 0.65954,-0.1162 0.33808,0.01 0.65468,0.141 0.32136,0.1347 0.57363,0.3967 l -0.57735,0.5559 q -0.13548,-0.1407 -0.3104,-0.2107 -0.17483,-0.075 -0.35577,-0.078 -0.18095,0 -0.35848,0.065 -0.17268,0.063 -0.31338,0.1989 -0.13593,0.1356 -0.2106,0.3057 -0.0747,0.17 -0.0783,0.3605 -0.004,0.1905 0.0646,0.3632 0.0683,0.168 0.19899,0.3086 0.13548,0.1407 0.30555,0.2154 0.17492,0.07 0.35586,0.073 0.18094,0 0.35839,-0.06 0.17753,-0.068 0.31823,-0.2036 l 0.55583,0.5822 q -0.26199,0.2522 -0.58345,0.3748 -0.32138,0.1177 -0.66421,0.1112 z"
           inkscape:connector-curvature="0" />
        <path
           id="path1642"
           style="font-style:normal;font-variant:normal;font-weight:normal;font-stretch:normal;font-size:4.76249981px;font-family:'The Bold Font';-inkscape-font-specification:'The Bold Font';letter-spacing:0.26458332px;word-spacing:0.52122915px;fill:#ffffff;stroke-width:0.26458332"
           d="m -877.87005,-1037.8716 0.0856,0.8051 -0.66774,0.071 0.28546,2.6852 -0.80035,0.085 -0.28547,-2.6852 -0.66301,0.071 -0.0856,-0.8051 z"
           inkscape:connector-curvature="0" />
        <path
           id="path1644"
           style="font-style:normal;font-variant:normal;font-weight:normal;font-stretch:normal;font-size:4.76249981px;font-family:'The Bold Font';-inkscape-font-specification:'The Bold Font';letter-spacing:0.26458332px;word-spacing:0.52122915px;fill:#ffffff;stroke-width:0.26458332"
           d="m -876.11631,-1034.6572 -0.7896,0.156 -0.67828,-3.4341 0.7896,-0.156 z"
           inkscape:connector-curvature="0" />
        <path
           id="path1646"
           style="font-style:normal;font-variant:normal;font-weight:normal;font-stretch:normal;font-size:4.76249981px;font-family:'The Bold Font';-inkscape-font-specification:'The Bold Font';letter-spacing:0.26458332px;word-spacing:0.52122915px;fill:#ffffff;stroke-width:0.26458332"
           d="m -875.00449,-1038.5756 q 0.34484,-0.11 0.69081,-0.075 0.34596,0.035 0.64519,0.1891 0.29777,0.15 0.52631,0.4121 0.22855,0.262 0.33853,0.6068 0.10998,0.3449 0.0754,0.6908 -0.0346,0.346 -0.18913,0.6452 -0.15595,0.2947 -0.41799,0.5232 -0.26203,0.2286 -0.60686,0.3386 -0.34484,0.1099 -0.69081,0.075 -0.34596,-0.035 -0.64374,-0.1846 -0.29468,-0.1559 -0.52323,-0.418 -0.22854,-0.262 -0.33852,-0.6068 -0.10998,-0.3449 -0.0754,-0.6908 0.0346,-0.346 0.18604,-0.6392 0.15451,-0.2993 0.41654,-0.5278 0.26203,-0.2285 0.60686,-0.3385 z m 0.81765,2.5636 q 0.18603,-0.059 0.32766,-0.1795 0.14019,-0.1247 0.22363,-0.2863 0.0834,-0.1616 0.0994,-0.3466 0.0205,-0.1865 -0.0388,-0.3726 -0.0593,-0.186 -0.18403,-0.3262 -0.12016,-0.1416 -0.28174,-0.2251 -0.16158,-0.083 -0.34663,-0.099 -0.1865,-0.02 -0.37253,0.039 -0.18603,0.059 -0.32621,0.184 -0.14164,0.1202 -0.22507,0.2817 -0.0834,0.1616 -0.10394,0.3481 -0.016,0.1851 0.0434,0.3711 0.0593,0.186 0.17949,0.3277 0.1247,0.1402 0.28628,0.2236 0.16158,0.083 0.34808,0.1039 0.18505,0.016 0.37108,-0.043 z"
           inkscape:connector-curvature="0" />
        <path
           id="path1648"
           style="font-style:normal;font-variant:normal;font-weight:normal;font-stretch:normal;font-size:4.76249981px;font-family:'The Bold Font';-inkscape-font-specification:'The Bold Font';letter-spacing:0.26458332px;word-spacing:0.52122915px;fill:#ffffff;stroke-width:0.26458332"
           d="m -871.57707,-1040.0176 0.71969,-0.3604 1.56509,3.1258 -0.77931,0.3902 -1.93465,-1.3109 0.91262,1.8226 -0.71969,0.3604 -1.56083,-3.1172 0.78356,-0.3924 1.92827,1.3088 z"
           inkscape:connector-curvature="0" />
        <path
           id="path1650"
           style="font-style:normal;font-variant:normal;font-weight:normal;font-stretch:normal;font-size:4.76249981px;font-family:'The Bold Font';-inkscape-font-specification:'The Bold Font';letter-spacing:0.26458332px;word-spacing:0.52122915px;fill:#ffffff;stroke-width:0.26458332"
           d="m -866.85527,-1041.5019 q 0.1863,0.2352 0.2623,0.5152 0.0768,0.2733 0.0442,0.5543 -0.0289,0.2781 -0.16026,0.534 -0.13436,0.2523 -0.3666,0.4423 l 0.34598,0.4368 -0.63091,0.4997 -2.17051,-2.7401 0.63091,-0.4998 q 0.23815,-0.1826 0.51741,-0.2519 0.27925,-0.069 0.55651,-0.034 0.281,0.033 0.53246,0.1736 0.25224,0.1344 0.43853,0.3696 z m -0.72013,1.4149 q 0.10158,-0.087 0.15865,-0.1986 0.0578,-0.1187 0.0718,-0.2391 0.011,-0.1242 -0.0256,-0.2471 -0.0329,-0.1259 -0.11566,-0.2304 -0.0828,-0.1045 -0.19779,-0.1653 -0.11126,-0.064 -0.23169,-0.078 -0.12338,-0.018 -0.24924,0.015 -0.12508,0.026 -0.23257,0.1053 z"
           inkscape:connector-curvature="0" />
        <path
           id="path1652"
           style="font-style:normal;font-variant:normal;font-weight:normal;font-stretch:normal;font-size:4.76249981px;font-family:'The Bold Font';-inkscape-font-specification:'The Bold Font';letter-spacing:0.26458332px;word-spacing:0.52122915px;fill:#ffffff;stroke-width:0.26458332"
           d="m -863.58484,-1041.8965 -1.46523,1.478 -2.48591,-2.4644 0.56664,-0.5716 1.91433,1.8978 0.89858,-0.9065 z"
           inkscape:connector-curvature="0" />
        <path
           id="path1654"
           style="font-style:normal;font-variant:normal;font-weight:normal;font-stretch:normal;font-size:4.76249981px;font-family:'The Bold Font';-inkscape-font-specification:'The Bold Font';letter-spacing:0.26458332px;word-spacing:0.52122915px;fill:#ffffff;stroke-width:0.26458332"
           d="m -861.96872,-1043.9258 -0.42055,-0.1479 -0.6685,0.8738 0.24982,0.371 -0.51801,0.677 -2.05281,-3.0697 0.46302,-0.6052 3.46215,1.2277 z m -1.56043,0.017 0.34438,-0.4501 -0.84112,-0.2957 z"
           inkscape:connector-curvature="0" />
        <path
           id="path1656"
           style="font-style:normal;font-variant:normal;font-weight:normal;font-stretch:normal;font-size:4.76249981px;font-family:'The Bold Font';-inkscape-font-specification:'The Bold Font';letter-spacing:0.26458332px;word-spacing:0.52122915px;fill:#ffffff;stroke-width:0.26458332"
           d="m -863.2325,-1048.5385 0.70024,0.4064 -0.33708,0.5808 2.33549,1.3555 -0.40402,0.6961 -2.33548,-1.3555 -0.33469,0.5767 -0.70023,-0.4064 z"
           inkscape:connector-curvature="0" />
        <path
           id="path1658"
           style="font-style:normal;font-variant:normal;font-weight:normal;font-stretch:normal;font-size:4.76249981px;font-family:'The Bold Font';-inkscape-font-specification:'The Bold Font';letter-spacing:0.26458332px;word-spacing:0.52122915px;fill:#ffffff;stroke-width:0.26458332"
           d="m -861.54855,-1050.3296 -0.5224,1.1958 0.48443,0.2116 0.41373,-0.947 0.73755,0.3222 -0.41373,0.947 1.2438,0.5434 -0.32221,0.7376 -3.20333,-1.3995 0.84461,-1.9333 z"
           inkscape:connector-curvature="0" />
        <path
           id="path1660"
           style="font-style:normal;font-variant:normal;font-weight:normal;font-stretch:normal;font-size:4.76249981px;font-family:'The Bold Font';-inkscape-font-specification:'The Bold Font';letter-spacing:0.26458332px;word-spacing:0.52122915px;fill:#ffffff;stroke-width:0.26458332"
           d="m -861.81762,-1052.2119 q 0.0977,-0.3485 0.31686,-0.6184 0.21913,-0.27 0.5127,-0.435 0.28899,-0.1662 0.63352,-0.2131 0.34452,-0.047 0.69303,0.051 0.34851,0.098 0.61846,0.3169 0.26995,0.2191 0.43494,0.5127 0.1604,0.2923 0.20724,0.6368 0.0468,0.3445 -0.0509,0.693 -0.0977,0.3485 -0.31685,0.6185 -0.21914,0.2699 -0.50812,0.4362 -0.29229,0.1604 -0.63682,0.2072 -0.34452,0.047 -0.69303,-0.051 -0.34851,-0.098 -0.61846,-0.3169 -0.26995,-0.2191 -0.43164,-0.5068 -0.16499,-0.2936 -0.21183,-0.6381 -0.0468,-0.3446 0.0509,-0.6931 z m 2.59089,0.7265 q 0.0527,-0.188 0.0302,-0.3724 -0.0271,-0.1856 -0.11618,-0.3441 -0.0891,-0.1586 -0.23489,-0.2737 -0.14451,-0.1196 -0.33252,-0.1723 -0.18801,-0.053 -0.37367,-0.026 -0.18437,0.023 -0.34289,0.1116 -0.15853,0.089 -0.27361,0.2349 -0.11966,0.1445 -0.17238,0.3325 -0.0527,0.188 -0.0256,0.3737 0.0225,0.1844 0.11159,0.3429 0.0891,0.1585 0.2336,0.2782 0.1458,0.1151 0.33381,0.1678 0.18801,0.053 0.37238,0.03 0.18566,-0.027 0.34419,-0.1162 0.15853,-0.089 0.27819,-0.2336 0.11507,-0.1458 0.16779,-0.3338 z"
           inkscape:connector-curvature="0" />
        <path
           id="path1662"
           style="font-style:normal;font-variant:normal;font-weight:normal;font-stretch:normal;font-size:4.76249981px;font-family:'The Bold Font';-inkscape-font-specification:'The Bold Font';letter-spacing:0.26458332px;word-spacing:0.52122915px;fill:#ffffff;stroke-width:0.26458332"
           d="m -858.6772,-1054.6198 q 0.002,0.063 -10e-4,0.1246 -0.003,0.062 -0.007,0.1288 l 0.87402,0.1112 -0.10155,0.7984 -3.45829,-0.4398 0.10155,-0.7985 q 0.0426,-0.297 0.17957,-0.5436 0.13698,-0.2467 0.33642,-0.4181 0.20004,-0.1762 0.44536,-0.2555 0.24592,-0.084 0.51049,-0.05 0.27874,0.035 0.50467,0.1842 0.2212,0.1481 0.36896,0.383 l 1.33515,-0.608 -0.11958,0.9402 z m -0.81138,0.1513 q 0.0115,-0.1282 -0.0119,-0.2464 -0.0275,-0.1235 -0.0828,-0.217 -0.0547,-0.098 -0.13375,-0.1562 -0.0832,-0.063 -0.18237,-0.076 -0.0992,-0.013 -0.19086,0.028 -0.0911,0.036 -0.16861,0.1178 -0.077,0.077 -0.12978,0.1899 -0.0569,0.108 -0.0779,0.235 z"
           inkscape:connector-curvature="0" />
        <path
           id="path1664"
           style="font-style:normal;font-variant:normal;font-weight:normal;font-stretch:normal;font-size:4.76249981px;font-family:'The Bold Font';-inkscape-font-specification:'The Bold Font';letter-spacing:0.26458332px;word-spacing:0.52122915px;fill:#ffffff;stroke-width:0.26458332"
           d="m -861.09071,-1058.8802 -0.0185,-0.8285 3.49499,-0.2829 0.018,0.8046 -1.42648,0.1176 1.43925,0.4538 0.018,0.8046 -1.47403,0.5475 1.48765,0.062 0.0181,0.8094 -3.50456,-0.1456 -0.0185,-0.8284 2.17308,-0.8156 z"
           inkscape:connector-curvature="0" />
      </g>
      <path
         id="path1492"
         d="m 69.76765,241.2652 a 0.49999976,0.49999976 0 0 1 -0.5,0.5 0.49999976,0.49999976 0 0 1 -0.5,-0.5 0.49999976,0.49999976 0 0 1 0.5,-0.5 0.49999976,0.49999976 0 0 1 0.5,0.5 z"
         style="opacity:1;vector-effect:none;fill:#ffffff;fill-opacity:1;stroke:#c25d02;stroke-width:0;stroke-linecap:round;stroke-linejoin:miter;stroke-miterlimit:4;stroke-dasharray:none;stroke-dashoffset:0;stroke-opacity:1"
         inkscape:connector-curvature="0" />
      <path
         id="path1492-3"
         d="m 26.81428,241.2652 a 0.49999976,0.49999976 0 0 1 -0.5,0.5 0.49999976,0.49999976 0 0 1 -0.5,-0.5 0.49999976,0.49999976 0 0 1 0.5,-0.5 0.49999976,0.49999976 0 0 1 0.5,0.5 z"
         style="opacity:1;vector-effect:none;fill:#ffffff;fill-opacity:1;stroke:#c25d02;stroke-width:0;stroke-linecap:round;stroke-linejoin:miter;stroke-miterlimit:4;stroke-dasharray:none;stroke-dashoffset:0;stroke-opacity:1"
         inkscape:connector-curvature="0" />
      <path
         inkscape:export-ydpi="100.095"
         inkscape:export-xdpi="100.095"
         inkscape:export-filename="C:\Users\strix\Dropbox\sticker.png"
         d="m 36.49687,240.1562 h 1.0237 l 0.5117,0.8863 -0.5117,0.8859 h -1.0237 l -0.51169,-0.8859 z m 5.63933,-3.2763 h 1.18172 1.18173 3.98234 5.30984 3.56939 l 3.15147,5.4582 -3.15147,5.4579 h -5.4526 -0.84979 -1.57571 l -3.9392,6.8232 H 40.817 l 5.51493,-9.552 0.78776,-1.3646 h 6.30261 0.78774 0.78772 l 0.78801,-1.3645 -0.78801,-1.3646 H 54.21004 53.79183 48.48199 44.49965 43.31792 42.1362 l -1.18174,-2.047 z m -5.63933,-0.9553 h 1.0237 l 0.5117,0.8864 -0.5117,0.8861 h -1.0237 l -0.51169,-0.8861 z m -0.51169,-1.7742 -2.54153,4.4019 h -0.4441 l -1.08182,-1.048 0.51557,1.4222 -0.51557,1.4226 1.08156,-1.0484 h 0.44436 l 2.54153,4.4019 h 5.51493 2.46836 l -5.51493,9.5517 -1.57573,2.7295 -0.78774,1.3644 h 1.57547 1.57572 7.87843 l 3.93914,-6.8228 h 7.87813 l 4.72719,-8.1873 -4.72719,-8.1877 H 51.4971 49.48312 41.50011 Z"
         style="fill:#c25d02;fill-opacity:1;fill-rule:nonzero;stroke:none;stroke-width:0.27825063"
         id="path1078-5-3-9"
         inkscape:connector-curvature="0" />
    </g>
  </g>
</svg>
