<?xml version="1.0" encoding="UTF-8" standalone="no"?>
<!-- Created with Inkscape (http://www.inkscape.org/) -->

<svg
   xmlns:dc="http://purl.org/dc/elements/1.1/"
   xmlns:cc="http://creativecommons.org/ns#"
   xmlns:rdf="http://www.w3.org/1999/02/22-rdf-syntax-ns#"
   xmlns:svg="http://www.w3.org/2000/svg"
   xmlns="http://www.w3.org/2000/svg"
   xmlns:sodipodi="http://sodipodi.sourceforge.net/DTD/sodipodi-0.dtd"
   xmlns:inkscape="http://www.inkscape.org/namespaces/inkscape"
   width="107"
   height="32"
   viewBox="0 0 28.310416 8.4666666"
   version="1.1"
   id="svg8"
   inkscape:version="0.92.3 (2405546, 2018-03-11)"
   sodipodi:docname="pystol_header.svg"
   inkscape:export-filename="C:\Users\strix\Dropbox\logo-for-pystol\pystol.png"
   inkscape:export-xdpi="100.095"
   inkscape:export-ydpi="100.095">
  <defs
     id="defs2" />
  <sodipodi:namedview
     id="base"
     pagecolor="#ffffff"
     bordercolor="#666666"
     borderopacity="1.0"
     inkscape:pageopacity="0.0"
     inkscape:pageshadow="2"
     inkscape:zoom="11.313708"
     inkscape:cx="98.874739"
     inkscape:cy="8.5384999"
     inkscape:document-units="mm"
     inkscape:current-layer="layer1"
     showgrid="false"
     inkscape:snap-bbox="true"
     inkscape:bbox-paths="true"
     inkscape:bbox-nodes="true"
     inkscape:snap-bbox-edge-midpoints="true"
     inkscape:snap-bbox-midpoints="true"
     inkscape:snap-intersection-paths="true"
     inkscape:window-width="3840"
     inkscape:window-height="1537"
     inkscape:window-x="-8"
     inkscape:window-y="-8"
     inkscape:window-maximized="1"
     inkscape:snap-global="true"
     units="px" />
  <metadata
     id="metadata5">
    <rdf:RDF>
      <cc:Work
         rdf:about="">
        <dc:format>image/svg+xml</dc:format>
        <dc:type
           rdf:resource="http://purl.org/dc/dcmitype/StillImage" />
        <dc:title></dc:title>
      </cc:Work>
    </rdf:RDF>
  </metadata>
  <g
     inkscape:label="Capa 1"
     inkscape:groupmode="layer"
     id="layer1"
     transform="translate(0,-288.53338)">
    <flowRoot
       xml:space="preserve"
       id="flowRoot1527"
       style="font-style:normal;font-weight:normal;font-size:40px;line-height:1.25;font-family:sans-serif;letter-spacing:0px;word-spacing:0px;fill:#000000;fill-opacity:1;stroke:none"
       transform="scale(0.26458333)"><flowRegion
         id="flowRegion1529"><rect
           id="rect1531"
           width="2169.4036"
           height="1187.9395"
           x="1066.317"
           y="2375.5129" /></flowRegion><flowPara
         id="flowPara1533" /></flowRoot>    <g
       id="g939"
       transform="matrix(1.1465267,0,0,1.1465267,-0.67413581,-42.660804)"
       style="fill:#ffffff">
      <path
         inkscape:connector-curvature="0"
         d="m 10.813899,296.1822 0.651221,-1.06656 -0.743519,-2.72795 h 0.958883 l 0.446112,1.63574 0.989651,-1.63574 h 0.938373 l -2.302347,3.79451 z"
         style="font-style:italic;font-variant:normal;font-weight:bold;font-stretch:normal;font-size:medium;line-height:1.25;font-family:'The Bold Font';-inkscape-font-specification:'The Bold Font Bold Italic';letter-spacing:0px;word-spacing:0px;fill:#ffffff;fill-opacity:1;stroke:none;stroke-width:0.12819305"
         id="path899" />
      <path
         inkscape:connector-curvature="0"
         d="m 14.907184,296.25399 q -0.179471,0 -0.348686,-0.0513 -0.164087,-0.0461 -0.302535,-0.1487 -0.241003,-0.17947 -0.33843,-0.46149 -0.09743,-0.28716 -0.03077,-0.62559 h 0.866585 q -0.03077,0.15383 0.02051,0.24101 0.05128,0.082 0.09743,0.11281 0.07692,0.0615 0.184598,0.0667 0.107683,0.005 0.220493,-0.041 0.07691,-0.0308 0.128193,-0.0769 0.05128,-0.0462 0.08204,-0.0872 0.03589,-0.0462 0.04615,-0.0872 0.01538,-0.041 0.02051,-0.0667 0.0051,-0.0256 0.0051,-0.0667 0.0051,-0.041 -0.01026,-0.0872 -0.01025,-0.0462 -0.04615,-0.0872 -0.03589,-0.0462 -0.09743,-0.082 -0.05128,-0.0256 -0.112811,-0.0462 -0.06153,-0.0205 -0.128192,-0.0462 -0.117938,-0.041 -0.246131,-0.0923 -0.128193,-0.0513 -0.251258,-0.13845 -0.153832,-0.11281 -0.246131,-0.28202 -0.08717,-0.16922 -0.102554,-0.36407 -0.01538,-0.19485 0.04102,-0.39996 0.06153,-0.21024 0.199981,-0.39996 0.123065,-0.17435 0.287153,-0.30254 0.164087,-0.12819 0.348685,-0.19998 0.184598,-0.0769 0.379451,-0.0923 0.199982,-0.0154 0.389707,0.0359 0.189726,0.0462 0.328174,0.14871 0.138449,0.0974 0.22562,0.241 0.08717,0.13845 0.11281,0.31279 0.02564,0.17434 -0.01025,0.36407 H 15.75326 q 0.02051,-0.11794 -0.04615,-0.16409 -0.06153,-0.0461 -0.11281,-0.0615 -0.01026,0 -0.05128,-0.005 -0.03589,-0.0103 -0.08717,0 -0.04615,0.005 -0.107681,0.0359 -0.05641,0.0256 -0.09743,0.0872 -0.0564,0.082 -0.05128,0.17434 0.01026,0.0872 0.07692,0.13845 0.06153,0.041 0.143575,0.0769 0.08204,0.0308 0.169216,0.0615 0.08204,0.0256 0.164087,0.0564 0.08717,0.0308 0.169214,0.0718 0.307663,0.15383 0.440985,0.45124 0.13332,0.29741 0.06153,0.66147 -0.07179,0.35894 -0.323047,0.65635 -0.251258,0.29741 -0.620454,0.45124 -0.148704,0.0615 -0.29228,0.0872 -0.143576,0.0308 -0.282024,0.0308 z"
         style="font-style:italic;font-variant:normal;font-weight:bold;font-stretch:normal;font-size:medium;line-height:1.25;font-family:'The Bold Font';-inkscape-font-specification:'The Bold Font Bold Italic';letter-spacing:0px;word-spacing:0px;fill:#ffffff;fill-opacity:1;stroke:none;stroke-width:0.12819305"
         id="path901" />
      <path
         inkscape:connector-curvature="0"
         d="m 19.471417,292.40307 -0.174343,0.87172 h -0.723008 l -0.579433,2.90741 h -0.866585 l 0.579433,-2.90741 H 16.9896 l 0.174342,-0.87172 z"
         style="font-style:italic;font-variant:normal;font-weight:bold;font-stretch:normal;font-size:medium;line-height:1.25;font-family:'The Bold Font';-inkscape-font-specification:'The Bold Font Bold Italic';letter-spacing:0px;word-spacing:0px;fill:#ffffff;fill-opacity:1;stroke:none;stroke-width:0.12819305"
         id="path903" />
      <path
         inkscape:connector-curvature="0"
         d="m 21.461935,292.41333 q 0.389708,0 0.702499,0.1487 0.312791,0.1487 0.517899,0.40509 0.210237,0.25126 0.287153,0.59482 0.08204,0.34355 0.0051,0.73326 -0.08204,0.38971 -0.297408,0.73327 -0.215365,0.34355 -0.523028,0.59994 -0.307663,0.25126 -0.681987,0.39996 -0.374324,0.14871 -0.76403,0.14871 -0.389707,0 -0.702498,-0.14871 -0.312791,-0.1487 -0.5179,-0.39996 -0.199981,-0.25639 -0.282025,-0.59994 -0.08204,-0.34356 0,-0.73327 0.07692,-0.38971 0.292281,-0.73326 0.220492,-0.34356 0.523027,-0.59482 0.302535,-0.25639 0.676859,-0.40509 0.374324,-0.1487 0.764031,-0.1487 z m -0.579433,2.89716 q 0.210237,0 0.410219,-0.0769 0.199981,-0.082 0.364068,-0.22049 0.169215,-0.13845 0.282024,-0.32304 0.117938,-0.1846 0.164088,-0.39484 0.04102,-0.21023 -0.0051,-0.39483 -0.04102,-0.1846 -0.153832,-0.32305 -0.107683,-0.13845 -0.276897,-0.21536 -0.169215,-0.0821 -0.379452,-0.0821 -0.210236,0 -0.410218,0.0821 -0.19998,0.0769 -0.369196,0.21536 -0.164087,0.13845 -0.282024,0.32305 -0.112811,0.1846 -0.153832,0.39483 -0.04615,0.21024 -0.0051,0.39484 0.04615,0.18459 0.153831,0.32304 0.112811,0.13845 0.282025,0.22049 0.169215,0.0769 0.379451,0.0769 z"
         style="font-style:italic;font-variant:normal;font-weight:bold;font-stretch:normal;font-size:medium;line-height:1.25;font-family:'The Bold Font';-inkscape-font-specification:'The Bold Font Bold Italic';letter-spacing:0px;word-spacing:0px;fill:#ffffff;fill-opacity:1;stroke:none;stroke-width:0.12819305"
         id="path905" />
      <path
         inkscape:connector-curvature="0"
         d="m 25.089158,296.1822 h -2.240814 l 0.753774,-3.76887 h 0.866586 l -0.579433,2.90229 h 1.37423 z"
         style="font-style:italic;font-variant:normal;font-weight:bold;font-stretch:normal;font-size:medium;line-height:1.25;font-family:'The Bold Font';-inkscape-font-specification:'The Bold Font Bold Italic';letter-spacing:0px;word-spacing:0px;fill:#ffffff;fill-opacity:1;stroke:none;stroke-width:0.12819305"
         id="path907" />
    </g>
    <path
       style="opacity:1;vector-effect:none;fill:#c25d02;fill-opacity:1;stroke:none;stroke-width:1.52572179;stroke-linecap:round;stroke-linejoin:miter;stroke-miterlimit:4;stroke-dasharray:none;stroke-dashoffset:0;stroke-opacity:1"
       d="m 1.5162421,288.53567 -0.9276093,1.60668 H 0.42644119 l -0.3947805,-0.38266 0.18826398,0.51911 -0.18826398,0.51914 0.39470121,-0.38266 h 0.16229613 l 0.92758407,1.60666 h 2.012807 0.9008441 l -2.012807,3.48632 -0.5750913,0.99606 -0.287534,0.49802 h 0.575067 0.5751157 2.875407 l 1.4377156,-2.4902 h 2.8754269 l 1.7252729,-2.98823 -1.7252729,-2.98824 H 7.1777711 6.4426749 3.5290491 Z m 0.1867747,0.64743 h 0.3735194 l 0.1867702,0.32349 -0.1867702,0.32349 H 1.7030168 l -0.1867747,-0.32349 z m 2.0581284,0.34864 h 0.4313225 0.4313018 1.4535679 1.9380173 1.3027461 l 1.1501582,1.99217 -1.1501582,1.99216 h -1.99018 -0.3101546 -0.575067 l -1.4377399,2.4902 H 3.2797349 l 2.0127826,-3.48624 0.2875583,-0.49809 h 2.3003148 0.2875583 0.287533 l 0.2875583,-0.49803 -0.2875583,-0.49804 H 8.1679489 8.0153547 6.0773374 4.6237695 4.1924677 3.7611452 L 3.3298433,290.2788 Z m -2.0581284,1.19579 h 0.3735194 l 0.1867702,0.32348 -0.1867702,0.32346 H 1.7030168 l -0.1867747,-0.32346 z"
       id="path1865-0-4-4-3-5"
       inkscape:connector-curvature="0" />
  </g>
</svg>
