<?xml version="1.0" encoding="UTF-8" standalone="no"?>
<!-- Created with Inkscape (http://www.inkscape.org/) -->

<svg
   xmlns:dc="http://purl.org/dc/elements/1.1/"
   xmlns:cc="http://creativecommons.org/ns#"
   xmlns:rdf="http://www.w3.org/1999/02/22-rdf-syntax-ns#"
   xmlns:svg="http://www.w3.org/2000/svg"
   xmlns="http://www.w3.org/2000/svg"
   xmlns:sodipodi="http://sodipodi.sourceforge.net/DTD/sodipodi-0.dtd"
   xmlns:inkscape="http://www.inkscape.org/namespaces/inkscape"
   width="1200"
   height="300"
   viewBox="0 0 317.49999 79.375002"
   version="1.1"
   id="svg8"
   inkscape:version="0.92.3 (2405546, 2018-03-11)"
   sodipodi:docname="steps.svg">
  <defs
     id="defs2">
    <clipPath
       id="clip1-1">
      <path
         inkscape:connector-curvature="0"
         d="m 368,352 h 58.23828 v 64 H 368 Z m 0,0"
         id="path2-9" />
    </clipPath>
    <clipPath
       id="clip2-9">
      <path
         inkscape:connector-curvature="0"
         d="m 161,446 h 8 v 9.23828 h -8 z m 0,0"
         id="path5-6" />
    </clipPath>
    <clipPath
       id="clip3-7">
      <path
         inkscape:connector-curvature="0"
         d="m 198,446 h 7 v 9.23828 h -7 z m 0,0"
         id="path8-5" />
    </clipPath>
    <clipPath
       id="clip4-0">
      <path
         inkscape:connector-curvature="0"
         d="m 245,446 h 7 v 9.23828 h -7 z m 0,0"
         id="path11-5" />
    </clipPath>
  </defs>
  <sodipodi:namedview
     id="base"
     pagecolor="#ffffff"
     bordercolor="#666666"
     borderopacity="1.0"
     inkscape:pageopacity="0.0"
     inkscape:pageshadow="2"
     inkscape:zoom="0.7"
     inkscape:cx="625.60767"
     inkscape:cy="4.8541788"
     inkscape:document-units="mm"
     inkscape:current-layer="layer1"
     showgrid="false"
     inkscape:snap-bbox="true"
     inkscape:bbox-paths="true"
     inkscape:bbox-nodes="true"
     inkscape:snap-bbox-edge-midpoints="true"
     inkscape:snap-bbox-midpoints="true"
     units="px"
     inkscape:window-width="1918"
     inkscape:window-height="1528"
     inkscape:window-x="1913"
     inkscape:window-y="0"
     inkscape:window-maximized="0" />
  <metadata
     id="metadata5">
    <rdf:RDF>
      <cc:Work
         rdf:about="">
        <dc:format>image/svg+xml</dc:format>
        <dc:type
           rdf:resource="http://purl.org/dc/dcmitype/StillImage" />
        <dc:title></dc:title>
      </cc:Work>
    </rdf:RDF>
  </metadata>
  <g
     inkscape:label="Layer 1"
     inkscape:groupmode="layer"
     id="layer1"
     transform="translate(0,-217.62498)">
    <g
       id="g2052"
       transform="matrix(2.2182884,0,0,2.2182884,33.682531,57.675362)">
      <g
         transform="translate(-115.6096,25.614768)"
         id="g1442">
        <g
           aria-label="Results and conclusions"
           style="font-style:normal;font-weight:normal;font-size:3.32980871px;line-height:1.25;font-family:sans-serif;letter-spacing:0px;word-spacing:0px;fill:#000000;fill-opacity:1;stroke:none;stroke-width:0.08324522"
           id="text817-2">
          <path
             inkscape:connector-curvature="0"
             d="m 206.31391,81.576225 h -0.41786 l -0.80969,-0.962523 h -0.45362 v 0.962523 h -0.32192 v -2.42094 h 0.67799 q 0.2195,0 0.36583,0.02927 0.14632,0.02764 0.26339,0.100805 0.13169,0.08292 0.20486,0.209739 0.0748,0.125193 0.0748,0.318673 0,0.261767 -0.1317,0.438988 -0.13169,0.175596 -0.36257,0.265019 z m -0.75279,-1.739695 q 0,-0.104056 -0.0374,-0.183724 -0.0358,-0.08129 -0.12032,-0.136575 -0.0699,-0.04715 -0.16584,-0.06504 -0.0959,-0.01951 -0.226,-0.01951 h -0.37883 v 0.913747 h 0.32518 q 0.15283,0 0.26664,-0.02601 0.11382,-0.02764 0.19348,-0.100805 0.0732,-0.06829 0.10731,-0.156085 0.0358,-0.08942 0.0358,-0.225998 z"
             style="stroke-width:0.08324522"
             id="path2217" />
          <path
             inkscape:connector-curvature="0"
             d="m 208.04385,80.699874 h -1.33811 q 0,0.167466 0.0504,0.292659 0.0504,0.123567 0.1382,0.203236 0.0845,0.07804 0.19998,0.117063 0.11706,0.03902 0.25689,0.03902 0.18535,0 0.37233,-0.07316 0.1886,-0.07479 0.26827,-0.14633 h 0.0163 v 0.333306 q -0.15446,0.06504 -0.31542,0.108934 -0.16097,0.0439 -0.33819,0.0439 -0.45199,0 -0.70563,-0.243882 -0.25364,-0.245509 -0.25364,-0.695878 0,-0.445492 0.24226,-0.707259 0.24388,-0.261768 0.64059,-0.261768 0.36745,0 0.56581,0.214617 0.19999,0.214617 0.19999,0.609706 z m -0.29754,-0.234127 q -0.002,-0.240631 -0.12194,-0.372327 -0.11869,-0.131697 -0.36257,-0.131697 -0.24551,0 -0.39184,0.144704 -0.14471,0.144704 -0.16422,0.35932 z"
             style="stroke-width:0.08324522"
             id="path2219" />
          <path
             inkscape:connector-curvature="0"
             d="m 209.80468,81.052691 q 0,0.24876 -0.20649,0.408097 -0.20486,0.159336 -0.56093,0.159336 -0.20161,0 -0.3707,-0.04715 -0.16747,-0.04878 -0.28128,-0.105683 V 81.12423 h 0.0163 q 0.1447,0.108934 0.32193,0.173969 0.17722,0.06341 0.3398,0.06341 0.20161,0 0.31543,-0.06504 0.11381,-0.06503 0.11381,-0.204861 0,-0.107308 -0.0618,-0.162588 -0.0618,-0.05528 -0.23737,-0.0943 -0.065,-0.01463 -0.17072,-0.03414 -0.10406,-0.01951 -0.19023,-0.04227 -0.23901,-0.06341 -0.33981,-0.185351 -0.0992,-0.123567 -0.0992,-0.302414 0,-0.112186 0.0455,-0.211365 0.0471,-0.09918 0.14145,-0.177221 0.091,-0.07642 0.23087,-0.120315 0.14145,-0.04552 0.31542,-0.04552 0.16259,0 0.32843,0.04065 0.16747,0.03902 0.27803,0.09593 v 0.326803 h -0.0163 q -0.11706,-0.08617 -0.28453,-0.144704 -0.16747,-0.06016 -0.32843,-0.06016 -0.16746,0 -0.2829,0.06504 -0.11544,0.06341 -0.11544,0.190228 0,0.112186 0.0699,0.169092 0.0683,0.05691 0.22112,0.09267 0.0846,0.01951 0.18861,0.03902 0.10568,0.01951 0.17559,0.03577 0.21299,0.04878 0.32843,0.167466 0.11544,0.120315 0.11544,0.318673 z"
             style="stroke-width:0.08324522"
             id="path2221" />
          <path
             inkscape:connector-curvature="0"
             d="m 211.74923,81.576225 h -0.30566 v -0.201609 q -0.15446,0.121941 -0.29591,0.186976 -0.14146,0.06504 -0.31217,0.06504 -0.28616,0 -0.44549,-0.17397 -0.15934,-0.175595 -0.15934,-0.513779 v -1.178765 h 0.30566 v 1.034061 q 0,0.138201 0.013,0.237379 0.013,0.09755 0.0553,0.167466 0.0439,0.07154 0.11381,0.104057 0.0699,0.03252 0.20324,0.03252 0.11869,0 0.25851,-0.06178 0.14146,-0.06178 0.2634,-0.157711 v -1.355986 h 0.30566 z"
             style="stroke-width:0.08324522"
             id="path2223" />
          <path
             inkscape:connector-curvature="0"
             d="m 212.65973,81.576225 h -0.30567 v -2.529874 h 0.30567 z"
             style="stroke-width:0.08324522"
             id="path2225" />
          <path
             inkscape:connector-curvature="0"
             d="m 214.21082,81.559966 q -0.0862,0.02276 -0.1886,0.0374 -0.10081,0.01463 -0.18047,0.01463 -0.27803,0 -0.42273,-0.149582 -0.14471,-0.149581 -0.14471,-0.479635 v -0.965775 h -0.20649 v -0.256889 h 0.20649 v -0.521909 h 0.30567 v 0.521909 h 0.63084 v 0.256889 h -0.63084 v 0.827575 q 0,0.143078 0.006,0.224372 0.007,0.07967 0.0455,0.149581 0.0358,0.06503 0.0975,0.09593 0.0634,0.02927 0.19185,0.02927 0.0748,0 0.15609,-0.02114 0.0813,-0.02276 0.11706,-0.0374 h 0.0163 z"
             style="stroke-width:0.08324522"
             id="path2227" />
          <path
             inkscape:connector-curvature="0"
             d="m 215.87898,81.052691 q 0,0.24876 -0.20649,0.408097 -0.20486,0.159336 -0.56093,0.159336 -0.20161,0 -0.3707,-0.04715 -0.16747,-0.04878 -0.28128,-0.105683 V 81.12423 h 0.0163 q 0.1447,0.108934 0.32192,0.173969 0.17723,0.06341 0.33981,0.06341 0.20161,0 0.31543,-0.06504 0.11381,-0.06503 0.11381,-0.204861 0,-0.107308 -0.0618,-0.162588 -0.0618,-0.05528 -0.23737,-0.0943 -0.065,-0.01463 -0.17072,-0.03414 -0.10406,-0.01951 -0.19023,-0.04227 -0.23901,-0.06341 -0.33981,-0.185351 -0.0992,-0.123567 -0.0992,-0.302414 0,-0.112186 0.0455,-0.211365 0.0472,-0.09918 0.14145,-0.177221 0.0911,-0.07642 0.23087,-0.120315 0.14145,-0.04552 0.31542,-0.04552 0.16259,0 0.32843,0.04065 0.16747,0.03902 0.27803,0.09593 v 0.326803 h -0.0163 q -0.11706,-0.08617 -0.28453,-0.144704 -0.16747,-0.06016 -0.32843,-0.06016 -0.16746,0 -0.2829,0.06504 -0.11544,0.06341 -0.11544,0.190228 0,0.112186 0.0699,0.169092 0.0683,0.05691 0.22112,0.09267 0.0846,0.01951 0.18861,0.03902 0.10568,0.01951 0.17559,0.03577 0.21299,0.04878 0.32843,0.167466 0.11544,0.120315 0.11544,0.318673 z"
             style="stroke-width:0.08324522"
             id="path2229" />
          <path
             inkscape:connector-curvature="0"
             d="m 218.89987,81.576225 h -0.30404 v -0.19348 q -0.0406,0.02764 -0.11056,0.07804 -0.0683,0.04878 -0.13332,0.07804 -0.0764,0.03739 -0.1756,0.06178 -0.0992,0.02601 -0.2325,0.02601 -0.24551,0 -0.41623,-0.162589 -0.17072,-0.162588 -0.17072,-0.4146 0,-0.206487 0.0878,-0.333306 0.0894,-0.128445 0.25364,-0.201609 0.16584,-0.07316 0.39834,-0.09918 0.2325,-0.02601 0.49915,-0.03902 v -0.04715 q 0,-0.104057 -0.0374,-0.172344 -0.0358,-0.06829 -0.10405,-0.107308 -0.065,-0.0374 -0.15609,-0.0504 -0.091,-0.01301 -0.19023,-0.01301 -0.12031,0 -0.26827,0.03252 -0.14795,0.03089 -0.30566,0.09105 h -0.0163 v -0.310544 q 0.0894,-0.02439 0.25851,-0.05365 0.16909,-0.02927 0.33331,-0.02927 0.19185,0 0.3333,0.03252 0.14308,0.03089 0.24714,0.107308 0.10243,0.07479 0.15608,0.19348 0.0537,0.118689 0.0537,0.294285 z m -0.30404,-0.447118 v -0.505649 q -0.13983,0.0081 -0.33006,0.02439 -0.1886,0.01626 -0.29916,0.04715 -0.1317,0.0374 -0.21299,0.117063 -0.0813,0.07804 -0.0813,0.216243 0,0.156084 0.0943,0.235753 0.0943,0.07804 0.28778,0.07804 0.16096,0 0.29428,-0.06178 0.13333,-0.06341 0.24714,-0.151208 z"
             style="stroke-width:0.08324522"
             id="path2231" />
          <path
             inkscape:connector-curvature="0"
             d="m 221.01026,81.576225 h -0.30566 v -1.034061 q 0,-0.125193 -0.0146,-0.234128 -0.0146,-0.11056 -0.0537,-0.172343 -0.0406,-0.06829 -0.11706,-0.100805 -0.0764,-0.03414 -0.19836,-0.03414 -0.12519,0 -0.26177,0.06178 -0.13657,0.06178 -0.26176,0.157711 v 1.355986 h -0.30567 v -1.816111 h 0.30567 v 0.201609 q 0.14307,-0.118689 0.29591,-0.18535 0.15283,-0.06666 0.31379,-0.06666 0.29429,0 0.44875,0.177222 0.15445,0.177221 0.15445,0.510527 z"
             style="stroke-width:0.08324522"
             id="path2233" />
          <path
             inkscape:connector-curvature="0"
             d="m 223.07188,81.576225 h -0.30566 v -0.190228 q -0.1317,0.113812 -0.27478,0.177221 -0.14307,0.06341 -0.31054,0.06341 -0.32518,0 -0.51703,-0.250386 -0.19023,-0.250386 -0.19023,-0.694252 0,-0.230876 0.065,-0.411349 0.0667,-0.180473 0.17884,-0.307292 0.11056,-0.123567 0.25689,-0.188602 0.14796,-0.06504 0.30567,-0.06504 0.14308,0 0.25364,0.03089 0.11056,0.02927 0.2325,0.09268 v -0.786928 h 0.30566 z m -0.30566,-0.447118 v -1.042191 q -0.12357,-0.05528 -0.22112,-0.07642 -0.0975,-0.02114 -0.21299,-0.02114 -0.25689,0 -0.39997,0.178847 -0.14308,0.178848 -0.14308,0.507276 0,0.323551 0.11056,0.492643 0.11056,0.167466 0.35445,0.167466 0.13007,0 0.26339,-0.05691 0.13332,-0.05853 0.24876,-0.149582 z"
             style="stroke-width:0.08324522"
             id="path2235" />
          <path
             inkscape:connector-curvature="0"
             d="m 226.18708,81.462413 q -0.15284,0.07317 -0.29104,0.113812 -0.13657,0.04065 -0.29103,0.04065 -0.19673,0 -0.36095,-0.05691 -0.16421,-0.05853 -0.28127,-0.175595 -0.11869,-0.117064 -0.18373,-0.295911 -0.065,-0.178847 -0.065,-0.417852 0,-0.445492 0.24388,-0.699129 0.24551,-0.253638 0.6471,-0.253638 0.15608,0 0.30567,0.0439 0.1512,0.0439 0.2764,0.107308 v 0.33981 h -0.0163 q -0.13983,-0.108935 -0.28941,-0.167466 -0.14796,-0.05853 -0.28941,-0.05853 -0.26014,0 -0.41135,0.175595 -0.14958,0.17397 -0.14958,0.512153 0,0.328429 0.14633,0.50565 0.14796,0.175595 0.4146,0.175595 0.0927,0 0.18861,-0.02439 0.0959,-0.02439 0.17234,-0.06341 0.0667,-0.03414 0.12519,-0.07154 0.0585,-0.03902 0.0927,-0.06666 h 0.0163 z"
             style="stroke-width:0.08324522"
             id="path2237" />
          <path
             inkscape:connector-curvature="0"
             d="m 228.12838,80.668982 q 0,0.443867 -0.22762,0.700756 -0.22763,0.25689 -0.60971,0.25689 -0.38533,0 -0.61296,-0.25689 -0.226,-0.256889 -0.226,-0.700756 0,-0.443866 0.226,-0.700755 0.22763,-0.258516 0.61296,-0.258516 0.38208,0 0.60971,0.258516 0.22762,0.256889 0.22762,0.700755 z m -0.31542,0 q 0,-0.352816 -0.1382,-0.523534 -0.1382,-0.172344 -0.38371,-0.172344 -0.24876,0 -0.38696,0.172344 -0.13657,0.170718 -0.13657,0.523534 0,0.341436 0.1382,0.518657 0.1382,0.175596 0.38533,0.175596 0.24388,0 0.38208,-0.17397 0.13983,-0.175595 0.13983,-0.520283 z"
             style="stroke-width:0.08324522"
             id="path2239" />
          <path
             inkscape:connector-curvature="0"
             d="m 230.12171,81.576225 h -0.30566 v -1.034061 q 0,-0.125193 -0.0146,-0.234128 -0.0146,-0.11056 -0.0537,-0.172343 -0.0406,-0.06829 -0.11706,-0.100805 -0.0764,-0.03414 -0.19836,-0.03414 -0.1252,0 -0.26177,0.06178 -0.13657,0.06178 -0.26177,0.157711 v 1.355986 h -0.30566 v -1.816111 h 0.30566 v 0.201609 q 0.14308,-0.118689 0.29591,-0.18535 0.15284,-0.06666 0.3138,-0.06666 0.29428,0 0.44874,0.177222 0.15446,0.177221 0.15446,0.510527 z"
             style="stroke-width:0.08324522"
             id="path2241" />
          <path
             inkscape:connector-curvature="0"
             d="m 232.05326,81.462413 q -0.15283,0.07317 -0.29103,0.113812 -0.13657,0.04065 -0.29103,0.04065 -0.19674,0 -0.36095,-0.05691 -0.16421,-0.05853 -0.28128,-0.175595 -0.11869,-0.117064 -0.18372,-0.295911 -0.065,-0.178847 -0.065,-0.417852 0,-0.445492 0.24388,-0.699129 0.24551,-0.253638 0.64711,-0.253638 0.15608,0 0.30566,0.0439 0.15121,0.0439 0.2764,0.107308 v 0.33981 h -0.0163 q -0.13982,-0.108935 -0.2894,-0.167466 -0.14796,-0.05853 -0.28941,-0.05853 -0.26014,0 -0.41135,0.175595 -0.14958,0.17397 -0.14958,0.512153 0,0.328429 0.14633,0.50565 0.14795,0.175595 0.4146,0.175595 0.0927,0 0.1886,-0.02439 0.0959,-0.02439 0.17235,-0.06341 0.0667,-0.03414 0.12519,-0.07154 0.0585,-0.03902 0.0927,-0.06666 h 0.0163 z"
             style="stroke-width:0.08324522"
             id="path2243" />
          <path
             inkscape:connector-curvature="0"
             d="m 232.75564,81.576225 h -0.30566 v -2.529874 h 0.30566 z"
             style="stroke-width:0.08324522"
             id="path2245" />
          <path
             inkscape:connector-curvature="0"
             d="m 234.86929,81.576225 h -0.30566 v -0.201609 q -0.15446,0.121941 -0.29592,0.186976 -0.14145,0.06504 -0.31217,0.06504 -0.28615,0 -0.44549,-0.17397 -0.15933,-0.175595 -0.15933,-0.513779 v -1.178765 h 0.30566 v 1.034061 q 0,0.138201 0.013,0.237379 0.013,0.09755 0.0553,0.167466 0.0439,0.07154 0.11381,0.104057 0.0699,0.03252 0.20324,0.03252 0.11869,0 0.25851,-0.06178 0.14145,-0.06178 0.2634,-0.157711 v -1.355986 h 0.30566 z"
             style="stroke-width:0.08324522"
             id="path2247" />
          <path
             inkscape:connector-curvature="0"
             d="m 236.76832,81.052691 q 0,0.24876 -0.20648,0.408097 -0.20487,0.159336 -0.56093,0.159336 -0.20161,0 -0.3707,-0.04715 -0.16747,-0.04878 -0.28128,-0.105683 V 81.12423 h 0.0163 q 0.1447,0.108934 0.32192,0.173969 0.17722,0.06341 0.33981,0.06341 0.20161,0 0.31542,-0.06504 0.11381,-0.06503 0.11381,-0.204861 0,-0.107308 -0.0618,-0.162588 -0.0618,-0.05528 -0.23738,-0.0943 -0.065,-0.01463 -0.17072,-0.03414 -0.10405,-0.01951 -0.19022,-0.04227 -0.23901,-0.06341 -0.33981,-0.185351 -0.0992,-0.123567 -0.0992,-0.302414 0,-0.112186 0.0455,-0.211365 0.0471,-0.09918 0.14145,-0.177221 0.091,-0.07642 0.23088,-0.120315 0.14145,-0.04552 0.31542,-0.04552 0.16259,0 0.32843,0.04065 0.16746,0.03902 0.27802,0.09593 v 0.326803 h -0.0162 q -0.11707,-0.08617 -0.28453,-0.144704 -0.16747,-0.06016 -0.32843,-0.06016 -0.16747,0 -0.28291,0.06504 -0.11543,0.06341 -0.11543,0.190228 0,0.112186 0.0699,0.169092 0.0683,0.05691 0.22112,0.09267 0.0846,0.01951 0.1886,0.03902 0.10568,0.01951 0.1756,0.03577 0.21299,0.04878 0.32843,0.167466 0.11543,0.120315 0.11543,0.318673 z"
             style="stroke-width:0.08324522"
             id="path2249" />
          <path
             inkscape:connector-curvature="0"
             d="m 237.53574,79.456074 h -0.34469 v -0.317048 h 0.34469 z m -0.0195,2.120151 h -0.30567 v -1.816111 h 0.30567 z"
             style="stroke-width:0.08324522"
             id="path2251" />
          <path
             inkscape:connector-curvature="0"
             d="m 239.67215,80.668982 q 0,0.443867 -0.22762,0.700756 -0.22763,0.25689 -0.60971,0.25689 -0.38533,0 -0.61296,-0.25689 -0.226,-0.256889 -0.226,-0.700756 0,-0.443866 0.226,-0.700755 0.22763,-0.258516 0.61296,-0.258516 0.38208,0 0.60971,0.258516 0.22762,0.256889 0.22762,0.700755 z m -0.31542,0 q 0,-0.352816 -0.1382,-0.523534 -0.1382,-0.172344 -0.38371,-0.172344 -0.24876,0 -0.38696,0.172344 -0.13657,0.170718 -0.13657,0.523534 0,0.341436 0.1382,0.518657 0.1382,0.175596 0.38533,0.175596 0.24388,0 0.38208,-0.17397 0.13983,-0.175595 0.13983,-0.520283 z"
             style="stroke-width:0.08324522"
             id="path2253" />
          <path
             inkscape:connector-curvature="0"
             d="m 241.66548,81.576225 h -0.30566 v -1.034061 q 0,-0.125193 -0.0146,-0.234128 -0.0146,-0.11056 -0.0537,-0.172343 -0.0406,-0.06829 -0.11706,-0.100805 -0.0764,-0.03414 -0.19836,-0.03414 -0.1252,0 -0.26177,0.06178 -0.13657,0.06178 -0.26177,0.157711 v 1.355986 h -0.30566 v -1.816111 h 0.30566 v 0.201609 q 0.14308,-0.118689 0.29591,-0.18535 0.15284,-0.06666 0.3138,-0.06666 0.29428,0 0.44874,0.177222 0.15446,0.177221 0.15446,0.510527 z"
             style="stroke-width:0.08324522"
             id="path2255" />
          <path
             inkscape:connector-curvature="0"
             d="m 243.55151,81.052691 q 0,0.24876 -0.20649,0.408097 -0.20486,0.159336 -0.56093,0.159336 -0.20161,0 -0.3707,-0.04715 -0.16746,-0.04878 -0.28128,-0.105683 V 81.12423 h 0.0163 q 0.14471,0.108934 0.32193,0.173969 0.17722,0.06341 0.33981,0.06341 0.20161,0 0.31542,-0.06504 0.11381,-0.06503 0.11381,-0.204861 0,-0.107308 -0.0618,-0.162588 -0.0618,-0.05528 -0.23738,-0.0943 -0.065,-0.01463 -0.17072,-0.03414 -0.10406,-0.01951 -0.19023,-0.04227 -0.239,-0.06341 -0.33981,-0.185351 -0.0992,-0.123567 -0.0992,-0.302414 0,-0.112186 0.0455,-0.211365 0.0472,-0.09918 0.14145,-0.177221 0.091,-0.07642 0.23087,-0.120315 0.14146,-0.04552 0.31543,-0.04552 0.16258,0 0.32842,0.04065 0.16747,0.03902 0.27803,0.09593 v 0.326803 h -0.0163 q -0.11706,-0.08617 -0.28453,-0.144704 -0.16746,-0.06016 -0.32843,-0.06016 -0.16746,0 -0.2829,0.06504 -0.11544,0.06341 -0.11544,0.190228 0,0.112186 0.0699,0.169092 0.0683,0.05691 0.22112,0.09267 0.0845,0.01951 0.1886,0.03902 0.10568,0.01951 0.17559,0.03577 0.21299,0.04878 0.32843,0.167466 0.11544,0.120315 0.11544,0.318673 z"
             style="stroke-width:0.08324522"
             id="path2257" />
        </g>
        <path
           id="path90"
           d="m 216.933,68.209438 c 0.38999,0 0.70142,0.30868 0.70142,0.694531 0,0.388606 -0.31143,0.700045 -0.70142,0.700045 -0.38171,0 -0.69453,-0.311439 -0.69453,-0.700045 0,-0.385851 0.31282,-0.694531 0.69453,-0.694531 z m 0,1.791451 c 0.38999,0 0.70142,0.312815 0.70142,0.697287 0,0.388605 -0.31143,0.697286 -0.70142,0.697286 -0.38171,0 -0.69453,-0.308681 -0.69453,-0.697286 0,-0.384472 0.31282,-0.697287 0.69453,-0.697287 z m 1.85209,2.973804 v -1.218184 c 0,-2.706469 -1.14791,-4.343576 -1.62471,-4.909951 -0.0537,-0.06063 -0.12953,-0.09646 -0.21084,-0.09646 -0.0799,0 -0.1571,0.03171 -0.20533,0.09233 -0.4892,0.566374 -1.6564,2.203485 -1.6564,4.914085 v 1.218184 l -0.22738,0.14883 c -0.43132,0.289387 -0.69039,0.77997 -0.69039,1.300868 v 1.451074 c 0,0.08544 0.0482,0.165364 0.12126,0.205327 0.0772,0.04134 0.1695,0.03721 0.24254,-0.01101 l 0.7276,-0.485069 c 0.2012,-0.135047 0.44373,-0.209462 0.6904,-0.209462 h 0.0813 v 0.724849 c 0,0.16812 0.13367,0.300411 0.29765,0.300411 h 1.20579 c 0.16536,0 0.29903,-0.132291 0.29903,-0.300411 v -0.72485 h 0.0841 c 0.24805,0 0.48507,0.07166 0.69177,0.209462 l 0.72761,0.485069 c 0.0675,0.04823 0.16123,0.05237 0.2384,0.01101 0.0772,-0.03996 0.1254,-0.119888 0.1254,-0.205327 v -1.451074 c 0,-0.520898 -0.2632,-1.005967 -0.69591,-1.300868 l -0.22186,-0.14883"
           style="fill:#211e1e;fill-opacity:1;fill-rule:evenodd;stroke:none;stroke-width:0.35277778"
           inkscape:connector-curvature="0" />
        <path
           id="path144"
           d="m 228.92427,70.771912 1.85209,1.233343 1.79971,-3.144682 0.52228,0.297656 -0.011,-1.803852 -1.55442,0.912259 0.51676,0.29628 -1.47312,2.583822 -1.76803,-1.1796 -1.38492,1.661911 -0.0593,0.07304 -1.74322,2.09186 0.46164,0.389985 1.71566,-2.057411 0.073,-0.08819 0.0827,-0.101974 z m -4.27881,5.025704 v -1.203029 h 0.60496 V 73.98825 h -0.60496 v -1.204404 h 0.60496 v -0.604957 h -0.60496 v -1.207164 h 0.60496 v -0.599447 h -0.60496 v -1.208539 h 0.60496 v -0.600823 h -0.60496 v -1.208539 h 0.60496 v -0.603581 h -1.2044 v 9.649022 h 9.64626 v -0.602202 h -9.04682"
           style="fill:#211e1e;fill-opacity:1;fill-rule:evenodd;stroke:none;stroke-width:0.35277778"
           inkscape:connector-curvature="0" />
      </g>
      <g
         transform="translate(-68.573757,5.2028326)"
         id="g1434">
        <g
           aria-label="Data analysis"
           style="font-style:normal;font-weight:normal;font-size:3.32980871px;line-height:1.25;font-family:sans-serif;letter-spacing:0px;word-spacing:0px;fill:#000000;fill-opacity:1;stroke:none;stroke-width:0.08324522"
           id="text817-9">
          <path
             inkscape:connector-curvature="0"
             d="m 167.26547,81.040916 q 0,0.330054 -0.14471,0.598325 -0.14308,0.268271 -0.38208,0.416226 -0.16584,0.102431 -0.3707,0.147955 -0.20324,0.04552 -0.53654,0.04552 h -0.61134 v -2.42094 h 0.60483 q 0.35445,0 0.56256,0.05203 0.20974,0.0504 0.35444,0.139826 0.24714,0.154459 0.38534,0.411349 0.1382,0.256889 0.1382,0.609706 z m -0.33656,-0.0049 q 0,-0.284529 -0.0992,-0.479635 -0.0992,-0.195106 -0.29591,-0.307292 -0.14308,-0.08129 -0.30404,-0.112186 -0.16096,-0.03252 -0.38534,-0.03252 h -0.30241 v 1.86814 h 0.30241 q 0.23251,0 0.40485,-0.03414 0.17397,-0.03414 0.31867,-0.126818 0.18047,-0.115438 0.2699,-0.304041 0.091,-0.188602 0.091,-0.471506 z"
             style="stroke-width:0.08324522"
             id="path2260" />
          <path
             inkscape:connector-curvature="0"
             d="m 169.17588,82.248947 h -0.30404 v -0.19348 q -0.0406,0.02764 -0.11056,0.07804 -0.0683,0.04878 -0.13332,0.07804 -0.0764,0.0374 -0.1756,0.06178 -0.0992,0.02602 -0.2325,0.02602 -0.24551,0 -0.41623,-0.162589 -0.17071,-0.162588 -0.17071,-0.4146 0,-0.206487 0.0878,-0.333306 0.0894,-0.128445 0.25364,-0.20161 0.16584,-0.07316 0.39834,-0.09918 0.2325,-0.02602 0.49915,-0.03902 v -0.04715 q 0,-0.104057 -0.0374,-0.172344 -0.0358,-0.06829 -0.10405,-0.107308 -0.065,-0.0374 -0.15609,-0.0504 -0.091,-0.01301 -0.19023,-0.01301 -0.12031,0 -0.26827,0.03252 -0.14795,0.03089 -0.30566,0.09105 h -0.0163 v -0.310544 q 0.0894,-0.02439 0.25851,-0.05365 0.16909,-0.02927 0.33331,-0.02927 0.19185,0 0.33331,0.03252 0.14307,0.03089 0.24713,0.107309 0.10243,0.07479 0.15608,0.19348 0.0537,0.118689 0.0537,0.294285 z m -0.30404,-0.447118 V 81.29618 q -0.13983,0.0081 -0.33006,0.02439 -0.1886,0.01626 -0.29916,0.04715 -0.1317,0.0374 -0.21299,0.117064 -0.0813,0.07804 -0.0813,0.216243 0,0.156084 0.0943,0.235753 0.0943,0.07804 0.28778,0.07804 0.16096,0 0.29428,-0.06178 0.13333,-0.06341 0.24714,-0.151207 z"
             style="stroke-width:0.08324522"
             id="path2262" />
          <path
             inkscape:connector-curvature="0"
             d="m 170.71071,82.232688 q -0.0862,0.02276 -0.1886,0.0374 -0.10081,0.01463 -0.18047,0.01463 -0.27803,0 -0.42273,-0.149582 -0.14471,-0.149581 -0.14471,-0.479635 v -0.965775 h -0.20648 v -0.256889 h 0.20648 v -0.521909 h 0.30567 v 0.521909 h 0.63084 v 0.256889 h -0.63084 V 81.5173 q 0,0.143077 0.006,0.224372 0.007,0.07967 0.0455,0.149581 0.0358,0.06503 0.0976,0.09593 0.0634,0.02927 0.19185,0.02927 0.0748,0 0.15609,-0.02114 0.0813,-0.02276 0.11706,-0.0374 h 0.0163 z"
             style="stroke-width:0.08324522"
             id="path2264" />
          <path
             inkscape:connector-curvature="0"
             d="m 172.49268,82.248947 h -0.30404 v -0.19348 q -0.0406,0.02764 -0.11056,0.07804 -0.0683,0.04878 -0.13332,0.07804 -0.0764,0.0374 -0.1756,0.06178 -0.0992,0.02602 -0.2325,0.02602 -0.24551,0 -0.41623,-0.162589 -0.17071,-0.162588 -0.17071,-0.4146 0,-0.206487 0.0878,-0.333306 0.0894,-0.128445 0.25364,-0.20161 0.16584,-0.07316 0.39834,-0.09918 0.2325,-0.02602 0.49915,-0.03902 v -0.04715 q 0,-0.104057 -0.0374,-0.172344 -0.0358,-0.06829 -0.10405,-0.107308 -0.065,-0.0374 -0.15609,-0.0504 -0.091,-0.01301 -0.19023,-0.01301 -0.12031,0 -0.26827,0.03252 -0.14795,0.03089 -0.30566,0.09105 h -0.0163 v -0.310544 q 0.0894,-0.02439 0.25851,-0.05365 0.1691,-0.02927 0.33331,-0.02927 0.19185,0 0.33331,0.03252 0.14307,0.03089 0.24713,0.107309 0.10243,0.07479 0.15609,0.19348 0.0537,0.118689 0.0537,0.294285 z m -0.30404,-0.447118 V 81.29618 q -0.13983,0.0081 -0.33005,0.02439 -0.18861,0.01626 -0.29917,0.04715 -0.13169,0.0374 -0.21299,0.117064 -0.0813,0.07804 -0.0813,0.216243 0,0.156084 0.0943,0.235753 0.0943,0.07804 0.28778,0.07804 0.16096,0 0.29429,-0.06178 0.13332,-0.06341 0.24713,-0.151207 z"
             style="stroke-width:0.08324522"
             id="path2266" />
          <path
             inkscape:connector-curvature="0"
             d="m 175.6664,82.248947 h -0.30404 v -0.19348 q -0.0406,0.02764 -0.11056,0.07804 -0.0683,0.04878 -0.13332,0.07804 -0.0764,0.0374 -0.17559,0.06178 -0.0992,0.02602 -0.23251,0.02602 -0.2455,0 -0.41622,-0.162589 -0.17072,-0.162588 -0.17072,-0.4146 0,-0.206487 0.0878,-0.333306 0.0894,-0.128445 0.25364,-0.20161 0.16584,-0.07316 0.39834,-0.09918 0.2325,-0.02602 0.49914,-0.03902 v -0.04715 q 0,-0.104057 -0.0374,-0.172344 -0.0358,-0.06829 -0.10406,-0.107308 -0.065,-0.0374 -0.15608,-0.0504 -0.091,-0.01301 -0.19023,-0.01301 -0.12032,0 -0.26827,0.03252 -0.14796,0.03089 -0.30567,0.09105 h -0.0163 v -0.310544 q 0.0894,-0.02439 0.25852,-0.05365 0.16909,-0.02927 0.3333,-0.02927 0.19186,0 0.33331,0.03252 0.14308,0.03089 0.24713,0.107309 0.10244,0.07479 0.15609,0.19348 0.0537,0.118689 0.0537,0.294285 z m -0.30404,-0.447118 V 81.29618 q -0.13982,0.0081 -0.33005,0.02439 -0.1886,0.01626 -0.29916,0.04715 -0.1317,0.0374 -0.21299,0.117064 -0.0813,0.07804 -0.0813,0.216243 0,0.156084 0.0943,0.235753 0.0943,0.07804 0.28778,0.07804 0.16097,0 0.29429,-0.06178 0.13332,-0.06341 0.24713,-0.151207 z"
             style="stroke-width:0.08324522"
             id="path2268" />
          <path
             inkscape:connector-curvature="0"
             d="m 177.7768,82.248947 h -0.30567 v -1.034062 q 0,-0.125193 -0.0146,-0.234127 -0.0146,-0.11056 -0.0537,-0.172343 -0.0406,-0.06829 -0.11707,-0.100805 -0.0764,-0.03414 -0.19835,-0.03414 -0.1252,0 -0.26177,0.06178 -0.13658,0.06178 -0.26177,0.157711 v 1.355986 h -0.30567 v -1.816111 h 0.30567 v 0.201609 q 0.14308,-0.118689 0.29591,-0.185351 0.15283,-0.06666 0.3138,-0.06666 0.29428,0 0.44874,0.177222 0.15446,0.177221 0.15446,0.510527 z"
             style="stroke-width:0.08324522"
             id="path2270" />
          <path
             inkscape:connector-curvature="0"
             d="m 179.77664,82.248947 h -0.30404 v -0.19348 q -0.0406,0.02764 -0.11056,0.07804 -0.0683,0.04878 -0.13333,0.07804 -0.0764,0.0374 -0.17559,0.06178 -0.0992,0.02602 -0.2325,0.02602 -0.24551,0 -0.41623,-0.162589 -0.17072,-0.162588 -0.17072,-0.4146 0,-0.206487 0.0878,-0.333306 0.0894,-0.128445 0.25364,-0.20161 0.16584,-0.07316 0.39834,-0.09918 0.2325,-0.02602 0.49915,-0.03902 v -0.04715 q 0,-0.104057 -0.0374,-0.172344 -0.0358,-0.06829 -0.10406,-0.107308 -0.065,-0.0374 -0.15608,-0.0504 -0.091,-0.01301 -0.19023,-0.01301 -0.12031,0 -0.26827,0.03252 -0.14796,0.03089 -0.30567,0.09105 h -0.0162 v -0.310544 q 0.0894,-0.02439 0.25851,-0.05365 0.16909,-0.02927 0.33331,-0.02927 0.19185,0 0.3333,0.03252 0.14308,0.03089 0.24714,0.107309 0.10243,0.07479 0.15608,0.19348 0.0537,0.118689 0.0537,0.294285 z M 179.4726,81.801829 V 81.29618 q -0.13983,0.0081 -0.33006,0.02439 -0.1886,0.01626 -0.29916,0.04715 -0.1317,0.0374 -0.21299,0.117064 -0.0813,0.07804 -0.0813,0.216243 0,0.156084 0.0943,0.235753 0.0943,0.07804 0.28778,0.07804 0.16096,0 0.29428,-0.06178 0.13332,-0.06341 0.24714,-0.151207 z"
             style="stroke-width:0.08324522"
             id="path2272" />
          <path
             inkscape:connector-curvature="0"
             d="m 180.67738,82.248947 h -0.30567 v -2.529874 h 0.30567 z"
             style="stroke-width:0.08324522"
             id="path2274" />
          <path
             inkscape:connector-curvature="0"
             d="m 182.85606,80.432836 -1.06008,2.485975 h -0.3268 l 0.33818,-0.757662 -0.72351,-1.728313 h 0.33168 l 0.55767,1.346231 0.56256,-1.346231 z"
             style="stroke-width:0.08324522"
             id="path2276" />
          <path
             inkscape:connector-curvature="0"
             d="m 184.55348,81.725413 q 0,0.24876 -0.20649,0.408096 -0.20486,0.159337 -0.56093,0.159337 -0.2016,0 -0.3707,-0.04715 -0.16746,-0.04878 -0.28127,-0.105682 v -0.343061 h 0.0163 q 0.14471,0.108934 0.32193,0.173969 0.17722,0.06341 0.33981,0.06341 0.20161,0 0.31542,-0.06504 0.11381,-0.06504 0.11381,-0.204861 0,-0.107308 -0.0618,-0.162588 -0.0618,-0.05528 -0.23738,-0.0943 -0.065,-0.01463 -0.17072,-0.03414 -0.10405,-0.01951 -0.19023,-0.04227 -0.239,-0.06341 -0.33981,-0.185351 -0.0992,-0.123567 -0.0992,-0.302414 0,-0.112186 0.0455,-0.211365 0.0472,-0.09918 0.14145,-0.177221 0.091,-0.07642 0.23088,-0.120315 0.14145,-0.04552 0.31542,-0.04552 0.16259,0 0.32843,0.04065 0.16746,0.03902 0.27802,0.09593 v 0.326803 h -0.0163 q -0.11706,-0.08617 -0.28453,-0.144704 -0.16746,-0.06016 -0.32842,-0.06016 -0.16747,0 -0.28291,0.06504 -0.11544,0.06341 -0.11544,0.190228 0,0.112186 0.0699,0.169092 0.0683,0.05691 0.22112,0.09267 0.0845,0.01951 0.1886,0.03902 0.10568,0.01951 0.1756,0.03577 0.21299,0.04878 0.32842,0.167466 0.11544,0.120315 0.11544,0.318673 z"
             style="stroke-width:0.08324522"
             id="path2278" />
          <path
             inkscape:connector-curvature="0"
             d="m 185.3209,80.128796 h -0.34469 v -0.317048 h 0.34469 z m -0.0195,2.120151 h -0.30567 v -1.816111 h 0.30567 z"
             style="stroke-width:0.08324522"
             id="path2280" />
          <path
             inkscape:connector-curvature="0"
             d="m 187.20692,81.725413 q 0,0.24876 -0.20649,0.408096 -0.20486,0.159337 -0.56092,0.159337 -0.20161,0 -0.37071,-0.04715 -0.16746,-0.04878 -0.28127,-0.105682 v -0.343061 h 0.0162 q 0.14471,0.108934 0.32193,0.173969 0.17722,0.06341 0.33981,0.06341 0.20161,0 0.31542,-0.06504 0.11381,-0.06504 0.11381,-0.204861 0,-0.107308 -0.0618,-0.162588 -0.0618,-0.05528 -0.23738,-0.0943 -0.065,-0.01463 -0.17072,-0.03414 -0.10405,-0.01951 -0.19023,-0.04227 -0.239,-0.06341 -0.33981,-0.185351 -0.0992,-0.123567 -0.0992,-0.302414 0,-0.112186 0.0455,-0.211365 0.0471,-0.09918 0.14145,-0.177221 0.091,-0.07642 0.23088,-0.120315 0.14145,-0.04552 0.31542,-0.04552 0.16259,0 0.32843,0.04065 0.16746,0.03902 0.27802,0.09593 v 0.326803 h -0.0163 q -0.11706,-0.08617 -0.28453,-0.144704 -0.16746,-0.06016 -0.32842,-0.06016 -0.16747,0 -0.28291,0.06504 -0.11544,0.06341 -0.11544,0.190228 0,0.112186 0.0699,0.169092 0.0683,0.05691 0.22112,0.09267 0.0845,0.01951 0.1886,0.03902 0.10568,0.01951 0.1756,0.03577 0.21299,0.04878 0.32842,0.167466 0.11544,0.120315 0.11544,0.318673 z"
             style="stroke-width:0.08324522"
             id="path2282" />
        </g>
        <g
           id="g1392"
           transform="translate(1.7000533,4.0241947)">
          <path
             inkscape:connector-curvature="0"
             style="fill:#211e1e;fill-opacity:1;fill-rule:evenodd;stroke:none;stroke-width:0.35277778"
             d="m 184.20514,68.719498 c -0.073,-0.0992 -1.81901,-2.47358 -4.06383,-2.47358 -2.24069,0 -3.98804,2.37436 -4.06108,2.47358 -0.0992,0.13367 -0.0992,0.32108 0,0.452 0.073,0.10197 1.82039,2.47771 4.06108,2.47771 2.24482,0 3.9908,-2.37574 4.06383,-2.47771 0.0978,-0.13092 0.0978,-0.31833 0,-0.452 z m -4.0969,-0.46027 c 0.38033,0 0.68763,0.30731 0.68763,0.68765 0,0.37896 -0.3073,0.68764 -0.68763,0.68764 -0.38034,0 -0.68765,-0.30868 -0.68765,-0.68764 0,-0.38034 0.30731,-0.68765 0.68765,-0.68765 z m -0.43271,-1.23747 c 0.15434,-0.04 0.31144,-0.0606 0.46578,-0.0606 0.42581,0 0.85989,0.15434 1.26917,0.36656 0.77033,0.36656 1.41387,0.97703 1.79421,1.39457 0.14056,0.14608 0.22599,0.2384 0.22599,0.2384 0,0 -1.24987,1.49656 -2.68855,1.85485 0.77997,-0.26321 1.34083,-0.99908 1.34083,-1.86862 0,-1.08728 -0.88745,-1.97336 -1.97472,-1.97336 -0.15021,0 -0.29766,0.0124 -0.43271,0.0482 z m -3.56636,1.07211 -0.97979,-0.69729 0.11576,-0.17088 0.98254,0.69592 z m 0.60082,-0.60634 -0.89297,-0.8847 0.14745,-0.14745 0.8916,0.88608 z m 0.60358,-0.45199 -0.72209,-0.96187 0.16674,-0.11989 0.72072,0.95498 z m 0.66422,-0.4396 -0.56638,-1.0666 0.18053,-0.1006 0.5705,1.06798 z m 0.68213,-0.38447 -0.38034,-1.13137 0.19568,-0.0634 0.38172,1.13137 z m 0.76067,-0.1819 -0.18879,-1.13137 0.20395,-0.0317 0.19017,1.12999 z m 1.01424,-0.0909 -0.20533,-0.011 0.0579,-1.12999 0.20533,0.008 z m 0.73863,0.19017 -0.19706,-0.0579 0.32659,-1.0542 0.2012,0.0634 z m 0.75792,0.22048 -0.18879,-0.0841 0.41892,-0.9412 0.18604,0.0827 z m 0.61047,0.29628 -0.17088,-0.12264 0.59669,-0.80891 0.16537,0.12264 z m 0.59118,0.43133 -0.16537,-0.1254 0.59256,-0.74966 0.16123,0.1323 z m 0.51676,0.42581 -0.14745,-0.14607 0.65319,-0.66146 0.15297,0.14469 z m 0.42857,0.41893 -0.12678,-0.16399 0.70142,-0.52779 0.12678,0.16123 z m -4.80935,2.80981 c -1.32016,-0.4575 -2.41294,-1.77078 -2.41294,-1.77078 0,0 0.0827,-0.0923 0.22875,-0.24115 0.38034,-0.41479 1.01561,-1.02251 1.77905,-1.38631 0.23977,-0.12678 0.48782,-0.23013 0.74276,-0.29765 -0.85025,0.22324 -1.47174,0.99494 -1.47174,1.91134 0,0.78961 0.46577,1.47312 1.13412,1.78455"
             id="path32" />
          <path
             inkscape:connector-curvature="0"
             style="fill:#211e1e;fill-opacity:1;fill-rule:evenodd;stroke:none;stroke-width:0.35277778"
             d="m 169.75516,71.431792 h -5.14284 c -0.10749,0 -0.19017,-0.03583 -0.25631,-0.107487 -0.0717,-0.06752 -0.10887,-0.157096 -0.10887,-0.257694 l 0.007,-1.623328 v -5.075315 c 0,-0.09784 0.0427,-0.187413 0.10887,-0.257694 0.0703,-0.06752 0.14882,-0.09784 0.25631,-0.09784 h 2.57969 v 0.635275 h -0.53744 c -0.0675,0 -0.15571,0.0303 -0.20532,0.08544 h -1.30914 c -0.0372,0 -0.0896,0.01101 -0.11989,0.05237 -0.0303,0.0303 -0.0482,0.06615 -0.0482,0.118508 v 4.714268 l -0.011,0.915018 c 0,0.04823 0.0221,0.08957 0.051,0.126781 0.0386,0.02893 0.0799,0.04961 0.12816,0.04961 h 4.35873 z m 1.7446,-7.063824 v 5.250324 l -0.0124,1.448319 c 0,0.07166 -0.0179,0.139181 -0.0482,0.190172 l -0.65319,-1.933388 c 0.14883,-0.137806 0.27699,-0.297656 0.37758,-0.476804 0.0786,-0.126778 0.13781,-0.276983 0.17914,-0.425813 l 0.007,-0.0083 c 0.22049,-0.753788 -0.0193,-1.547538 -0.57464,-2.064304 V 64.90399 c 0,-0.05236 -0.0179,-0.08819 -0.0482,-0.118509 -0.0413,-0.04134 -0.0799,-0.05237 -0.13091,-0.05237 h -1.31741 c -0.0496,-0.05512 -0.1378,-0.08544 -0.21635,-0.08544 h -0.53468 v -0.635286 h 2.60587 c 0.10887,0 0.18741,0.0303 0.25769,0.09784 0.0675,0.07028 0.10887,0.159855 0.10887,0.257694 z m -4.8383,0.338998 c -0.10886,0 -0.19705,0.05512 -0.19705,0.137802 0,0.07855 0,0.264584 0,0.264584 h 2.79466 c 0,0 0,-0.186034 0,-0.264584 0,-0.08268 -0.0882,-0.137802 -0.19706,-0.137802 h -0.59394 v -1.112075 c -0.61598,-0.436841 -1.20991,-0.01101 -1.20991,-0.01101 v 1.1231 z m 1.35875,2.713359 c 0.20808,-0.742763 0.99357,-1.179601 1.73495,-0.959115 0.74414,0.205327 1.1796,0.988053 0.95911,1.732192 -0.20532,0.742763 -0.98805,1.178225 -1.73081,0.96187 -0.74276,-0.209462 -1.1796,-0.992188 -0.96325,-1.734947 z m -2.42948,-0.24667 h 1.66054 c 0.0262,0 0.0482,0.01101 0.0648,0.02618 0.0179,0.0193 0.0289,0.04134 0.0289,0.06752 v 0.31695 c 0,0.02618 -0.011,0.04961 -0.0289,0.06339 -0.0165,0.01792 -0.0386,0.0303 -0.0648,0.0303 h -1.66054 c -0.0276,0 -0.0482,-0.01242 -0.0662,-0.0303 -0.0165,-0.01379 -0.0275,-0.03721 -0.0275,-0.06339 v -0.31695 c 0,-0.02618 0.011,-0.04823 0.0275,-0.06752 0.0179,-0.01517 0.0386,-0.02618 0.0662,-0.02618 z m 0,1.007347 h 1.66054 c 0.0262,0 0.0482,0.01242 0.0648,0.02618 0.0179,0.0193 0.0289,0.04134 0.0289,0.06753 v 0.318326 c 0,0.0248 -0.011,0.04686 -0.0289,0.06615 -0.0165,0.01517 -0.0386,0.02618 -0.0648,0.02618 h -1.66054 c -0.0276,0 -0.0482,-0.01101 -0.0662,-0.02618 -0.0165,-0.0193 -0.0275,-0.04134 -0.0275,-0.06615 v -0.318326 c 0,-0.02618 0.011,-0.04823 0.0275,-0.06753 0.0179,-0.01379 0.0386,-0.02618 0.0662,-0.02618 z m 0,1.007343 h 1.89618 c 0.0262,0 0.0482,0.01242 0.0675,0.03168 0.0152,0.01379 0.0262,0.03583 0.0262,0.06339 v 0.316946 c 0,0.02618 -0.011,0.05099 -0.0262,0.06752 -0.0193,0.01792 -0.0413,0.0248 -0.0675,0.0248 h -1.89618 c -0.0276,0 -0.0482,-0.0069 -0.0662,-0.0248 -0.0165,-0.01654 -0.0275,-0.04134 -0.0275,-0.06752 v -0.316946 c 0,-0.02755 0.011,-0.04961 0.0275,-0.06339 0.0179,-0.0193 0.0386,-0.03168 0.0662,-0.03168 z m 0,-3.02617 h 2.02985 c 0.0262,0 0.0496,0.01101 0.0634,0.0303 0.0193,0.01517 0.0303,0.03996 0.0303,0.06339 v 0.321084 c 0,0.02205 -0.011,0.04823 -0.0303,0.06339 -0.0138,0.0193 -0.0372,0.02618 -0.0634,0.02618 h -2.02985 c -0.0276,0 -0.0482,-0.0069 -0.0662,-0.02618 -0.0165,-0.01517 -0.0275,-0.04134 -0.0275,-0.06339 v -0.321084 c 0,-0.02342 0.011,-0.04823 0.0275,-0.06339 0.0179,-0.0193 0.0386,-0.0303 0.0662,-0.0303 z m 2.16076,0.742763 c -0.0772,0.126777 -0.13918,0.257693 -0.17501,0.395495 -0.23977,0.825447 0.0978,1.73633 0.88057,2.180057 0.12678,0.07855 0.25769,0.130913 0.3955,0.179145 0.16123,0.04134 0.31832,0.07028 0.47818,0.07028 l 0.97702,2.893882 c 0.0717,0.197058 0.23151,0.33486 0.41893,0.395495 0.11989,0.04134 0.24667,0.04134 0.3762,-0.01101 l 0.10887,-0.0303 c 0.19705,-0.06752 0.33624,-0.224621 0.39549,-0.414789 0.0303,-0.118512 0.0413,-0.257693 -0.008,-0.376206 l -0.98117,-2.903523 c 0.16812,-0.139185 0.30593,-0.305925 0.41479,-0.504363 0.0786,-0.130916 0.13781,-0.257693 0.17915,-0.395499 0.2384,-0.825443 -0.1006,-1.736326 -0.88057,-2.184188 -0.13229,-0.07855 -0.25769,-0.137806 -0.3955,-0.175013 -0.82544,-0.249425 -1.73632,0.09646 -2.18419,0.880568"
             id="path208" />
        </g>
      </g>
    </g>
    <g
       id="g2066"
       transform="matrix(2.2182884,0,0,2.2182884,14.145165,54.798976)">
      <g
         transform="translate(-75.446709,23.200231)"
         id="g1427">
        <g
           aria-label="Threats to validity"
           style="font-style:normal;font-weight:normal;font-size:3.32980871px;line-height:1.25;font-family:sans-serif;letter-spacing:0px;word-spacing:0px;fill:#000000;fill-opacity:1;stroke:none;stroke-width:0.08324522"
           id="text817-1">
          <path
             inkscape:connector-curvature="0"
             d="m 121.98152,81.855961 h -0.86497 v 2.134785 h -0.32192 v -2.134785 h -0.86497 v -0.286155 h 2.05186 z"
             style="stroke-width:0.08324522"
             id="path2145" />
          <path
             inkscape:connector-curvature="0"
             d="m 123.80414,83.990746 h -0.30567 v -1.034062 q 0,-0.125193 -0.0146,-0.234127 -0.0146,-0.11056 -0.0537,-0.172344 -0.0406,-0.06829 -0.11706,-0.100805 -0.0764,-0.03414 -0.19836,-0.03414 -0.12519,0 -0.26176,0.06178 -0.13658,0.06178 -0.26177,0.157711 v 1.355987 h -0.30567 v -2.529875 h 0.30567 v 0.915373 q 0.14308,-0.11869 0.29591,-0.185351 0.15283,-0.06666 0.31379,-0.06666 0.29429,0 0.44875,0.177221 0.15446,0.177221 0.15446,0.510527 z"
             style="stroke-width:0.08324522"
             id="path2147" />
          <path
             inkscape:connector-curvature="0"
             d="m 125.52595,82.50794 h -0.0163 q -0.0683,-0.01626 -0.13332,-0.02276 -0.0634,-0.0081 -0.15121,-0.0081 -0.14145,0 -0.27315,0.06341 -0.1317,0.06178 -0.25364,0.160962 v 1.289326 h -0.30566 v -1.816112 h 0.30566 v 0.268271 q 0.1821,-0.14633 0.3203,-0.206487 0.13983,-0.06178 0.28453,-0.06178 0.0797,0 0.11544,0.0049 0.0358,0.0033 0.10731,0.01463 z"
             style="stroke-width:0.08324522"
             id="path2149" />
          <path
             inkscape:connector-curvature="0"
             d="m 127.33718,83.114395 h -1.3381 q 0,0.167465 0.0504,0.292658 0.0504,0.123568 0.1382,0.203236 0.0845,0.07804 0.19998,0.117063 0.11707,0.03902 0.25689,0.03902 0.18536,0 0.37233,-0.07317 0.1886,-0.07479 0.26827,-0.14633 h 0.0163 v 0.333306 q -0.15446,0.06504 -0.31542,0.108935 -0.16096,0.0439 -0.33818,0.0439 -0.452,0 -0.70564,-0.243883 -0.25363,-0.245508 -0.25363,-0.695878 0,-0.445492 0.24225,-0.707259 0.24388,-0.261767 0.6406,-0.261767 0.36745,0 0.56581,0.214616 0.19998,0.214617 0.19998,0.609706 z m -0.29754,-0.234128 q -0.002,-0.24063 -0.12194,-0.372327 -0.11869,-0.131696 -0.36257,-0.131696 -0.24551,0 -0.39184,0.144703 -0.1447,0.144704 -0.16421,0.35932 z"
             style="stroke-width:0.08324522"
             id="path2151" />
          <path
             inkscape:connector-curvature="0"
             d="m 129.21182,83.990746 h -0.30404 v -0.193481 q -0.0406,0.02764 -0.11056,0.07804 -0.0683,0.04878 -0.13332,0.07804 -0.0764,0.0374 -0.17559,0.06178 -0.0992,0.02601 -0.23251,0.02601 -0.2455,0 -0.41622,-0.162588 -0.17072,-0.162589 -0.17072,-0.414601 0,-0.206487 0.0878,-0.333306 0.0894,-0.128444 0.25364,-0.201609 0.16584,-0.07317 0.39834,-0.09918 0.2325,-0.02601 0.49914,-0.03902 v -0.04715 q 0,-0.104056 -0.0374,-0.172343 -0.0358,-0.06829 -0.10406,-0.107309 -0.065,-0.03739 -0.15608,-0.0504 -0.091,-0.01301 -0.19023,-0.01301 -0.12032,0 -0.26827,0.03252 -0.14796,0.03089 -0.30567,0.09105 h -0.0163 v -0.310544 q 0.0894,-0.02439 0.25852,-0.05365 0.16909,-0.02927 0.3333,-0.02927 0.19186,0 0.33331,0.03252 0.14308,0.03089 0.24714,0.107308 0.10243,0.07479 0.15608,0.19348 0.0536,0.11869 0.0536,0.294285 z m -0.30404,-0.447118 v -0.50565 q -0.13982,0.0081 -0.33005,0.02439 -0.1886,0.01626 -0.29916,0.04715 -0.1317,0.0374 -0.21299,0.117063 -0.0813,0.07804 -0.0813,0.216243 0,0.156085 0.0943,0.235753 0.0943,0.07804 0.28778,0.07804 0.16097,0 0.29429,-0.06178 0.13332,-0.06341 0.24713,-0.151207 z"
             style="stroke-width:0.08324522"
             id="path2153" />
          <path
             inkscape:connector-curvature="0"
             d="m 130.74666,83.974487 q -0.0862,0.02276 -0.1886,0.0374 -0.10081,0.01463 -0.18048,0.01463 -0.27802,0 -0.42273,-0.149581 -0.1447,-0.149582 -0.1447,-0.479636 v -0.965774 h -0.20649 v -0.25689 h 0.20649 v -0.521908 h 0.30567 v 0.521908 h 0.63084 v 0.25689 h -0.63084 V 83.2591 q 0,0.143078 0.006,0.224372 0.006,0.07967 0.0455,0.149581 0.0358,0.06504 0.0976,0.09593 0.0634,0.02927 0.19185,0.02927 0.0748,0 0.15609,-0.02114 0.0813,-0.02276 0.11706,-0.0374 h 0.0163 z"
             style="stroke-width:0.08324522"
             id="path2155" />
          <path
             inkscape:connector-curvature="0"
             d="m 132.41481,83.467211 q 0,0.24876 -0.20648,0.408097 -0.20487,0.159336 -0.56093,0.159336 -0.20161,0 -0.3707,-0.04715 -0.16747,-0.04878 -0.28128,-0.105683 V 83.53875 h 0.0163 q 0.1447,0.108934 0.32192,0.17397 0.17722,0.06341 0.33981,0.06341 0.20161,0 0.31542,-0.06503 0.11381,-0.06504 0.11381,-0.204862 0,-0.107308 -0.0618,-0.162588 -0.0618,-0.05528 -0.23738,-0.0943 -0.065,-0.01463 -0.17072,-0.03414 -0.10405,-0.01951 -0.19022,-0.04227 -0.23901,-0.06341 -0.33981,-0.18535 -0.0992,-0.123567 -0.0992,-0.302415 0,-0.112186 0.0455,-0.211364 0.0471,-0.09918 0.14145,-0.177222 0.091,-0.07642 0.23088,-0.120315 0.14145,-0.04552 0.31542,-0.04552 0.16259,0 0.32843,0.04065 0.16746,0.03902 0.27802,0.09593 v 0.326803 h -0.0162 q -0.11707,-0.08617 -0.28453,-0.144704 -0.16747,-0.06016 -0.32843,-0.06016 -0.16747,0 -0.28291,0.06503 -0.11543,0.06341 -0.11543,0.190228 0,0.112186 0.0699,0.169092 0.0683,0.05691 0.22112,0.09268 0.0846,0.01951 0.1886,0.03902 0.10568,0.01951 0.1756,0.03577 0.21299,0.04878 0.32843,0.167466 0.11543,0.120315 0.11543,0.318673 z"
             style="stroke-width:0.08324522"
             id="path2157" />
          <path
             inkscape:connector-curvature="0"
             d="m 134.96745,83.974487 q -0.0862,0.02276 -0.1886,0.0374 -0.10081,0.01463 -0.18047,0.01463 -0.27803,0 -0.42273,-0.149581 -0.14471,-0.149582 -0.14471,-0.479636 v -0.965774 h -0.20649 v -0.25689 h 0.20649 v -0.521908 h 0.30567 v 0.521908 h 0.63084 v 0.25689 h -0.63084 V 83.2591 q 0,0.143078 0.006,0.224372 0.007,0.07967 0.0455,0.149581 0.0358,0.06504 0.0975,0.09593 0.0634,0.02927 0.19185,0.02927 0.0748,0 0.15609,-0.02114 0.0813,-0.02276 0.11706,-0.0374 h 0.0163 z"
             style="stroke-width:0.08324522"
             id="path2159" />
          <path
             inkscape:connector-curvature="0"
             d="m 136.88599,83.083503 q 0,0.443866 -0.22762,0.700755 -0.22763,0.25689 -0.60971,0.25689 -0.38533,0 -0.61296,-0.25689 -0.22599,-0.256889 -0.22599,-0.700755 0,-0.443866 0.22599,-0.700756 0.22763,-0.258515 0.61296,-0.258515 0.38208,0 0.60971,0.258515 0.22762,0.25689 0.22762,0.700756 z m -0.31542,0 q 0,-0.352817 -0.1382,-0.523535 -0.1382,-0.172343 -0.38371,-0.172343 -0.24876,0 -0.38696,0.172343 -0.13657,0.170718 -0.13657,0.523535 0,0.341435 0.1382,0.518656 0.1382,0.175596 0.38533,0.175596 0.24388,0 0.38208,-0.17397 0.13983,-0.175595 0.13983,-0.520282 z"
             style="stroke-width:0.08324522"
             id="path2161" />
          <path
             inkscape:connector-curvature="0"
             d="m 140.10199,82.174634 -0.7349,1.816112 h -0.30729 l -0.73002,-1.816112 h 0.33168 l 0.56255,1.44541 0.55768,-1.44541 z"
             style="stroke-width:0.08324522"
             id="path2163" />
          <path
             inkscape:connector-curvature="0"
             d="m 141.84819,83.990746 h -0.30404 v -0.193481 q -0.0406,0.02764 -0.11056,0.07804 -0.0683,0.04878 -0.13332,0.07804 -0.0764,0.0374 -0.1756,0.06178 -0.0992,0.02601 -0.2325,0.02601 -0.24551,0 -0.41623,-0.162588 -0.17071,-0.162589 -0.17071,-0.414601 0,-0.206487 0.0878,-0.333306 0.0894,-0.128444 0.25364,-0.201609 0.16584,-0.07317 0.39834,-0.09918 0.2325,-0.02601 0.49915,-0.03902 v -0.04715 q 0,-0.104056 -0.0374,-0.172343 -0.0358,-0.06829 -0.10405,-0.107309 -0.065,-0.03739 -0.15609,-0.0504 -0.091,-0.01301 -0.19023,-0.01301 -0.12031,0 -0.26827,0.03252 -0.14795,0.03089 -0.30566,0.09105 h -0.0163 v -0.310544 q 0.0894,-0.02439 0.25851,-0.05365 0.16909,-0.02927 0.33331,-0.02927 0.19185,0 0.3333,0.03252 0.14308,0.03089 0.24714,0.107308 0.10243,0.07479 0.15608,0.19348 0.0537,0.11869 0.0537,0.294285 z m -0.30404,-0.447118 v -0.50565 q -0.13983,0.0081 -0.33006,0.02439 -0.1886,0.01626 -0.29916,0.04715 -0.1317,0.0374 -0.21299,0.117063 -0.0813,0.07804 -0.0813,0.216243 0,0.156085 0.0943,0.235753 0.0943,0.07804 0.28778,0.07804 0.16096,0 0.29428,-0.06178 0.13333,-0.06341 0.24714,-0.151207 z"
             style="stroke-width:0.08324522"
             id="path2165" />
          <path
             inkscape:connector-curvature="0"
             d="m 142.74893,83.990746 h -0.30567 v -2.529875 h 0.30567 z"
             style="stroke-width:0.08324522"
             id="path2167" />
          <path
             inkscape:connector-curvature="0"
             d="m 143.68544,81.870594 h -0.34469 v -0.317047 h 0.34469 z m -0.0195,2.120152 h -0.30567 v -1.816112 h 0.30567 z"
             style="stroke-width:0.08324522"
             id="path2169" />
          <path
             inkscape:connector-curvature="0"
             d="m 145.74706,83.990746 h -0.30567 v -0.190229 q -0.1317,0.113812 -0.27477,0.177221 -0.14308,0.06341 -0.31055,0.06341 -0.32518,0 -0.51703,-0.250386 -0.19023,-0.250386 -0.19023,-0.694252 0,-0.230876 0.065,-0.411349 0.0667,-0.180473 0.17884,-0.307292 0.11056,-0.123567 0.25689,-0.188602 0.14796,-0.06503 0.30567,-0.06503 0.14308,0 0.25364,0.03089 0.11056,0.02927 0.2325,0.09268 v -0.786928 h 0.30567 z m -0.30567,-0.447118 v -1.042191 q -0.12357,-0.05528 -0.22112,-0.07642 -0.0976,-0.02114 -0.21299,-0.02114 -0.25689,0 -0.39997,0.178847 -0.14308,0.178847 -0.14308,0.507275 0,0.323551 0.11056,0.492643 0.11056,0.167466 0.35445,0.167466 0.13007,0 0.26339,-0.05691 0.13332,-0.05853 0.24876,-0.149581 z"
             style="stroke-width:0.08324522"
             id="path2171" />
          <path
             inkscape:connector-curvature="0"
             d="m 146.67706,81.870594 h -0.34469 v -0.317047 h 0.34469 z m -0.0195,2.120152 h -0.30567 v -1.816112 h 0.30567 z"
             style="stroke-width:0.08324522"
             id="path2173" />
          <path
             inkscape:connector-curvature="0"
             d="m 148.20864,83.974487 q -0.0862,0.02276 -0.1886,0.0374 -0.1008,0.01463 -0.18047,0.01463 -0.27803,0 -0.42273,-0.149581 -0.14471,-0.149582 -0.14471,-0.479636 v -0.965774 h -0.20648 v -0.25689 h 0.20648 v -0.521908 h 0.30567 v 0.521908 h 0.63084 v 0.25689 H 147.5778 V 83.2591 q 0,0.143078 0.007,0.224372 0.007,0.07967 0.0455,0.149581 0.0358,0.06504 0.0976,0.09593 0.0634,0.02927 0.19186,0.02927 0.0748,0 0.15608,-0.02114 0.0813,-0.02276 0.11706,-0.0374 h 0.0163 z"
             style="stroke-width:0.08324522"
             id="path2175" />
          <path
             inkscape:connector-curvature="0"
             d="m 150.13694,82.174634 -1.06008,2.485975 h -0.3268 l 0.33819,-0.757661 -0.72352,-1.728314 h 0.33168 l 0.55768,1.346231 0.56255,-1.346231 z"
             style="stroke-width:0.08324522"
             id="path2177" />
        </g>
        <g
           id="g1388"
           transform="translate(0.8085686,4.5874855)">
          <path
             inkscape:connector-curvature="0"
             style="fill:#211e1e;fill-opacity:1;fill-rule:evenodd;stroke:none;stroke-width:0.35277778"
             d="m 127.44123,71.05944 c -0.49746,0 -0.90261,0.39825 -0.90261,0.8971 0,0.50023 0.40515,0.90537 0.90261,0.90537 0.50161,0 0.90124,-0.40514 0.90124,-0.90537 0,-0.49885 -0.39963,-0.8971 -0.90124,-0.8971 z m 0,-5.11253 c -0.49746,0 -0.90261,0.40515 -0.90261,0.90262 v 2.70509 c 0,0.49609 0.40515,0.90124 0.90261,0.90124 0.50161,0 0.90124,-0.40515 0.90124,-0.90124 v -2.70509 c 0,-0.49747 -0.39963,-0.90262 -0.90124,-0.90262 z m 0,-1.36976 c 2.66651,0 4.8259,2.16351 4.8259,4.82589 0,2.66512 -2.15939,4.82451 -4.8259,4.82451 -2.66236,0 -4.82037,-2.15939 -4.82037,-4.82451 0,-2.66238 2.15801,-4.82589 4.82037,-4.82589"
             id="path84" />
          <path
             inkscape:connector-curvature="0"
             style="fill:#211e1e;fill-opacity:1;fill-rule:evenodd;stroke:none;stroke-width:0.35277778"
             d="m 145.15871,69.886752 c -0.39136,-0.570509 0.0221,-1.271929 -0.0303,-1.98024 -0.0386,-0.533301 0.18465,-1.146528 0.18465,-1.146528 -0.27836,0.183279 -0.28387,0.163984 -0.4644,0.312815 -0.9536,0.786861 -1.81763,1.847949 -1.84657,1.947168 -0.005,0.0083 -0.005,0.01238 -0.005,0.01238 l 0.005,-0.01238 c 0,0 1.03077,-2.750566 -1.04455,-4.103797 -0.17226,-0.115757 -0.56775,-0.338998 -0.56775,-0.338998 0,0 0.74276,2.363336 -1.09968,3.857127 -0.36518,-1.481391 -2.04914,-2.095994 -2.04914,-2.095994 0,0 0.15021,0.515384 0.17087,0.640786 0.31006,1.606793 -0.87092,2.714734 -1.06522,4.236088 0.0207,-0.176388 0.0124,-0.107484 0,0 -0.1502,1.196139 0.41755,2.12356 1.29398,2.745052 0.0427,-0.420299 0.2136,-0.841978 0.45475,-1.187866 0.2701,-0.396875 0.0524,-1.471746 0.0896,-1.965085 0.0262,-0.365178 -0.12816,-0.790991 -0.12816,-0.790991 0.1943,0.125401 0.1943,0.112998 0.32246,0.219106 0.53743,0.442351 1.10381,1.66329 1.17822,1.852083 0.003,0 0.003,-0.0028 0.007,-0.0028 -0.0896,-0.413413 -0.34727,-2.021583 0.9412,-2.86632 0.11989,-0.07855 0.77859,-0.644923 0.77859,-0.644923 0,0 -1.11208,2.010558 0.49334,3.307291 -0.0289,-0.406519 1.43591,-1.344965 1.83554,-1.452449 0,0 -0.10335,0.358288 -0.11989,0.443727 -0.21497,1.112076 0.0717,2.312349 -0.35691,3.355524 h 0.0896 c 0.47267,-0.252184 0.9164,-0.584289 1.21681,-1.036285 0.26183,-0.395499 0.38172,-0.832337 0.38585,-1.280199 v -0.07579 c -0.008,-0.684886 -0.27974,-1.379417 -0.66972,-1.948547"
             id="path186" />
        </g>
      </g>
      <g
         transform="translate(-16.015352,-0.60812769)"
         id="g1420">
        <g
           aria-label="Experimental design"
           style="font-style:normal;font-weight:normal;font-size:3.32980871px;line-height:1.25;font-family:sans-serif;letter-spacing:0px;word-spacing:0px;fill:#000000;fill-opacity:1;stroke:none;stroke-width:0.08324522"
           id="text817-3">
          <path
             inkscape:connector-curvature="0"
             d="M 59.126001,88.042023 H 57.53101 v -2.42094 h 1.594991 v 0.286155 h -1.273066 v 0.66336 h 1.273066 v 0.286156 h -1.273066 v 0.899113 h 1.273066 z"
             style="stroke-width:0.08324522"
             id="path2180" />
          <path
             inkscape:connector-curvature="0"
             d="m 61.185995,88.042023 h -0.385334 l -0.515405,-0.697504 -0.518657,0.697504 h -0.356068 l 0.708885,-0.905617 -0.702381,-0.910495 h 0.385334 l 0.512153,0.686123 0.513779,-0.686123 h 0.357694 l -0.713762,0.894236 z"
             style="stroke-width:0.08324522"
             id="path2182" />
          <path
             inkscape:connector-curvature="0"
             d="m 63.18258,87.112018 q 0,0.22112 -0.06341,0.404844 -0.06341,0.182099 -0.178847,0.308918 -0.107308,0.120316 -0.253637,0.186977 -0.144704,0.06504 -0.307292,0.06504 -0.141452,0 -0.25689,-0.03089 -0.113812,-0.03089 -0.232501,-0.09593 v 0.760914 h -0.305666 v -2.485976 h 0.305666 v 0.190229 q 0.121941,-0.102431 0.273148,-0.170718 0.152833,-0.06991 0.325177,-0.06991 0.328428,0 0.510527,0.24876 0.183725,0.247134 0.183725,0.687749 z m -0.315421,0.0081 q 0,-0.328428 -0.112186,-0.491017 -0.112186,-0.162588 -0.344688,-0.162588 -0.131696,0 -0.265019,0.05691 -0.133322,0.05691 -0.255263,0.149581 v 1.029184 q 0.13007,0.05853 0.222746,0.07967 0.0943,0.02114 0.21299,0.02114 0.255264,0 0.398342,-0.172344 0.143078,-0.172343 0.143078,-0.510527 z"
             style="stroke-width:0.08324522"
             id="path2184" />
          <path
             inkscape:connector-curvature="0"
             d="m 65.179164,87.165672 h -1.338101 q 0,0.167466 0.0504,0.292659 0.0504,0.123567 0.1382,0.203235 0.08455,0.07804 0.199984,0.117064 0.117063,0.03902 0.256889,0.03902 0.185351,0 0.372327,-0.07317 0.188603,-0.07479 0.268271,-0.146329 h 0.01626 v 0.333306 q -0.154459,0.06504 -0.315421,0.108934 -0.160963,0.0439 -0.338184,0.0439 -0.451996,0 -0.705633,-0.243883 -0.253638,-0.245508 -0.253638,-0.695878 0,-0.445492 0.242256,-0.707259 0.243883,-0.261767 0.640598,-0.261767 0.36745,0 0.565808,0.214616 0.199983,0.214617 0.199983,0.609707 z m -0.297536,-0.234127 q -0.0016,-0.240631 -0.121941,-0.372328 -0.11869,-0.131696 -0.362572,-0.131696 -0.245509,0 -0.391838,0.144703 -0.144704,0.144704 -0.164214,0.359321 z"
             style="stroke-width:0.08324522"
             id="path2186" />
          <path
             inkscape:connector-curvature="0"
             d="m 66.775782,86.559217 h -0.01626 q -0.06829,-0.01626 -0.133322,-0.02276 -0.06341,-0.0081 -0.151207,-0.0081 -0.141452,0 -0.273149,0.06341 -0.131696,0.06178 -0.253638,0.160962 v 1.289326 H 65.64254 v -1.816112 h 0.305666 v 0.268271 q 0.182099,-0.14633 0.320299,-0.206487 0.139826,-0.06178 0.28453,-0.06178 0.07967,0 0.115438,0.0049 0.03577,0.0033 0.107308,0.01463 z"
             style="stroke-width:0.08324522"
             id="path2188" />
          <path
             inkscape:connector-curvature="0"
             d="m 67.395243,85.921871 h -0.344687 v -0.317047 h 0.344687 z m -0.01951,2.120152 h -0.305666 v -1.816112 h 0.305666 z"
             style="stroke-width:0.08324522"
             id="path2190" />
          <path
             inkscape:connector-curvature="0"
             d="m 70.634002,88.042023 h -0.305666 v -1.034062 q 0,-0.117064 -0.01138,-0.225998 -0.0098,-0.108934 -0.0439,-0.173969 -0.0374,-0.06991 -0.107308,-0.105683 -0.06991,-0.03577 -0.20161,-0.03577 -0.128444,0 -0.256889,0.06503 -0.128445,0.06341 -0.25689,0.162589 0.0049,0.0374 0.0081,0.0878 0.0033,0.04878 0.0033,0.09755 v 1.162507 h -0.305666 v -1.034062 q 0,-0.120315 -0.01138,-0.227624 -0.0098,-0.108934 -0.0439,-0.173969 -0.0374,-0.06991 -0.107309,-0.104057 -0.06991,-0.03577 -0.201609,-0.03577 -0.125193,0 -0.252012,0.06178 -0.125193,0.06178 -0.250386,0.157711 v 1.355987 h -0.305666 v -1.816112 h 0.305666 v 0.20161 q 0.143078,-0.11869 0.284529,-0.185351 0.143078,-0.06666 0.304041,-0.06666 0.18535,0 0.313795,0.07804 0.130071,0.07804 0.19348,0.216243 0.185351,-0.156085 0.338184,-0.224372 0.152833,-0.06991 0.326802,-0.06991 0.299163,0 0.440615,0.182099 0.143077,0.180473 0.143077,0.505649 z"
             style="stroke-width:0.08324522"
             id="path2192" />
          <path
             inkscape:connector-curvature="0"
             d="m 72.742773,87.165672 h -1.338102 q 0,0.167466 0.0504,0.292659 0.0504,0.123567 0.1382,0.203235 0.08455,0.07804 0.199984,0.117064 0.117063,0.03902 0.256889,0.03902 0.185351,0 0.372328,-0.07317 0.188602,-0.07479 0.26827,-0.146329 h 0.01626 v 0.333306 q -0.154459,0.06504 -0.315421,0.108934 -0.160963,0.0439 -0.338184,0.0439 -0.451995,0 -0.705633,-0.243883 -0.253638,-0.245508 -0.253638,-0.695878 0,-0.445492 0.242257,-0.707259 0.243882,-0.261767 0.640598,-0.261767 0.367449,0 0.565807,0.214616 0.199984,0.214617 0.199984,0.609707 z m -0.297537,-0.234127 q -0.0016,-0.240631 -0.121941,-0.372328 -0.11869,-0.131696 -0.362572,-0.131696 -0.245509,0 -0.391838,0.144703 -0.144704,0.144704 -0.164214,0.359321 z"
             style="stroke-width:0.08324522"
             id="path2194" />
          <path
             inkscape:connector-curvature="0"
             d="m 74.724724,88.042023 h -0.305666 v -1.034062 q 0,-0.125193 -0.01463,-0.234127 -0.01463,-0.11056 -0.05365,-0.172344 -0.04065,-0.06829 -0.117063,-0.100805 -0.07642,-0.03414 -0.198358,-0.03414 -0.125193,0 -0.261767,0.06178 -0.136574,0.06178 -0.261767,0.157711 v 1.355987 H 73.20615 v -1.816112 h 0.305666 v 0.20161 q 0.143077,-0.11869 0.29591,-0.185351 0.152833,-0.06666 0.313796,-0.06666 0.294285,0 0.448744,0.177221 0.154458,0.177221 0.154458,0.510527 z"
             style="stroke-width:0.08324522"
             id="path2196" />
          <path
             inkscape:connector-curvature="0"
             d="m 76.256307,88.025764 q -0.08617,0.02276 -0.188602,0.0374 -0.100805,0.01463 -0.180473,0.01463 -0.278026,0 -0.42273,-0.149581 -0.144704,-0.149581 -0.144704,-0.479636 v -0.965774 h -0.206487 v -0.25689 h 0.206487 v -0.521908 h 0.305666 v 0.521908 h 0.630843 v 0.25689 h -0.630843 v 0.827574 q 0,0.143078 0.0065,0.224372 0.0065,0.07967 0.04552,0.149581 0.03577,0.06504 0.09755,0.09593 0.06341,0.02927 0.191854,0.02927 0.07479,0 0.156085,-0.02114 0.08129,-0.02276 0.117063,-0.0374 h 0.01626 z"
             style="stroke-width:0.08324522"
             id="path2198" />
          <path
             inkscape:connector-curvature="0"
             d="m 78.038275,88.042023 h -0.304041 v -0.19348 q -0.04065,0.02764 -0.11056,0.07804 -0.06829,0.04878 -0.133322,0.07804 -0.07642,0.0374 -0.175595,0.06178 -0.09918,0.02601 -0.232502,0.02601 -0.245508,0 -0.416226,-0.162588 -0.170718,-0.162589 -0.170718,-0.4146 0,-0.206488 0.0878,-0.333306 0.08942,-0.128445 0.253638,-0.20161 0.16584,-0.07317 0.398341,-0.09918 0.232502,-0.02601 0.499146,-0.03902 v -0.04715 q 0,-0.104056 -0.0374,-0.172343 -0.03577,-0.06829 -0.104056,-0.107309 -0.06504,-0.03739 -0.156085,-0.0504 -0.09105,-0.01301 -0.190229,-0.01301 -0.120315,0 -0.26827,0.03252 -0.147956,0.03089 -0.305666,0.09105 h -0.01626 v -0.310544 q 0.08942,-0.02439 0.258515,-0.05365 0.169092,-0.02927 0.333306,-0.02927 0.191855,0 0.333306,0.03252 0.143078,0.03089 0.247135,0.107308 0.10243,0.07479 0.156084,0.19348 0.05365,0.11869 0.05365,0.294285 z m -0.304041,-0.447118 v -0.50565 q -0.139826,0.0081 -0.330054,0.02439 -0.188602,0.01626 -0.299162,0.04715 -0.131697,0.0374 -0.212991,0.117064 -0.08129,0.07804 -0.08129,0.216242 0,0.156085 0.0943,0.235753 0.0943,0.07804 0.287781,0.07804 0.160963,0 0.294285,-0.06178 0.133323,-0.06341 0.247134,-0.151207 z"
             style="stroke-width:0.08324522"
             id="path2200" />
          <path
             inkscape:connector-curvature="0"
             d="m 78.939014,88.042023 h -0.305666 v -2.529874 h 0.305666 z"
             style="stroke-width:0.08324522"
             id="path2202" />
          <path
             inkscape:connector-curvature="0"
             d="m 82.190779,88.042023 h -0.305666 v -0.190229 q -0.131696,0.113812 -0.274774,0.177222 -0.143078,0.06341 -0.310544,0.06341 -0.325176,0 -0.517031,-0.250386 -0.190228,-0.250386 -0.190228,-0.694252 0,-0.230875 0.06504,-0.411348 0.06666,-0.180474 0.178848,-0.307292 0.11056,-0.123568 0.256889,-0.188603 0.147955,-0.06503 0.305666,-0.06503 0.143078,0 0.253638,0.03089 0.11056,0.02927 0.232501,0.09267 v -0.786927 h 0.305666 z m -0.305666,-0.447118 v -1.042191 q -0.123567,-0.05528 -0.22112,-0.07642 -0.09755,-0.02114 -0.212991,-0.02114 -0.256889,0 -0.399967,0.178847 -0.143078,0.178847 -0.143078,0.507275 0,0.323551 0.11056,0.492643 0.110561,0.167466 0.354443,0.167466 0.130071,0 0.263393,-0.05691 0.133322,-0.05853 0.24876,-0.149581 z"
             style="stroke-width:0.08324522"
             id="path2204" />
          <path
             inkscape:connector-curvature="0"
             d="m 84.312557,87.165672 h -1.338102 q 0,0.167466 0.0504,0.292659 0.0504,0.123567 0.1382,0.203235 0.08455,0.07804 0.199984,0.117064 0.117064,0.03902 0.25689,0.03902 0.18535,0 0.372327,-0.07317 0.188602,-0.07479 0.26827,-0.146329 h 0.01626 v 0.333306 q -0.154459,0.06504 -0.315421,0.108934 -0.160962,0.0439 -0.338184,0.0439 -0.451995,0 -0.705633,-0.243883 Q 82.66391,87.5949 82.66391,87.14453 q 0,-0.445492 0.242257,-0.707259 0.243882,-0.261767 0.640598,-0.261767 0.367449,0 0.565807,0.214616 0.199984,0.214617 0.199984,0.609707 z M 84.01502,86.931545 q -0.0016,-0.240631 -0.121941,-0.372328 -0.11869,-0.131696 -0.362572,-0.131696 -0.245508,0 -0.391838,0.144703 -0.144703,0.144704 -0.164214,0.359321 z"
             style="stroke-width:0.08324522"
             id="path2206" />
          <path
             inkscape:connector-curvature="0"
             d="m 86.073388,87.518488 q 0,0.24876 -0.206487,0.408097 -0.204861,0.159337 -0.560929,0.159337 -0.20161,0 -0.370702,-0.04715 -0.167466,-0.04878 -0.281278,-0.105682 v -0.343062 h 0.01626 q 0.144704,0.108934 0.321925,0.17397 0.177221,0.06341 0.33981,0.06341 0.201609,0 0.315421,-0.06503 0.113812,-0.06504 0.113812,-0.204861 0,-0.107309 -0.06178,-0.162589 -0.06178,-0.05528 -0.237379,-0.0943 -0.06504,-0.01463 -0.170717,-0.03414 -0.104057,-0.01951 -0.190229,-0.04227 -0.239004,-0.06341 -0.339809,-0.18535 -0.09918,-0.123567 -0.09918,-0.302414 0,-0.112186 0.04552,-0.211365 0.04715,-0.09918 0.141451,-0.177222 0.09105,-0.07642 0.230876,-0.120315 0.141452,-0.04552 0.315421,-0.04552 0.162589,0 0.328429,0.04065 0.167466,0.03902 0.278026,0.09593 v 0.326802 h -0.01626 q -0.117064,-0.08617 -0.28453,-0.144704 -0.167466,-0.06016 -0.328428,-0.06016 -0.167466,0 -0.282904,0.06503 -0.115438,0.06341 -0.115438,0.190228 0,0.112186 0.06991,0.169092 0.06829,0.05691 0.221121,0.09268 0.08454,0.01951 0.188602,0.03902 0.105682,0.01951 0.175595,0.03577 0.212991,0.04878 0.328429,0.167466 0.115437,0.120316 0.115437,0.318673 z"
             style="stroke-width:0.08324522"
             id="path2208" />
          <path
             inkscape:connector-curvature="0"
             d="m 86.840807,85.921871 h -0.344688 v -0.317047 h 0.344688 z m -0.01951,2.120152 H 86.51563 v -1.816112 h 0.305666 z"
             style="stroke-width:0.08324522"
             id="path2210" />
          <path
             inkscape:connector-curvature="0"
             d="m 88.902426,87.835536 q 0,0.46175 -0.209739,0.677993 -0.209739,0.216242 -0.645475,0.216242 -0.144704,0 -0.282904,-0.02114 -0.136574,-0.01951 -0.269897,-0.05691 v -0.31217 h 0.01626 q 0.07479,0.02927 0.237379,0.07154 0.162589,0.0439 0.325177,0.0439 0.156085,0 0.258515,-0.0374 0.102431,-0.0374 0.159337,-0.104057 0.05691,-0.06341 0.08129,-0.152833 0.02439,-0.08942 0.02439,-0.199983 v -0.165841 q -0.1382,0.110561 -0.265019,0.165841 -0.125193,0.05365 -0.320299,0.05365 -0.325176,0 -0.517031,-0.234127 -0.190228,-0.235754 -0.190228,-0.663361 0,-0.234127 0.06504,-0.403219 0.06666,-0.170718 0.180473,-0.294285 0.105683,-0.115437 0.25689,-0.178847 0.151207,-0.06503 0.300788,-0.06503 0.157711,0 0.263393,0.03252 0.107309,0.03089 0.225998,0.09593 l 0.01951,-0.07804 h 0.286155 z M 88.59676,87.542877 v -0.990163 q -0.121941,-0.05528 -0.227623,-0.07804 -0.104057,-0.02439 -0.208113,-0.02439 -0.252012,0 -0.396716,0.169092 -0.144704,0.169092 -0.144704,0.491017 0,0.305666 0.107309,0.463376 0.107308,0.157711 0.356068,0.157711 0.133323,0 0.266645,-0.0504 0.134948,-0.05203 0.247134,-0.1382 z"
             style="stroke-width:0.08324522"
             id="path2212" />
          <path
             inkscape:connector-curvature="0"
             d="m 91.022578,88.042023 h -0.305666 v -1.034062 q 0,-0.125193 -0.01463,-0.234127 -0.01463,-0.11056 -0.05365,-0.172344 -0.04065,-0.06829 -0.117064,-0.100805 -0.07642,-0.03414 -0.198358,-0.03414 -0.125193,0 -0.261767,0.06178 -0.136574,0.06178 -0.261767,0.157711 v 1.355987 H 89.50401 v -1.816112 h 0.305666 v 0.20161 q 0.143078,-0.11869 0.295911,-0.185351 0.152833,-0.06666 0.313795,-0.06666 0.294285,0 0.448744,0.177221 0.154459,0.177221 0.154459,0.510527 z"
             style="stroke-width:0.08324522"
             id="path2214" />
        </g>
        <g
           id="g1384"
           transform="translate(-10.35708,7.1469665)">
          <path
             inkscape:connector-curvature="0"
             style="fill:#211e1e;fill-opacity:1;fill-rule:nonzero;stroke:none;stroke-width:0.35277778"
             d="m 79.510034,75.473769 c -0.16674,-0.126777 -0.18603,-0.361047 -0.18603,-0.361047 l -0.0593,-0.449237 h -1.98575 l -0.062,0.449237 c 0,0 -0.0152,0.210842 -0.18053,0.33073 -0.16674,0.121267 -0.29627,0.239779 -0.16674,0.259073 0.12265,0.01379 1.31327,0.0096 1.39871,0.0055 0.0896,0.0041 1.27882,0.02067 1.40698,0.0041 0.13229,-0.02067 0,-0.115753 -0.16537,-0.2384 z m 2.95452,-2.204861 h -8.38261 v -4.573707 h 8.38261 z m -4.95956,-1.378038 c 0.24804,-0.02618 0.4327,-0.24529 0.41341,-0.494714 -0.0234,-0.249425 -0.24391,-0.427193 -0.49196,-0.409279 -0.24805,0.0248 -0.43408,0.243914 -0.40928,0.493339 0.0193,0.248045 0.24391,0.434082 0.48783,0.410654 z m 1.81901,-2.068435 c -0.20533,0 -0.37069,0.163986 -0.37069,0.367937 0.004,0.205327 0.17087,0.372071 0.3762,0.372071 0.20395,-0.0028 0.3707,-0.170878 0.3638,-0.37345 0,-0.205328 -0.16536,-0.373447 -0.36931,-0.366558 z m 0.80477,1.018371 -0.13229,0.135047 c -0.04,0.04134 -0.10749,0.0441 -0.15158,0.01101 l -0.0882,-0.06752 c -0.0634,0.03858 -0.13091,0.06752 -0.20257,0.08682 l -0.0165,0.111622 c -0.004,0.05512 -0.0524,0.09922 -0.113,0.10335 h -0.1888 c -0.0592,0 -0.10748,-0.0441 -0.11162,-0.10335 l -0.0138,-0.111622 c -0.0758,-0.0193 -0.14745,-0.04823 -0.20946,-0.08682 l -0.0937,0.07166 c -0.0441,0.03996 -0.10749,0.03583 -0.15158,-0.0083 l -0.13092,-0.130912 c -0.0441,-0.04134 -0.0496,-0.108864 -0.011,-0.150206 l 0.0744,-0.09922 c -0.0358,-0.06477 -0.0634,-0.128157 -0.0786,-0.194303 l -0.12126,-0.01655 c -0.0593,-0.0041 -0.10336,-0.05374 -0.10336,-0.111619 v -0.19013 c 0,-0.05926 0.04,-0.106108 0.0978,-0.117133 l 0.12678,-0.01379 c 0.0207,-0.06477 0.0427,-0.121268 0.0786,-0.180524 l -0.0841,-0.101974 c -0.0331,-0.0441 -0.0331,-0.112998 0.01,-0.152964 l 0.13229,-0.135047 c 0.04,-0.03996 0.10611,-0.04685 0.15159,-0.0096 l 0.10335,0.08131 c 0.0565,-0.03305 0.11989,-0.06201 0.18879,-0.08131 l 0.01,-0.132291 c 0.011,-0.05788 0.0579,-0.103354 0.11714,-0.103354 h 0.18603 c 0.0565,0 0.11162,0.04548 0.11576,0.103354 l 0.0152,0.121267 c 0.073,0.02067 0.14193,0.04961 0.20532,0.08268 l 0.0965,-0.07855 c 0.0441,-0.03721 0.10749,-0.03306 0.15158,0.01101 l 0.13091,0.132292 c 0.0441,0.03858 0.0482,0.106108 0.011,0.150206 l -0.0758,0.09922 c 0.0372,0.05788 0.0648,0.126778 0.0854,0.194303 l 0.11575,0.01379 c 0.0593,0.0055 0.10336,0.05375 0.10336,0.112998 v 0.190172 c 0,0.05788 -0.0441,0.106109 -0.0978,0.111619 l -0.11713,0.01655 c -0.0179,0.06615 -0.0441,0.133668 -0.0772,0.198438 l 0.073,0.08682 c 0.0345,0.0441 0.0345,0.107488 -0.01,0.151585 z m -3.67798,0.39963 c 0.0152,-0.07855 0.04,-0.155716 0.0744,-0.228755 l -0.12403,-0.132292 c -0.0441,-0.03858 -0.0441,-0.107484 -0.003,-0.150205 l 0.17088,-0.209462 c 0.0372,-0.04961 0.10748,-0.05926 0.15571,-0.02618 l 0.15021,0.09922 c 0.0703,-0.04961 0.14194,-0.08819 0.21773,-0.118508 l 0.008,-0.179148 c 0,-0.05925 0.0441,-0.106108 0.1006,-0.112998 l 0.27423,-0.02343 c 0.0565,-0.0041 0.11162,0.03168 0.12678,0.08819 l 0.0331,0.175009 c 0.0896,0.01517 0.17226,0.03858 0.25356,0.07717 l 0.12678,-0.121268 c 0.0441,-0.03996 0.10887,-0.0441 0.15159,-0.0055 l 0.21497,0.175013 c 0.0427,0.03996 0.0537,0.103353 0.0193,0.15434 l -0.0937,0.144692 c 0.0496,0.06615 0.0937,0.144695 0.12265,0.228755 l 0.16536,0.0055 c 0.0593,0 0.10749,0.04823 0.11162,0.107484 l 0.0262,0.267342 c 0.003,0.05788 -0.0345,0.112998 -0.0937,0.128157 l -0.15572,0.03168 c -0.0138,0.08406 -0.0441,0.16812 -0.0785,0.24529 l 0.11162,0.115757 c 0.04,0.0441 0.0441,0.107488 0.007,0.15572 l -0.17639,0.210838 c -0.04,0.0441 -0.10198,0.05237 -0.15158,0.02067 l -0.1323,-0.08544 c -0.0717,0.05512 -0.15572,0.09922 -0.2384,0.128157 l -0.004,0.16123 c 0,0.05926 -0.0482,0.107488 -0.10749,0.111623 l -0.27147,0.0248 c -0.0606,0.0055 -0.11438,-0.03447 -0.12265,-0.09233 l -0.0344,-0.15572 c -0.0937,-0.01517 -0.18053,-0.0441 -0.26321,-0.08406 l -0.11851,0.107488 c -0.0427,0.0441 -0.11025,0.0441 -0.15572,0.0055 l -0.20946,-0.170879 c -0.0441,-0.03996 -0.0537,-0.106108 -0.0248,-0.15572 l 0.0923,-0.141936 c -0.0482,-0.07304 -0.0868,-0.151585 -0.11576,-0.23289 h -0.16536 c -0.0648,-0.0055 -0.10887,-0.04961 -0.11852,-0.108864 l -0.0234,-0.272852 c -0.005,-0.05926 0.0331,-0.111619 0.0923,-0.121267 z m 6.22184,-3.18051 h -8.80566 c -0.20946,0 -0.4203,0.176389 -0.4203,0.391361 v 5.550739 c 0,0.213597 0.21084,0.281118 0.4203,0.281118 h 8.80566 c 0.21498,0 0.42582,-0.06752 0.42582,-0.281118 v -5.550739 c 0,-0.214972 -0.21084,-0.391361 -0.42582,-0.391361"
             id="path50" />
          <path
             inkscape:connector-curvature="0"
             style="fill:#211e1e;fill-opacity:1;fill-rule:evenodd;stroke:none;stroke-width:0.35277778"
             d="m 95.578534,69.790882 h -9.16809 v 5.574167 h 9.16809 z m -5.24757,-0.316946 h 4.81762 v -0.883324 h -4.81762 z m -2.70647,-0.789616 h -0.85852 v 0.745518 h 0.85852 z m 1.16031,0 h -0.85714 v 0.745518 h 0.85714 z m -0.0813,1.462098 h 3.30454 c 0.0455,0 0.0799,0.03447 0.0799,0.07855 v 0.370692 c 0,0.03859 -0.0345,0.07855 -0.0799,0.07855 h -3.30454 c -0.0455,0 -0.0799,-0.03996 -0.0799,-0.07855 v -0.370692 c 0,-0.0441 0.0345,-0.07855 0.0799,-0.07855 z m -1.94716,0 h 1.35599 c 0.0441,0 0.0785,0.03447 0.0785,0.07855 v 0.370692 c 0,0.03859 -0.0345,0.07855 -0.0785,0.07855 h -1.35599 c -0.0427,0 -0.0772,-0.03996 -0.0772,-0.07855 v -0.370692 c 0,-0.0441 0.0345,-0.07855 0.0772,-0.07855 z m 2.59484,0.990808 h 3.80339 c 0.0386,0 0.073,0.03306 0.073,0.07304 v 0.370692 c 0,0.0441 -0.0345,0.07717 -0.073,0.07717 h -3.80339 c -0.0441,0 -0.0786,-0.03306 -0.0786,-0.07717 v -0.370692 c 0,-0.03996 0.0345,-0.07304 0.0786,-0.07304 z m 4.49654,0 h 0.73587 c 0.0386,0 0.0772,0.03306 0.0772,0.07304 v 0.370692 c 0,0.0441 -0.0386,0.07717 -0.0772,0.07717 h -0.73587 c -0.0441,0 -0.0786,-0.03306 -0.0786,-0.07717 v -0.370692 c 0,-0.03996 0.0345,-0.07304 0.0786,-0.07304 z m -7.09138,0 h 2.03811 c 0.0441,0 0.0785,0.03306 0.0785,0.07304 v 0.370692 c 0,0.0441 -0.0345,0.07717 -0.0785,0.07717 h -2.03811 c -0.0427,0 -0.0772,-0.03306 -0.0772,-0.07717 v -0.370692 c 0,-0.03996 0.0345,-0.07304 0.0772,-0.07304 z m 1.75562,1.394577 h 1.94579 c 0.0441,0 0.0785,0.03447 0.0785,0.07855 v 0.369316 c 0,0.0441 -0.0345,0.07855 -0.0785,0.07855 h -1.94579 c -0.0386,0 -0.073,-0.03447 -0.073,-0.07855 v -0.369316 c 0,-0.0441 0.0345,-0.07855 0.073,-0.07855 z m 2.37987,0 h 1.08176 c 0.0455,0 0.0799,0.03447 0.0799,0.07855 v 0.369316 c 0,0.0441 -0.0345,0.07855 -0.0799,0.07855 h -1.08176 c -0.0386,0 -0.073,-0.03447 -0.073,-0.07855 v -0.369316 c 0,-0.0441 0.0345,-0.07855 0.073,-0.07855 z m 1.62333,0 h 2.37987 c 0.0455,0 0.0786,0.03447 0.0786,0.07855 v 0.369316 c 0,0.0441 -0.0331,0.07855 -0.0786,0.07855 h -2.37987 c -0.0427,0 -0.0772,-0.03447 -0.0772,-0.07855 v -0.369316 c 0,-0.0441 0.0345,-0.07855 0.0772,-0.07855 z m -5.75882,0 h 1.32153 c 0.0441,0 0.0786,0.03447 0.0786,0.07855 v 0.369316 c 0,0.0441 -0.0345,0.07855 -0.0786,0.07855 h -1.32153 c -0.0427,0 -0.0772,-0.03447 -0.0772,-0.07855 v -0.369316 c 0,-0.0441 0.0345,-0.07855 0.0772,-0.07855 z m 3.39962,1.052819 h 1.85759 c 0.0441,0 0.0772,0.03859 0.0772,0.07717 v 0.372071 c 0,0.0441 -0.0331,0.07717 -0.0772,0.07717 h -1.85759 c -0.0441,0 -0.0785,-0.03306 -0.0785,-0.07717 v -0.372071 c 0,-0.03858 0.0345,-0.07717 0.0785,-0.07717 z m 2.60449,0 h 1.31602 c 0.0441,0 0.0786,0.03859 0.0786,0.07717 v 0.372071 c 0,0.0441 -0.0345,0.07717 -0.0786,0.07717 h -1.31602 c -0.0441,0 -0.0785,-0.03306 -0.0785,-0.07717 v -0.372071 c 0,-0.03858 0.0345,-0.07717 0.0785,-0.07717 z m -6.00411,0 h 2.91592 c 0.04,0 0.0786,0.03859 0.0786,0.07717 v 0.372071 c 0,0.0441 -0.0386,0.07717 -0.0786,0.07717 h -2.91592 c -0.0427,0 -0.0772,-0.03306 -0.0772,-0.07717 v -0.372071 c 0,-0.03858 0.0345,-0.07717 0.0772,-0.07717 z m 2.66788,1.005967 h 2.58933 c 0.0441,0 0.0772,0.03721 0.0772,0.07717 v 0.370692 c 0,0.0441 -0.0331,0.07855 -0.0772,0.07855 h -2.58933 c -0.0441,0 -0.0772,-0.03447 -0.0772,-0.07855 v -0.370692 c 0,-0.03996 0.0331,-0.07717 0.0772,-0.07717 z m 3.33623,0 h 2.31924 c 0.0455,0 0.0799,0.03721 0.0799,0.07717 v 0.370692 c 0,0.0441 -0.0345,0.07855 -0.0799,0.07855 h -2.31924 c -0.0441,0 -0.0785,-0.03447 -0.0785,-0.07855 v -0.370692 c 0,-0.03996 0.0345,-0.07717 0.0785,-0.07717 z m -6.00411,0 h 1.95543 c 0.0441,0 0.0786,0.03721 0.0786,0.07717 v 0.370692 c 0,0.0441 -0.0345,0.07855 -0.0786,0.07855 h -1.95543 c -0.0427,0 -0.0772,-0.03447 -0.0772,-0.07855 v -0.370692 c 0,-0.03996 0.0345,-0.07717 0.0772,-0.07717 z m -0.46854,-6.418901 h 9.53327 v 7.435896 h -9.64902 v -7.435896 h 0.11575"
             id="path212" />
        </g>
      </g>
    </g>
    <g
       id="g2039"
       transform="matrix(2.2182884,0,0,2.2182884,-18.214321,56.581646)">
      <g
         transform="translate(-2.8348214,3.7797619)"
         id="g1403">
        <g
           aria-label="Context"
           style="font-style:normal;font-weight:normal;font-size:3.32980871px;line-height:1.25;font-family:sans-serif;letter-spacing:0px;word-spacing:0px;fill:#000000;fill-opacity:1;stroke:none;stroke-width:0.08324522"
           id="text817">
          <path
             inkscape:connector-curvature="0"
             d="m 15.105136,83.433284 q -0.08942,0.03902 -0.162589,0.07316 -0.07154,0.03414 -0.188602,0.07154 -0.09918,0.03089 -0.216243,0.05203 -0.115437,0.02276 -0.255263,0.02276 -0.263393,0 -0.479636,-0.07317 -0.214616,-0.07479 -0.373953,-0.232501 -0.156085,-0.154459 -0.243882,-0.391838 -0.0878,-0.239005 -0.0878,-0.554426 0,-0.299163 0.08455,-0.534916 0.08455,-0.235753 0.243882,-0.398341 0.154459,-0.157711 0.372328,-0.240631 0.219494,-0.08292 0.486139,-0.08292 0.195106,0 0.388586,0.04715 0.195106,0.04715 0.432485,0.16584 v 0.382082 h -0.02439 q -0.199983,-0.167466 -0.396715,-0.243882 -0.196732,-0.07642 -0.421104,-0.07642 -0.183725,0 -0.33168,0.06016 -0.146329,0.05853 -0.261767,0.183725 -0.112186,0.121941 -0.175596,0.308918 -0.06178,0.18535 -0.06178,0.429233 0,0.255264 0.06829,0.438988 0.06991,0.183725 0.178847,0.299163 0.113812,0.120315 0.265019,0.178847 0.152833,0.05691 0.321925,0.05691 0.232501,0 0.435737,-0.07967 0.203235,-0.07967 0.380456,-0.239005 h 0.02276 z"
             style="stroke-width:0.08324522"
             id="path2109" />
          <path
             inkscape:connector-curvature="0"
             d="m 17.087087,82.701636 q 0,0.443866 -0.227623,0.700756 -0.227624,0.256889 -0.609707,0.256889 -0.385334,0 -0.612957,-0.256889 -0.225998,-0.25689 -0.225998,-0.700756 0,-0.443866 0.225998,-0.700755 0.227623,-0.258516 0.612957,-0.258516 0.382083,0 0.609707,0.258516 0.227623,0.256889 0.227623,0.700755 z m -0.315421,0 q 0,-0.352816 -0.1382,-0.523534 -0.1382,-0.172344 -0.383709,-0.172344 -0.24876,0 -0.38696,0.172344 -0.136574,0.170718 -0.136574,0.523534 0,0.341436 0.1382,0.518657 0.1382,0.175595 0.385334,0.175595 0.243883,0 0.382083,-0.173969 0.139826,-0.175595 0.139826,-0.520283 z"
             style="stroke-width:0.08324522"
             id="path2111" />
          <path
             inkscape:connector-curvature="0"
             d="m 19.08042,83.608879 h -0.305666 v -1.034062 q 0,-0.125193 -0.01463,-0.234127 -0.01463,-0.11056 -0.05365,-0.172343 -0.04065,-0.06829 -0.117064,-0.100805 -0.07642,-0.03414 -0.198357,-0.03414 -0.125193,0 -0.261767,0.06178 -0.136575,0.06178 -0.261768,0.157711 v 1.355986 h -0.305666 v -1.816111 h 0.305666 v 0.201609 q 0.143078,-0.118689 0.295911,-0.185351 0.152833,-0.06666 0.313796,-0.06666 0.294284,0 0.448743,0.177221 0.154459,0.177222 0.154459,0.510528 z"
             style="stroke-width:0.08324522"
             id="path2113" />
          <path
             inkscape:connector-curvature="0"
             d="m 20.612002,83.59262 q -0.08617,0.02276 -0.188603,0.0374 -0.100804,0.01463 -0.180473,0.01463 -0.278026,0 -0.422729,-0.149582 -0.144704,-0.149581 -0.144704,-0.479635 v -0.965775 h -0.206487 v -0.256889 h 0.206487 V 81.27086 h 0.305666 v 0.521909 h 0.630843 v 0.256889 h -0.630843 v 0.827575 q 0,0.143077 0.0065,0.224372 0.0065,0.07967 0.04552,0.149581 0.03577,0.06503 0.09755,0.09593 0.06341,0.02927 0.191855,0.02927 0.07479,0 0.156084,-0.02114 0.0813,-0.02276 0.117064,-0.0374 h 0.01626 z"
             style="stroke-width:0.08324522"
             id="path2115" />
          <path
             inkscape:connector-curvature="0"
             d="m 22.502904,82.732528 h -1.338101 q 0,0.167466 0.0504,0.292659 0.0504,0.123567 0.1382,0.203235 0.08455,0.07804 0.199984,0.117064 0.117063,0.03902 0.256889,0.03902 0.185351,0 0.372327,-0.07317 0.188603,-0.07479 0.268271,-0.146329 h 0.01626 v 0.333306 q -0.154459,0.06504 -0.315421,0.108934 -0.160963,0.0439 -0.338184,0.0439 -0.451996,0 -0.705633,-0.243882 -0.253638,-0.245509 -0.253638,-0.695878 0,-0.445492 0.242256,-0.70726 0.243883,-0.261767 0.640598,-0.261767 0.36745,0 0.565808,0.214617 0.199983,0.214616 0.199983,0.609706 z m -0.297536,-0.234127 q -0.0016,-0.240631 -0.121941,-0.372327 -0.11869,-0.131697 -0.362572,-0.131697 -0.245509,0 -0.391838,0.144704 -0.144704,0.144703 -0.164214,0.35932 z"
             style="stroke-width:0.08324522"
             id="path2117" />
          <path
             inkscape:connector-curvature="0"
             d="m 24.538509,83.608879 h -0.385334 l -0.515405,-0.697504 -0.518657,0.697504 h -0.356068 l 0.708885,-0.905617 -0.702381,-0.910494 h 0.385334 l 0.512153,0.686122 0.513779,-0.686122 h 0.357694 l -0.713762,0.894235 z"
             style="stroke-width:0.08324522"
             id="path2119" />
          <path
             inkscape:connector-curvature="0"
             d="m 25.879863,83.59262 q -0.08617,0.02276 -0.188602,0.0374 -0.100805,0.01463 -0.180473,0.01463 -0.278026,0 -0.42273,-0.149582 -0.144703,-0.149581 -0.144703,-0.479635 v -0.965775 h -0.206488 v -0.256889 h 0.206488 V 81.27086 h 0.305666 v 0.521909 h 0.630842 v 0.256889 h -0.630842 v 0.827575 q 0,0.143077 0.0065,0.224372 0.0065,0.07967 0.04552,0.149581 0.03577,0.06503 0.09755,0.09593 0.06341,0.02927 0.191854,0.02927 0.07479,0 0.156085,-0.02114 0.08129,-0.02276 0.117063,-0.0374 h 0.01626 z"
             style="stroke-width:0.08324522"
             id="path2121" />
        </g>
        <g
           id="g1373"
           transform="translate(0.49105912,1.9194223)">
          <path
             inkscape:connector-curvature="0"
             style="fill:#211e1e;fill-opacity:1;fill-rule:evenodd;stroke:none;stroke-width:0.35277778"
             d="m 14.585878,67.209239 c 0.285256,0 0.516767,0.14193 0.516767,0.31281 0,0.17501 -0.231511,0.31281 -0.516767,0.31281 -0.283873,0 -0.515384,-0.1378 -0.515384,-0.31281 0,-0.17088 0.231511,-0.31281 0.515384,-0.31281 z m -0.457507,2.9738 h -1.063847 v 0.93431 h 1.063847 z m -1.081761,-0.30041 h 1.099675 c 0.07717,0 0.148827,0.0317 0.198438,0.0827 0.05374,0.0538 0.08406,0.12127 0.08406,0.19844 v 0.97152 c 0,0.0758 -0.0303,0.14745 -0.08406,0.19981 -0.04961,0.0524 -0.121268,0.0827 -0.198438,0.0827 H 13.04661 c -0.07855,0 -0.148826,-0.0303 -0.199813,-0.0827 -0.05375,-0.0524 -0.08406,-0.12402 -0.08406,-0.19981 v -0.97152 c 0,-0.0772 0.0303,-0.14469 0.08406,-0.19844 0.05099,-0.051 0.121267,-0.0827 0.199813,-0.0827 z m 1.120345,2.28616 h -1.067979 v 0.93294 h 1.067979 z m -1.087272,-0.30179 h 1.105186 c 0.07579,0 0.144695,0.0358 0.198437,0.0841 0.05099,0.0537 0.08406,0.12265 0.08406,0.19844 v 0.97152 c 0,0.0772 -0.03306,0.14883 -0.08406,0.19982 -0.05374,0.0537 -0.122643,0.0841 -0.198437,0.0841 h -1.105186 c -0.07579,0 -0.144692,-0.0303 -0.197058,-0.0841 -0.05099,-0.051 -0.08131,-0.12265 -0.08131,-0.19982 v -0.97152 c 0,-0.0758 0.0303,-0.14469 0.08131,-0.19844 0.05237,-0.0482 0.121267,-0.0841 0.197058,-0.0841 z m 3.479546,0.62977 v 0.27836 h -1.867242 v -0.27836 z m -2.46531,1.65916 h -1.069358 v 0.93293 h 1.069358 z m -1.087272,-0.30317 h 1.106565 c 0.07442,0 0.143316,0.0345 0.197058,0.0841 0.04961,0.0551 0.08131,0.12127 0.08131,0.19844 v 0.97151 c 0,0.0772 -0.03168,0.15021 -0.08131,0.19982 -0.05374,0.0524 -0.122643,0.0827 -0.197058,0.0827 h -1.106565 c -0.07579,0 -0.144695,-0.0303 -0.197058,-0.0827 -0.05099,-0.0496 -0.07993,-0.12265 -0.07993,-0.19982 v -0.97151 c 0,-0.0772 0.02893,-0.14332 0.07993,-0.19844 0.05236,-0.0496 0.121267,-0.0841 0.197058,-0.0841 z m 3.480926,0.62976 v 0.27837 H 14.62033 v -0.27837 z m 0.03306,-3.97151 v 0.27699 h -1.867242 v -0.27699 z m -4.927865,-1.38768 c 0,-0.1943 0.155716,-0.35416 0.354154,-0.35416 h 1.276064 c 0,-0.25907 0,-0.514 0,-0.79512 h 0.737253 c -0.212221,-0.10473 -0.354157,-0.26872 -0.354157,-0.452 0,-0.32797 0.438217,-0.59393 0.979783,-0.59393 0.540191,0 0.982543,0.26596 0.982543,0.59393 0,0.18328 -0.141937,0.34727 -0.354157,0.452 h 0.735873 v 0.79512 h 1.321537 c 0.194307,0 0.355537,0.15986 0.355537,0.35416 v 5.1456 l -0.69729,0.39825 -0.01654,-5.18969 h -4.612295 c 0,2.13733 0.03859,4.30223 0.03859,6.39272 1.274685,0 1.612304,0 4.573708,0 l 0.01654,-1.20303 0.69729,-0.39825 v 1.95543 c 0,0.19431 -0.16123,0.35416 -0.355537,0.35416 h -5.324739 c -0.198438,0 -0.354154,-0.15985 -0.354154,-0.35416 0,-2.31648 0,-4.74458 0,-7.10103"
             id="path28" />
          <path
             inkscape:connector-curvature="0"
             style="fill:#211e1e;fill-opacity:1;fill-rule:evenodd;stroke:none;stroke-width:0.35277778"
             d="m 24.082917,69.410228 1.36839,1.36288 h -1.03904 c -0.18052,0 -0.32935,-0.147451 -0.32935,-0.329354 z m -2.97794,-2.334397 0.77721,-0.143316 c 0.16261,-0.02893 0.31971,0.07993 0.34865,0.241155 l 0.0896,0.512632 -1.36426,0.24529 -0.0937,-0.505738 c -0.0152,-0.07993 0,-0.157099 0.0496,-0.227376 0.0441,-0.06477 0.11301,-0.107488 0.19293,-0.122647 z m 1.24023,0.748273 -1.36425,0.250804 0.0648,0.374827 1.36701,-0.250804 z m 0.68351,3.756533 -1.36839,0.24667 -0.58567,-3.235636 1.3684,-0.24529 z m -0.31006,1.423515 c -0.0152,0.05512 -0.0634,0.09784 -0.11851,0.107484 -0.0579,0.01101 -0.11162,-0.01379 -0.14607,-0.05925 l -0.7593,-1.037664 1.36839,-0.250804 z m 3.67799,-2.137339 c -0.0345,-0.176389 -0.12265,-0.350019 -0.26045,-0.486446 l -1.76802,-1.759754 c -0.40377,-0.407899 -1.04318,-0.274232 -1.57097,-0.274232 l 0.0248,0.137806 0.0882,0.486445 h 0.58153 v 1.314651 c 0,0.527787 0.42305,0.956356 0.95084,0.956356 h 1.33532 v 4.391808 c 0,0.177768 -0.14332,0.319705 -0.32108,0.319705 h -4.27881 c -0.18328,0 -0.32108,-0.141937 -0.32108,-0.319705 v -6.263181 l -0.16123,-0.891593 c -0.28112,0.162609 -0.46991,0.467155 -0.46991,0.811664 v 6.392721 c 0.0358,0.491959 0.4451,0.895724 0.95222,0.895724 h 4.27881 c 0.52227,0 0.94533,-0.423058 0.94533,-0.945335 V 70.89162 l -0.006,-0.0248"
             id="path198" />
        </g>
      </g>
      <g
         transform="translate(-24.201234,17.173671)"
         id="g1413">
        <g
           aria-label="Hypotheses"
           style="font-style:normal;font-weight:normal;font-size:3.32980871px;line-height:1.25;font-family:sans-serif;letter-spacing:0px;word-spacing:0px;fill:#000000;fill-opacity:1;stroke:none;stroke-width:0.08324522"
           id="text817-6">
          <path
             inkscape:connector-curvature="0"
             d="M 34.261656,90.381783 H 33.939731 V 89.196514 H 32.7317 v 1.185269 h -0.321925 v -2.42094 H 32.7317 v 0.949515 h 1.208031 v -0.949515 h 0.321925 z"
             style="stroke-width:0.08324522"
             id="path2124" />
          <path
             inkscape:connector-curvature="0"
             d="m 36.45985,88.565671 -1.060076,2.485975 h -0.326802 l 0.338183,-0.757661 -0.723518,-1.728314 h 0.331681 l 0.557677,1.346231 0.562556,-1.346231 z"
             style="stroke-width:0.08324522"
             id="path2126" />
          <path
             inkscape:connector-curvature="0"
             d="m 38.458061,89.451777 q 0,0.22112 -0.06341,0.404845 -0.06341,0.182099 -0.178847,0.308918 -0.107308,0.120315 -0.253638,0.186977 -0.144703,0.06503 -0.307292,0.06503 -0.141451,0 -0.256889,-0.03089 -0.113812,-0.03089 -0.232501,-0.09593 v 0.760913 h -0.305667 v -2.485975 h 0.305667 v 0.190228 q 0.121941,-0.10243 0.273148,-0.170717 0.152833,-0.06991 0.325177,-0.06991 0.328428,0 0.510527,0.24876 0.183725,0.247134 0.183725,0.687748 z m -0.315422,0.0081 q 0,-0.328429 -0.112186,-0.491017 -0.112186,-0.162588 -0.344687,-0.162588 -0.131696,0 -0.265019,0.05691 -0.133322,0.05691 -0.255263,0.149581 v 1.029184 q 0.13007,0.05853 0.222746,0.07967 0.0943,0.02114 0.21299,0.02114 0.255264,0 0.398342,-0.172344 0.143077,-0.172344 0.143077,-0.510527 z"
             style="stroke-width:0.08324522"
             id="path2128" />
          <path
             inkscape:connector-curvature="0"
             d="m 40.482285,89.47454 q 0,0.443866 -0.227623,0.700755 -0.227624,0.25689 -0.609707,0.25689 -0.385334,0 -0.612958,-0.25689 Q 38.806,89.918406 38.806,89.47454 q 0,-0.443866 0.225997,-0.700756 0.227624,-0.258515 0.612958,-0.258515 0.382083,0 0.609707,0.258515 0.227623,0.25689 0.227623,0.700756 z m -0.315421,0 q 0,-0.352817 -0.1382,-0.523535 -0.1382,-0.172343 -0.383709,-0.172343 -0.24876,0 -0.38696,0.172343 -0.136574,0.170718 -0.136574,0.523535 0,0.341435 0.1382,0.518656 0.1382,0.175596 0.385334,0.175596 0.243883,0 0.382083,-0.17397 0.139826,-0.175595 0.139826,-0.520282 z"
             style="stroke-width:0.08324522"
             id="path2130" />
          <path
             inkscape:connector-curvature="0"
             d="m 41.900055,90.365524 q -0.08617,0.02276 -0.188602,0.0374 -0.100805,0.01463 -0.180473,0.01463 -0.278026,0 -0.42273,-0.149581 -0.144703,-0.149582 -0.144703,-0.479636 V 88.822561 H 40.75706 v -0.25689 h 0.206487 v -0.521908 h 0.305666 v 0.521908 h 0.630842 v 0.25689 h -0.630842 v 0.827574 q 0,0.143078 0.0065,0.224372 0.0065,0.07967 0.04552,0.149581 0.03577,0.06504 0.09755,0.09593 0.06341,0.02927 0.191854,0.02927 0.07479,0 0.156085,-0.02114 0.08129,-0.02276 0.117064,-0.0374 h 0.01626 z"
             style="stroke-width:0.08324522"
             id="path2132" />
          <path
             inkscape:connector-curvature="0"
             d="m 43.789331,90.381783 h -0.305666 v -1.034062 q 0,-0.125193 -0.01463,-0.234127 -0.01463,-0.11056 -0.05365,-0.172344 -0.04065,-0.06829 -0.117064,-0.100805 -0.07642,-0.03414 -0.198357,-0.03414 -0.125193,0 -0.261768,0.06178 -0.136574,0.06178 -0.261767,0.157711 v 1.355987 h -0.305666 v -2.529875 h 0.305666 v 0.915373 q 0.143078,-0.11869 0.295911,-0.185351 0.152833,-0.06666 0.313795,-0.06666 0.294285,0 0.448744,0.177221 0.154459,0.177221 0.154459,0.510527 z"
             style="stroke-width:0.08324522"
             id="path2134" />
          <path
             inkscape:connector-curvature="0"
             d="M 45.898102,89.505432 H 44.56 q 0,0.167465 0.0504,0.292658 0.0504,0.123568 0.1382,0.203236 0.08455,0.07804 0.199984,0.117063 0.117063,0.03902 0.256889,0.03902 0.185351,0 0.372327,-0.07317 0.188603,-0.07479 0.268271,-0.14633 h 0.01626 v 0.333306 q -0.154459,0.06504 -0.315421,0.108935 -0.160963,0.0439 -0.338184,0.0439 -0.451996,0 -0.705633,-0.243882 -0.253638,-0.245508 -0.253638,-0.695878 0,-0.445492 0.242256,-0.707259 0.243883,-0.261767 0.640598,-0.261767 0.36745,0 0.565808,0.214616 0.199983,0.214617 0.199983,0.609706 z m -0.297536,-0.234128 q -0.0016,-0.24063 -0.121942,-0.372327 -0.118689,-0.131696 -0.362572,-0.131696 -0.245508,0 -0.391837,0.144703 -0.144704,0.144704 -0.164215,0.35932 z"
             style="stroke-width:0.08324522"
             id="path2136" />
          <path
             inkscape:connector-curvature="0"
             d="m 47.658933,89.858248 q 0,0.24876 -0.206487,0.408097 -0.204861,0.159336 -0.56093,0.159336 -0.201609,0 -0.370701,-0.04715 -0.167466,-0.04878 -0.281278,-0.105683 v -0.343061 h 0.01626 q 0.144704,0.108934 0.321925,0.17397 0.177221,0.06341 0.339809,0.06341 0.20161,0 0.315422,-0.06503 0.113812,-0.06504 0.113812,-0.204862 0,-0.107308 -0.06178,-0.162588 -0.06178,-0.05528 -0.237379,-0.0943 -0.06504,-0.01463 -0.170718,-0.03414 -0.104056,-0.01951 -0.190228,-0.04227 -0.239005,-0.06341 -0.33981,-0.18535 -0.09918,-0.123567 -0.09918,-0.302415 0,-0.112186 0.04552,-0.211364 0.04715,-0.09918 0.141452,-0.177222 0.09105,-0.07642 0.230875,-0.120315 0.141452,-0.04552 0.315422,-0.04552 0.162588,0 0.328428,0.04065 0.167466,0.03902 0.278026,0.09593 v 0.326803 h -0.01626 q -0.117063,-0.08617 -0.284529,-0.144704 -0.167466,-0.06016 -0.328429,-0.06016 -0.167466,0 -0.282903,0.06503 -0.115438,0.06341 -0.115438,0.190228 0,0.112186 0.06991,0.169092 0.06829,0.05691 0.22112,0.09267 0.08455,0.01951 0.188603,0.03902 0.105682,0.01951 0.175595,0.03577 0.212991,0.04878 0.328428,0.167466 0.115438,0.120315 0.115438,0.318673 z"
             style="stroke-width:0.08324522"
             id="path2138" />
          <path
             inkscape:connector-curvature="0"
             d="m 49.618123,89.505432 h -1.338102 q 0,0.167465 0.0504,0.292658 0.0504,0.123568 0.1382,0.203236 0.08455,0.07804 0.199984,0.117063 0.117063,0.03902 0.256889,0.03902 0.185351,0 0.372328,-0.07317 0.188602,-0.07479 0.26827,-0.14633 h 0.01626 v 0.333306 q -0.154459,0.06504 -0.315421,0.108935 -0.160963,0.0439 -0.338184,0.0439 -0.451995,0 -0.705633,-0.243882 -0.253638,-0.245508 -0.253638,-0.695878 0,-0.445492 0.242257,-0.707259 0.243882,-0.261767 0.640598,-0.261767 0.367449,0 0.565807,0.214616 0.199984,0.214617 0.199984,0.609706 z m -0.297537,-0.234128 q -0.0016,-0.24063 -0.121941,-0.372327 -0.11869,-0.131696 -0.362572,-0.131696 -0.245509,0 -0.391838,0.144703 -0.144704,0.144704 -0.164214,0.35932 z"
             style="stroke-width:0.08324522"
             id="path2140" />
          <path
             inkscape:connector-curvature="0"
             d="m 51.378953,89.858248 q 0,0.24876 -0.206487,0.408097 -0.204861,0.159336 -0.560929,0.159336 -0.20161,0 -0.370702,-0.04715 -0.167466,-0.04878 -0.281278,-0.105683 v -0.343061 h 0.01626 q 0.144704,0.108934 0.321925,0.17397 0.177221,0.06341 0.33981,0.06341 0.201609,0 0.315421,-0.06503 0.113812,-0.06504 0.113812,-0.204862 0,-0.107308 -0.06178,-0.162588 -0.06178,-0.05528 -0.237379,-0.0943 -0.06504,-0.01463 -0.170717,-0.03414 -0.104057,-0.01951 -0.190229,-0.04227 -0.239005,-0.06341 -0.339809,-0.18535 -0.09918,-0.123567 -0.09918,-0.302415 0,-0.112186 0.04553,-0.211364 0.04715,-0.09918 0.141451,-0.177222 0.09105,-0.07642 0.230876,-0.120315 0.141452,-0.04552 0.315421,-0.04552 0.162588,0 0.328428,0.04065 0.167466,0.03902 0.278027,0.09593 v 0.326803 h -0.01626 q -0.117064,-0.08617 -0.28453,-0.144704 -0.167466,-0.06016 -0.328428,-0.06016 -0.167466,0 -0.282904,0.06503 -0.115438,0.06341 -0.115438,0.190228 0,0.112186 0.06991,0.169092 0.06829,0.05691 0.22112,0.09267 0.08455,0.01951 0.188603,0.03902 0.105682,0.01951 0.175595,0.03577 0.212991,0.04878 0.328429,0.167466 0.115437,0.120315 0.115437,0.318673 z"
             style="stroke-width:0.08324522"
             id="path2142" />
        </g>
        <g
           id="g1380"
           transform="translate(-6.4762538,7.1776895)">
          <path
             inkscape:connector-curvature="0"
             style="fill:#211e1e;fill-opacity:1;fill-rule:evenodd;stroke:none;stroke-width:0.35277778"
             d="m 42.268631,72.304006 c 0.2191,0 0.39411,0.830958 0.39411,1.857594 0,1.02664 -0.17501,1.858977 -0.39411,1.858977 -0.21911,0 -0.3955,-0.832337 -0.3955,-1.858977 0,-1.026636 0.17639,-1.857594 0.3955,-1.857594 z m 0.29765,-2.721624 c 0,0.09509 -0.0248,0.176389 -0.0786,0.238401 -0.0579,0.06063 -0.12677,0.09095 -0.21221,0.09095 -0.0717,0 -0.14194,-0.0303 -0.19431,-0.09095 -0.0537,-0.06201 -0.0854,-0.143316 -0.0854,-0.238401 v -0.869544 c 0,-0.100594 0.0317,-0.176389 0.0854,-0.242535 0.0524,-0.06063 0.12265,-0.09095 0.19431,-0.09095 0.0854,0 0.15434,0.0303 0.21221,0.09095 0.0538,0.06615 0.0786,0.141941 0.0786,0.242535 z m -1.95819,0.267339 c 0.0537,0.07717 0.0772,0.157095 0.062,0.246669 -0.0124,0.08406 -0.0537,0.148827 -0.12264,0.191548 -0.0648,0.04134 -0.13367,0.04961 -0.21911,0.02205 -0.0841,-0.02205 -0.14883,-0.07166 -0.19844,-0.14883 l -0.47542,-0.735874 c -0.0537,-0.07717 -0.0772,-0.15434 -0.062,-0.23702 0.0124,-0.08544 0.0537,-0.150206 0.12264,-0.195683 0.0661,-0.04272 0.13505,-0.04961 0.21911,-0.02755 0.0841,0.02205 0.14883,0.07304 0.19568,0.150206 z m 3.32107,0 c -0.0592,0.07717 -0.0772,0.157095 -0.0661,0.246669 0.0152,0.08406 0.0565,0.148827 0.12677,0.191548 0.0689,0.04134 0.14194,0.04961 0.22187,0.02205 0.0799,-0.02205 0.14607,-0.07166 0.20395,-0.14883 l 0.47404,-0.735874 c 0.051,-0.07717 0.0689,-0.15434 0.0579,-0.23702 -0.011,-0.08544 -0.0482,-0.150206 -0.11851,-0.195683 -0.0689,-0.04272 -0.14607,-0.04961 -0.22186,-0.02755 -0.0813,0.02205 -0.15021,0.07304 -0.20395,0.150206 z m -0.64354,6.501585 c 0.0413,0 0.0744,0.01517 0.10611,0.0441 0.0303,0.03168 0.0455,0.07441 0.0455,0.119888 v 0.352778 c 0,0.04272 -0.0152,0.08131 -0.0455,0.111622 -0.0317,0.0303 -0.0648,0.04547 -0.10611,0.04547 h -2.02572 c -0.0455,0 -0.0882,-0.01517 -0.11713,-0.04547 -0.0317,-0.0303 -0.0469,-0.0689 -0.0469,-0.111622 v -0.352778 c 0,-0.107488 0.0537,-0.163985 0.16398,-0.163985 z m 0,1.007343 c 0.0413,0 0.0744,0.01517 0.10611,0.04686 0.0303,0.0303 0.0455,0.06477 0.0455,0.106108 v 0.352778 c 0,0.05099 -0.0152,0.08819 -0.0455,0.119888 -0.0317,0.0303 -0.0648,0.0441 -0.10611,0.0441 h -2.02572 c -0.11024,0 -0.16398,-0.05374 -0.16398,-0.163985 V 77.51162 c 0,-0.04134 0.0152,-0.07579 0.0469,-0.106108 0.0289,-0.03171 0.0717,-0.04686 0.11713,-0.04686 z m 1.29398,-4.989876 c 0,0.01517 -0.004,0.02618 -0.004,0.03447 -0.004,0.0041 -0.007,0.01517 -0.007,0.0303 v 0.03168 c 0,0.121268 -0.0152,0.259073 -0.0496,0.413414 -0.0496,0.263204 -0.14332,0.533297 -0.27698,0.813039 -0.13368,0.279743 -0.27975,0.577399 -0.4396,0.895728 -0.10473,0.208082 -0.17777,0.39963 -0.21911,0.56775 -0.0427,0.169499 -0.073,0.312815 -0.0965,0.439593 -0.0262,0.124026 -0.0537,0.223245 -0.0799,0.29628 -0.0275,0.07304 -0.0772,0.114378 -0.15434,0.129537 h -1.96921 c -0.0772,-0.01517 -0.13092,-0.0565 -0.1571,-0.129537 -0.0262,-0.07304 -0.0537,-0.172254 -0.0772,-0.29628 -0.0234,-0.126778 -0.0579,-0.270094 -0.0992,-0.439593 -0.0427,-0.16812 -0.11437,-0.359668 -0.21773,-0.56775 -0.15709,-0.318329 -0.30317,-0.615985 -0.44097,-0.895728 -0.13505,-0.279742 -0.22738,-0.549835 -0.27285,-0.813039 -0.0152,-0.06891 -0.0262,-0.137806 -0.0303,-0.206707 l -0.0234,-0.206707 v -0.09646 c 0,-0.330729 0.0579,-0.621496 0.17225,-0.87092 0.11576,-0.248045 0.27286,-0.458887 0.47542,-0.631141 0.20396,-0.172254 0.44925,-0.303167 0.72899,-0.38723 0.27974,-0.08819 0.58291,-0.130912 0.91502,-0.130912 h 0.0193 c 0.33349,0 0.64079,0.04272 0.92053,0.130912 0.27974,0.08406 0.5209,0.214976 0.72347,0.38723 0.20395,0.172254 0.36518,0.383096 0.48369,0.631141 0.11852,0.249424 0.17639,0.540191 0.17639,0.87092"
             id="path188" />
          <g
             transform="translate(-6.9013593,10.791398)"
             id="g1369">
            <path
               inkscape:connector-curvature="0"
               id="path70"
               transform="scale(0.26458333)"
               style="fill:#211e1e;fill-opacity:1;fill-rule:evenodd;stroke:none;stroke-width:1.33333337"
               d="m 217.72266,217.65625 c -3.09831,0.003 -6.19337,1.18686 -8.55274,3.54102 -4.73435,4.71877 -4.73435,12.38411 0,17.11328 4.23961,4.25518 10.85351,4.64713 15.58789,1.27734 l 2.02539,1.94727 -0.82812,1.64062 10.95898,10.94727 c 0,0 2.38089,0.0227 3.81836,-1.625 1.43751,-1.64062 1.36328,-3.55078 1.36328,-3.55078 l -10.9414,-10.94336 -1.42188,0.85937 -2.17187,-2.10351 c 3.37496,-4.72918 2.96291,-11.32811 -1.27149,-15.5625 -2.36717,-2.36718 -5.46809,-3.54428 -8.5664,-3.54102 z m 0.0117,2.77539 c 2.38865,0 4.77863,0.91145 6.60156,2.73438 3.62498,3.62502 3.62498,9.54036 0,13.17578 -3.64585,3.64584 -9.56316,3.64584 -13.19336,0 -3.64585,-3.63542 -3.64585,-9.52472 0,-13.17578 1.8151,-1.82293 4.20312,-2.73438 6.5918,-2.73438 z m -5.5293,8.79102 c -0.003,0.0245 -0.003,0.0497 -0.006,0.0742 0.006,-8e-4 0.0133,-0.001 0.0195,-0.002 -0.007,-0.0236 -0.007,-0.0485 -0.0137,-0.0723 z" />
            <g
               aria-label="?"
               style="font-style:normal;font-weight:normal;font-size:4.07969904px;line-height:1.25;font-family:sans-serif;letter-spacing:0px;word-spacing:0px;fill:#000000;fill-opacity:1;stroke:none;stroke-width:0.10199248"
               id="text1361">
              <path
                 inkscape:connector-curvature="0"
                 d="m 56.663395,60.241406 q 0.04582,-0.404385 0.296814,-0.623509 0.250997,-0.221117 0.649405,-0.221117 0.41036,0 0.67331,0.227093 0.264941,0.225101 0.264941,0.567732 0,0.171315 -0.07769,0.33267 -0.0757,0.161356 -0.362551,0.414345 -0.219124,0.19522 -0.276894,0.308766 -0.05578,0.111554 -0.06175,0.402392 h -0.342631 q 0,-0.231076 0.01594,-0.336655 0.01793,-0.10757 0.06972,-0.209164 0.05379,-0.101594 0.137451,-0.191236 0.08566,-0.08964 0.239045,-0.223108 0.19522,-0.173308 0.243029,-0.270918 0.0498,-0.0996 0.0498,-0.201196 0,-0.209164 -0.16534,-0.366535 -0.165339,-0.159364 -0.402392,-0.159364 -0.482074,0 -0.581676,0.589644 z m 1.147415,2.125507 h -0.408368 v -0.408368 h 0.408368 z"
                 style="font-style:normal;font-variant:normal;font-weight:normal;font-stretch:normal;font-family:'Arial Unicode MS';-inkscape-font-specification:'Arial Unicode MS';stroke-width:0.10199248"
                 id="path1363" />
            </g>
          </g>
        </g>
      </g>
    </g>
    <g
       id="g2107"
       style="fill:#e57211;fill-opacity:1"
       transform="matrix(2.2182884,0,0,2.2182884,13.389978,57.543602)">
      <path
         inkscape:connector-curvature="0"
         style="fill:#e57211;fill-opacity:1;fill-rule:nonzero;stroke:none;stroke-width:0.18598446"
         d="m 27.088104,85.177639 h -3.34699 l 1.82788,2.289209 h -3.95217 v 5.052093 h 3.95217 l -1.82788,2.288481 h 3.34699 l 4.34448,-4.814528 -4.34448,-4.815255"
         id="path68-5" />
      <path
         inkscape:connector-curvature="0"
         style="fill:#e57211;fill-opacity:1;fill-rule:nonzero;stroke:none;stroke-width:0.18598448"
         d="m 91.50006,85.177639 h -3.34699 l 1.82788,2.289209 h -3.95217 v 5.052093 h 3.95217 l -1.82788,2.288481 h 3.34699 l 4.34448,-4.814528 -4.34448,-4.815255"
         id="path68-5-0" />
    </g>
  </g>
</svg>
